G04 #@! TF.GenerationSoftware,KiCad,Pcbnew,(7.0.0)*
G04 #@! TF.CreationDate,2023-06-14T17:50:15+02:00*
G04 #@! TF.ProjectId,Switch ETHERNET,53776974-6368-4204-9554-4845524e4554,rev?*
G04 #@! TF.SameCoordinates,Original*
G04 #@! TF.FileFunction,Legend,Bot*
G04 #@! TF.FilePolarity,Positive*
%FSLAX46Y46*%
G04 Gerber Fmt 4.6, Leading zero omitted, Abs format (unit mm)*
G04 Created by KiCad (PCBNEW (7.0.0)) date 2023-06-14 17:50:15*
%MOMM*%
%LPD*%
G01*
G04 APERTURE LIST*
G04 Aperture macros list*
%AMRoundRect*
0 Rectangle with rounded corners*
0 $1 Rounding radius*
0 $2 $3 $4 $5 $6 $7 $8 $9 X,Y pos of 4 corners*
0 Add a 4 corners polygon primitive as box body*
4,1,4,$2,$3,$4,$5,$6,$7,$8,$9,$2,$3,0*
0 Add four circle primitives for the rounded corners*
1,1,$1+$1,$2,$3*
1,1,$1+$1,$4,$5*
1,1,$1+$1,$6,$7*
1,1,$1+$1,$8,$9*
0 Add four rect primitives between the rounded corners*
20,1,$1+$1,$2,$3,$4,$5,0*
20,1,$1+$1,$4,$5,$6,$7,0*
20,1,$1+$1,$6,$7,$8,$9,0*
20,1,$1+$1,$8,$9,$2,$3,0*%
G04 Aperture macros list end*
%ADD10C,0.200000*%
%ADD11C,0.150000*%
%ADD12C,0.120000*%
%ADD13C,0.800000*%
%ADD14C,5.400000*%
%ADD15R,1.700000X1.700000*%
%ADD16O,1.700000X1.700000*%
%ADD17C,3.250000*%
%ADD18R,1.500000X1.500000*%
%ADD19C,1.500000*%
%ADD20C,2.300000*%
%ADD21R,3.500000X3.500000*%
%ADD22RoundRect,0.750000X1.000000X-0.750000X1.000000X0.750000X-1.000000X0.750000X-1.000000X-0.750000X0*%
%ADD23RoundRect,0.875000X0.875000X-0.875000X0.875000X0.875000X-0.875000X0.875000X-0.875000X-0.875000X0*%
%ADD24RoundRect,0.135000X-0.185000X0.135000X-0.185000X-0.135000X0.185000X-0.135000X0.185000X0.135000X0*%
%ADD25RoundRect,0.140000X-0.219203X-0.021213X-0.021213X-0.219203X0.219203X0.021213X0.021213X0.219203X0*%
%ADD26RoundRect,0.140000X-0.021213X0.219203X-0.219203X0.021213X0.021213X-0.219203X0.219203X-0.021213X0*%
%ADD27RoundRect,0.200000X-0.335876X-0.053033X-0.053033X-0.335876X0.335876X0.053033X0.053033X0.335876X0*%
%ADD28RoundRect,0.249999X-1.450001X0.450001X-1.450001X-0.450001X1.450001X-0.450001X1.450001X0.450001X0*%
%ADD29RoundRect,0.140000X0.021213X-0.219203X0.219203X-0.021213X-0.021213X0.219203X-0.219203X0.021213X0*%
%ADD30RoundRect,0.140000X0.219203X0.021213X0.021213X0.219203X-0.219203X-0.021213X-0.021213X-0.219203X0*%
%ADD31RoundRect,0.135000X0.226274X0.035355X0.035355X0.226274X-0.226274X-0.035355X-0.035355X-0.226274X0*%
G04 APERTURE END LIST*
D10*
X174895714Y-87312380D02*
X175371904Y-87312380D01*
X175371904Y-87312380D02*
X175419523Y-87788571D01*
X175419523Y-87788571D02*
X175371904Y-87740952D01*
X175371904Y-87740952D02*
X175276666Y-87693333D01*
X175276666Y-87693333D02*
X175038571Y-87693333D01*
X175038571Y-87693333D02*
X174943333Y-87740952D01*
X174943333Y-87740952D02*
X174895714Y-87788571D01*
X174895714Y-87788571D02*
X174848095Y-87883809D01*
X174848095Y-87883809D02*
X174848095Y-88121904D01*
X174848095Y-88121904D02*
X174895714Y-88217142D01*
X174895714Y-88217142D02*
X174943333Y-88264761D01*
X174943333Y-88264761D02*
X175038571Y-88312380D01*
X175038571Y-88312380D02*
X175276666Y-88312380D01*
X175276666Y-88312380D02*
X175371904Y-88264761D01*
X175371904Y-88264761D02*
X175419523Y-88217142D01*
X174419523Y-87931428D02*
X173657619Y-87931428D01*
X173181428Y-88312380D02*
X173181428Y-87312380D01*
X173181428Y-87312380D02*
X172800476Y-87312380D01*
X172800476Y-87312380D02*
X172705238Y-87360000D01*
X172705238Y-87360000D02*
X172657619Y-87407619D01*
X172657619Y-87407619D02*
X172610000Y-87502857D01*
X172610000Y-87502857D02*
X172610000Y-87645714D01*
X172610000Y-87645714D02*
X172657619Y-87740952D01*
X172657619Y-87740952D02*
X172705238Y-87788571D01*
X172705238Y-87788571D02*
X172800476Y-87836190D01*
X172800476Y-87836190D02*
X173181428Y-87836190D01*
X172038571Y-88312380D02*
X172133809Y-88264761D01*
X172133809Y-88264761D02*
X172181428Y-88217142D01*
X172181428Y-88217142D02*
X172229047Y-88121904D01*
X172229047Y-88121904D02*
X172229047Y-87836190D01*
X172229047Y-87836190D02*
X172181428Y-87740952D01*
X172181428Y-87740952D02*
X172133809Y-87693333D01*
X172133809Y-87693333D02*
X172038571Y-87645714D01*
X172038571Y-87645714D02*
X171895714Y-87645714D01*
X171895714Y-87645714D02*
X171800476Y-87693333D01*
X171800476Y-87693333D02*
X171752857Y-87740952D01*
X171752857Y-87740952D02*
X171705238Y-87836190D01*
X171705238Y-87836190D02*
X171705238Y-88121904D01*
X171705238Y-88121904D02*
X171752857Y-88217142D01*
X171752857Y-88217142D02*
X171800476Y-88264761D01*
X171800476Y-88264761D02*
X171895714Y-88312380D01*
X171895714Y-88312380D02*
X172038571Y-88312380D01*
X171276666Y-88312380D02*
X171276666Y-87645714D01*
X171276666Y-87836190D02*
X171229047Y-87740952D01*
X171229047Y-87740952D02*
X171181428Y-87693333D01*
X171181428Y-87693333D02*
X171086190Y-87645714D01*
X171086190Y-87645714D02*
X170990952Y-87645714D01*
X170800475Y-87645714D02*
X170419523Y-87645714D01*
X170657618Y-87312380D02*
X170657618Y-88169523D01*
X170657618Y-88169523D02*
X170609999Y-88264761D01*
X170609999Y-88264761D02*
X170514761Y-88312380D01*
X170514761Y-88312380D02*
X170419523Y-88312380D01*
X168962380Y-87360000D02*
X169057618Y-87312380D01*
X169057618Y-87312380D02*
X169200475Y-87312380D01*
X169200475Y-87312380D02*
X169343332Y-87360000D01*
X169343332Y-87360000D02*
X169438570Y-87455238D01*
X169438570Y-87455238D02*
X169486189Y-87550476D01*
X169486189Y-87550476D02*
X169533808Y-87740952D01*
X169533808Y-87740952D02*
X169533808Y-87883809D01*
X169533808Y-87883809D02*
X169486189Y-88074285D01*
X169486189Y-88074285D02*
X169438570Y-88169523D01*
X169438570Y-88169523D02*
X169343332Y-88264761D01*
X169343332Y-88264761D02*
X169200475Y-88312380D01*
X169200475Y-88312380D02*
X169105237Y-88312380D01*
X169105237Y-88312380D02*
X168962380Y-88264761D01*
X168962380Y-88264761D02*
X168914761Y-88217142D01*
X168914761Y-88217142D02*
X168914761Y-87883809D01*
X168914761Y-87883809D02*
X169105237Y-87883809D01*
X168486189Y-88312380D02*
X168486189Y-87645714D01*
X168486189Y-87312380D02*
X168533808Y-87360000D01*
X168533808Y-87360000D02*
X168486189Y-87407619D01*
X168486189Y-87407619D02*
X168438570Y-87360000D01*
X168438570Y-87360000D02*
X168486189Y-87312380D01*
X168486189Y-87312380D02*
X168486189Y-87407619D01*
X167581428Y-87645714D02*
X167581428Y-88455238D01*
X167581428Y-88455238D02*
X167629047Y-88550476D01*
X167629047Y-88550476D02*
X167676666Y-88598095D01*
X167676666Y-88598095D02*
X167771904Y-88645714D01*
X167771904Y-88645714D02*
X167914761Y-88645714D01*
X167914761Y-88645714D02*
X168009999Y-88598095D01*
X167581428Y-88264761D02*
X167676666Y-88312380D01*
X167676666Y-88312380D02*
X167867142Y-88312380D01*
X167867142Y-88312380D02*
X167962380Y-88264761D01*
X167962380Y-88264761D02*
X168009999Y-88217142D01*
X168009999Y-88217142D02*
X168057618Y-88121904D01*
X168057618Y-88121904D02*
X168057618Y-87836190D01*
X168057618Y-87836190D02*
X168009999Y-87740952D01*
X168009999Y-87740952D02*
X167962380Y-87693333D01*
X167962380Y-87693333D02*
X167867142Y-87645714D01*
X167867142Y-87645714D02*
X167676666Y-87645714D01*
X167676666Y-87645714D02*
X167581428Y-87693333D01*
X166676666Y-88312380D02*
X166676666Y-87788571D01*
X166676666Y-87788571D02*
X166724285Y-87693333D01*
X166724285Y-87693333D02*
X166819523Y-87645714D01*
X166819523Y-87645714D02*
X167009999Y-87645714D01*
X167009999Y-87645714D02*
X167105237Y-87693333D01*
X166676666Y-88264761D02*
X166771904Y-88312380D01*
X166771904Y-88312380D02*
X167009999Y-88312380D01*
X167009999Y-88312380D02*
X167105237Y-88264761D01*
X167105237Y-88264761D02*
X167152856Y-88169523D01*
X167152856Y-88169523D02*
X167152856Y-88074285D01*
X167152856Y-88074285D02*
X167105237Y-87979047D01*
X167105237Y-87979047D02*
X167009999Y-87931428D01*
X167009999Y-87931428D02*
X166771904Y-87931428D01*
X166771904Y-87931428D02*
X166676666Y-87883809D01*
X166200475Y-88312380D02*
X166200475Y-87312380D01*
X166200475Y-87693333D02*
X166105237Y-87645714D01*
X166105237Y-87645714D02*
X165914761Y-87645714D01*
X165914761Y-87645714D02*
X165819523Y-87693333D01*
X165819523Y-87693333D02*
X165771904Y-87740952D01*
X165771904Y-87740952D02*
X165724285Y-87836190D01*
X165724285Y-87836190D02*
X165724285Y-88121904D01*
X165724285Y-88121904D02*
X165771904Y-88217142D01*
X165771904Y-88217142D02*
X165819523Y-88264761D01*
X165819523Y-88264761D02*
X165914761Y-88312380D01*
X165914761Y-88312380D02*
X166105237Y-88312380D01*
X166105237Y-88312380D02*
X166200475Y-88264761D01*
X165295713Y-88312380D02*
X165295713Y-87645714D01*
X165295713Y-87312380D02*
X165343332Y-87360000D01*
X165343332Y-87360000D02*
X165295713Y-87407619D01*
X165295713Y-87407619D02*
X165248094Y-87360000D01*
X165248094Y-87360000D02*
X165295713Y-87312380D01*
X165295713Y-87312380D02*
X165295713Y-87407619D01*
X164962380Y-87645714D02*
X164581428Y-87645714D01*
X164819523Y-87312380D02*
X164819523Y-88169523D01*
X164819523Y-88169523D02*
X164771904Y-88264761D01*
X164771904Y-88264761D02*
X164676666Y-88312380D01*
X164676666Y-88312380D02*
X164581428Y-88312380D01*
X163648094Y-87788571D02*
X163314761Y-87788571D01*
X163171904Y-88312380D02*
X163648094Y-88312380D01*
X163648094Y-88312380D02*
X163648094Y-87312380D01*
X163648094Y-87312380D02*
X163171904Y-87312380D01*
X162886189Y-87312380D02*
X162314761Y-87312380D01*
X162600475Y-88312380D02*
X162600475Y-87312380D01*
X161981427Y-88312380D02*
X161981427Y-87312380D01*
X161981427Y-87788571D02*
X161409999Y-87788571D01*
X161409999Y-88312380D02*
X161409999Y-87312380D01*
X160933808Y-87788571D02*
X160600475Y-87788571D01*
X160457618Y-88312380D02*
X160933808Y-88312380D01*
X160933808Y-88312380D02*
X160933808Y-87312380D01*
X160933808Y-87312380D02*
X160457618Y-87312380D01*
X159457618Y-88312380D02*
X159790951Y-87836190D01*
X160029046Y-88312380D02*
X160029046Y-87312380D01*
X160029046Y-87312380D02*
X159648094Y-87312380D01*
X159648094Y-87312380D02*
X159552856Y-87360000D01*
X159552856Y-87360000D02*
X159505237Y-87407619D01*
X159505237Y-87407619D02*
X159457618Y-87502857D01*
X159457618Y-87502857D02*
X159457618Y-87645714D01*
X159457618Y-87645714D02*
X159505237Y-87740952D01*
X159505237Y-87740952D02*
X159552856Y-87788571D01*
X159552856Y-87788571D02*
X159648094Y-87836190D01*
X159648094Y-87836190D02*
X160029046Y-87836190D01*
X159029046Y-88312380D02*
X159029046Y-87312380D01*
X159029046Y-87312380D02*
X158457618Y-88312380D01*
X158457618Y-88312380D02*
X158457618Y-87312380D01*
X157981427Y-87788571D02*
X157648094Y-87788571D01*
X157505237Y-88312380D02*
X157981427Y-88312380D01*
X157981427Y-88312380D02*
X157981427Y-87312380D01*
X157981427Y-87312380D02*
X157505237Y-87312380D01*
X157219522Y-87312380D02*
X156648094Y-87312380D01*
X156933808Y-88312380D02*
X156933808Y-87312380D01*
X155762379Y-88264761D02*
X155619522Y-88312380D01*
X155619522Y-88312380D02*
X155381427Y-88312380D01*
X155381427Y-88312380D02*
X155286189Y-88264761D01*
X155286189Y-88264761D02*
X155238570Y-88217142D01*
X155238570Y-88217142D02*
X155190951Y-88121904D01*
X155190951Y-88121904D02*
X155190951Y-88026666D01*
X155190951Y-88026666D02*
X155238570Y-87931428D01*
X155238570Y-87931428D02*
X155286189Y-87883809D01*
X155286189Y-87883809D02*
X155381427Y-87836190D01*
X155381427Y-87836190D02*
X155571903Y-87788571D01*
X155571903Y-87788571D02*
X155667141Y-87740952D01*
X155667141Y-87740952D02*
X155714760Y-87693333D01*
X155714760Y-87693333D02*
X155762379Y-87598095D01*
X155762379Y-87598095D02*
X155762379Y-87502857D01*
X155762379Y-87502857D02*
X155714760Y-87407619D01*
X155714760Y-87407619D02*
X155667141Y-87360000D01*
X155667141Y-87360000D02*
X155571903Y-87312380D01*
X155571903Y-87312380D02*
X155333808Y-87312380D01*
X155333808Y-87312380D02*
X155190951Y-87360000D01*
X154857617Y-87645714D02*
X154667141Y-88312380D01*
X154667141Y-88312380D02*
X154476665Y-87836190D01*
X154476665Y-87836190D02*
X154286189Y-88312380D01*
X154286189Y-88312380D02*
X154095713Y-87645714D01*
X153714760Y-88312380D02*
X153714760Y-87645714D01*
X153714760Y-87312380D02*
X153762379Y-87360000D01*
X153762379Y-87360000D02*
X153714760Y-87407619D01*
X153714760Y-87407619D02*
X153667141Y-87360000D01*
X153667141Y-87360000D02*
X153714760Y-87312380D01*
X153714760Y-87312380D02*
X153714760Y-87407619D01*
X153381427Y-87645714D02*
X153000475Y-87645714D01*
X153238570Y-87312380D02*
X153238570Y-88169523D01*
X153238570Y-88169523D02*
X153190951Y-88264761D01*
X153190951Y-88264761D02*
X153095713Y-88312380D01*
X153095713Y-88312380D02*
X153000475Y-88312380D01*
X152238570Y-88264761D02*
X152333808Y-88312380D01*
X152333808Y-88312380D02*
X152524284Y-88312380D01*
X152524284Y-88312380D02*
X152619522Y-88264761D01*
X152619522Y-88264761D02*
X152667141Y-88217142D01*
X152667141Y-88217142D02*
X152714760Y-88121904D01*
X152714760Y-88121904D02*
X152714760Y-87836190D01*
X152714760Y-87836190D02*
X152667141Y-87740952D01*
X152667141Y-87740952D02*
X152619522Y-87693333D01*
X152619522Y-87693333D02*
X152524284Y-87645714D01*
X152524284Y-87645714D02*
X152333808Y-87645714D01*
X152333808Y-87645714D02*
X152238570Y-87693333D01*
X151809998Y-88312380D02*
X151809998Y-87312380D01*
X151381427Y-88312380D02*
X151381427Y-87788571D01*
X151381427Y-87788571D02*
X151429046Y-87693333D01*
X151429046Y-87693333D02*
X151524284Y-87645714D01*
X151524284Y-87645714D02*
X151667141Y-87645714D01*
X151667141Y-87645714D02*
X151762379Y-87693333D01*
X151762379Y-87693333D02*
X151809998Y-87740952D01*
X175514761Y-88932380D02*
X175181428Y-89932380D01*
X175181428Y-89932380D02*
X174848095Y-88932380D01*
X174133809Y-89884761D02*
X174229047Y-89932380D01*
X174229047Y-89932380D02*
X174419523Y-89932380D01*
X174419523Y-89932380D02*
X174514761Y-89884761D01*
X174514761Y-89884761D02*
X174562380Y-89789523D01*
X174562380Y-89789523D02*
X174562380Y-89408571D01*
X174562380Y-89408571D02*
X174514761Y-89313333D01*
X174514761Y-89313333D02*
X174419523Y-89265714D01*
X174419523Y-89265714D02*
X174229047Y-89265714D01*
X174229047Y-89265714D02*
X174133809Y-89313333D01*
X174133809Y-89313333D02*
X174086190Y-89408571D01*
X174086190Y-89408571D02*
X174086190Y-89503809D01*
X174086190Y-89503809D02*
X174562380Y-89599047D01*
X173657618Y-89932380D02*
X173657618Y-89265714D01*
X173657618Y-89456190D02*
X173609999Y-89360952D01*
X173609999Y-89360952D02*
X173562380Y-89313333D01*
X173562380Y-89313333D02*
X173467142Y-89265714D01*
X173467142Y-89265714D02*
X173371904Y-89265714D01*
X173086189Y-89884761D02*
X172990951Y-89932380D01*
X172990951Y-89932380D02*
X172800475Y-89932380D01*
X172800475Y-89932380D02*
X172705237Y-89884761D01*
X172705237Y-89884761D02*
X172657618Y-89789523D01*
X172657618Y-89789523D02*
X172657618Y-89741904D01*
X172657618Y-89741904D02*
X172705237Y-89646666D01*
X172705237Y-89646666D02*
X172800475Y-89599047D01*
X172800475Y-89599047D02*
X172943332Y-89599047D01*
X172943332Y-89599047D02*
X173038570Y-89551428D01*
X173038570Y-89551428D02*
X173086189Y-89456190D01*
X173086189Y-89456190D02*
X173086189Y-89408571D01*
X173086189Y-89408571D02*
X173038570Y-89313333D01*
X173038570Y-89313333D02*
X172943332Y-89265714D01*
X172943332Y-89265714D02*
X172800475Y-89265714D01*
X172800475Y-89265714D02*
X172705237Y-89313333D01*
X172229046Y-89932380D02*
X172229046Y-89265714D01*
X172229046Y-88932380D02*
X172276665Y-88980000D01*
X172276665Y-88980000D02*
X172229046Y-89027619D01*
X172229046Y-89027619D02*
X172181427Y-88980000D01*
X172181427Y-88980000D02*
X172229046Y-88932380D01*
X172229046Y-88932380D02*
X172229046Y-89027619D01*
X171609999Y-89932380D02*
X171705237Y-89884761D01*
X171705237Y-89884761D02*
X171752856Y-89837142D01*
X171752856Y-89837142D02*
X171800475Y-89741904D01*
X171800475Y-89741904D02*
X171800475Y-89456190D01*
X171800475Y-89456190D02*
X171752856Y-89360952D01*
X171752856Y-89360952D02*
X171705237Y-89313333D01*
X171705237Y-89313333D02*
X171609999Y-89265714D01*
X171609999Y-89265714D02*
X171467142Y-89265714D01*
X171467142Y-89265714D02*
X171371904Y-89313333D01*
X171371904Y-89313333D02*
X171324285Y-89360952D01*
X171324285Y-89360952D02*
X171276666Y-89456190D01*
X171276666Y-89456190D02*
X171276666Y-89741904D01*
X171276666Y-89741904D02*
X171324285Y-89837142D01*
X171324285Y-89837142D02*
X171371904Y-89884761D01*
X171371904Y-89884761D02*
X171467142Y-89932380D01*
X171467142Y-89932380D02*
X171609999Y-89932380D01*
X170848094Y-89265714D02*
X170848094Y-89932380D01*
X170848094Y-89360952D02*
X170800475Y-89313333D01*
X170800475Y-89313333D02*
X170705237Y-89265714D01*
X170705237Y-89265714D02*
X170562380Y-89265714D01*
X170562380Y-89265714D02*
X170467142Y-89313333D01*
X170467142Y-89313333D02*
X170419523Y-89408571D01*
X170419523Y-89408571D02*
X170419523Y-89932380D01*
X168819523Y-89932380D02*
X169390951Y-89932380D01*
X169105237Y-89932380D02*
X169105237Y-88932380D01*
X169105237Y-88932380D02*
X169200475Y-89075238D01*
X169200475Y-89075238D02*
X169295713Y-89170476D01*
X169295713Y-89170476D02*
X169390951Y-89218095D01*
X168390951Y-89837142D02*
X168343332Y-89884761D01*
X168343332Y-89884761D02*
X168390951Y-89932380D01*
X168390951Y-89932380D02*
X168438570Y-89884761D01*
X168438570Y-89884761D02*
X168390951Y-89837142D01*
X168390951Y-89837142D02*
X168390951Y-89932380D01*
X167724285Y-88932380D02*
X167629047Y-88932380D01*
X167629047Y-88932380D02*
X167533809Y-88980000D01*
X167533809Y-88980000D02*
X167486190Y-89027619D01*
X167486190Y-89027619D02*
X167438571Y-89122857D01*
X167438571Y-89122857D02*
X167390952Y-89313333D01*
X167390952Y-89313333D02*
X167390952Y-89551428D01*
X167390952Y-89551428D02*
X167438571Y-89741904D01*
X167438571Y-89741904D02*
X167486190Y-89837142D01*
X167486190Y-89837142D02*
X167533809Y-89884761D01*
X167533809Y-89884761D02*
X167629047Y-89932380D01*
X167629047Y-89932380D02*
X167724285Y-89932380D01*
X167724285Y-89932380D02*
X167819523Y-89884761D01*
X167819523Y-89884761D02*
X167867142Y-89837142D01*
X167867142Y-89837142D02*
X167914761Y-89741904D01*
X167914761Y-89741904D02*
X167962380Y-89551428D01*
X167962380Y-89551428D02*
X167962380Y-89313333D01*
X167962380Y-89313333D02*
X167914761Y-89122857D01*
X167914761Y-89122857D02*
X167867142Y-89027619D01*
X167867142Y-89027619D02*
X167819523Y-88980000D01*
X167819523Y-88980000D02*
X167724285Y-88932380D01*
X174848095Y-91552380D02*
X175419523Y-91552380D01*
X175133809Y-91552380D02*
X175133809Y-90552380D01*
X175133809Y-90552380D02*
X175229047Y-90695238D01*
X175229047Y-90695238D02*
X175324285Y-90790476D01*
X175324285Y-90790476D02*
X175419523Y-90838095D01*
X173990952Y-90885714D02*
X173990952Y-91552380D01*
X174229047Y-90504761D02*
X174467142Y-91219047D01*
X174467142Y-91219047D02*
X173848095Y-91219047D01*
X172752857Y-90504761D02*
X173609999Y-91790476D01*
X171990952Y-90552380D02*
X172181428Y-90552380D01*
X172181428Y-90552380D02*
X172276666Y-90600000D01*
X172276666Y-90600000D02*
X172324285Y-90647619D01*
X172324285Y-90647619D02*
X172419523Y-90790476D01*
X172419523Y-90790476D02*
X172467142Y-90980952D01*
X172467142Y-90980952D02*
X172467142Y-91361904D01*
X172467142Y-91361904D02*
X172419523Y-91457142D01*
X172419523Y-91457142D02*
X172371904Y-91504761D01*
X172371904Y-91504761D02*
X172276666Y-91552380D01*
X172276666Y-91552380D02*
X172086190Y-91552380D01*
X172086190Y-91552380D02*
X171990952Y-91504761D01*
X171990952Y-91504761D02*
X171943333Y-91457142D01*
X171943333Y-91457142D02*
X171895714Y-91361904D01*
X171895714Y-91361904D02*
X171895714Y-91123809D01*
X171895714Y-91123809D02*
X171943333Y-91028571D01*
X171943333Y-91028571D02*
X171990952Y-90980952D01*
X171990952Y-90980952D02*
X172086190Y-90933333D01*
X172086190Y-90933333D02*
X172276666Y-90933333D01*
X172276666Y-90933333D02*
X172371904Y-90980952D01*
X172371904Y-90980952D02*
X172419523Y-91028571D01*
X172419523Y-91028571D02*
X172467142Y-91123809D01*
X170752857Y-90504761D02*
X171609999Y-91790476D01*
X170467142Y-90647619D02*
X170419523Y-90600000D01*
X170419523Y-90600000D02*
X170324285Y-90552380D01*
X170324285Y-90552380D02*
X170086190Y-90552380D01*
X170086190Y-90552380D02*
X169990952Y-90600000D01*
X169990952Y-90600000D02*
X169943333Y-90647619D01*
X169943333Y-90647619D02*
X169895714Y-90742857D01*
X169895714Y-90742857D02*
X169895714Y-90838095D01*
X169895714Y-90838095D02*
X169943333Y-90980952D01*
X169943333Y-90980952D02*
X170514761Y-91552380D01*
X170514761Y-91552380D02*
X169895714Y-91552380D01*
X169276666Y-90552380D02*
X169181428Y-90552380D01*
X169181428Y-90552380D02*
X169086190Y-90600000D01*
X169086190Y-90600000D02*
X169038571Y-90647619D01*
X169038571Y-90647619D02*
X168990952Y-90742857D01*
X168990952Y-90742857D02*
X168943333Y-90933333D01*
X168943333Y-90933333D02*
X168943333Y-91171428D01*
X168943333Y-91171428D02*
X168990952Y-91361904D01*
X168990952Y-91361904D02*
X169038571Y-91457142D01*
X169038571Y-91457142D02*
X169086190Y-91504761D01*
X169086190Y-91504761D02*
X169181428Y-91552380D01*
X169181428Y-91552380D02*
X169276666Y-91552380D01*
X169276666Y-91552380D02*
X169371904Y-91504761D01*
X169371904Y-91504761D02*
X169419523Y-91457142D01*
X169419523Y-91457142D02*
X169467142Y-91361904D01*
X169467142Y-91361904D02*
X169514761Y-91171428D01*
X169514761Y-91171428D02*
X169514761Y-90933333D01*
X169514761Y-90933333D02*
X169467142Y-90742857D01*
X169467142Y-90742857D02*
X169419523Y-90647619D01*
X169419523Y-90647619D02*
X169371904Y-90600000D01*
X169371904Y-90600000D02*
X169276666Y-90552380D01*
X168562380Y-90647619D02*
X168514761Y-90600000D01*
X168514761Y-90600000D02*
X168419523Y-90552380D01*
X168419523Y-90552380D02*
X168181428Y-90552380D01*
X168181428Y-90552380D02*
X168086190Y-90600000D01*
X168086190Y-90600000D02*
X168038571Y-90647619D01*
X168038571Y-90647619D02*
X167990952Y-90742857D01*
X167990952Y-90742857D02*
X167990952Y-90838095D01*
X167990952Y-90838095D02*
X168038571Y-90980952D01*
X168038571Y-90980952D02*
X168609999Y-91552380D01*
X168609999Y-91552380D02*
X167990952Y-91552380D01*
X167657618Y-90552380D02*
X167038571Y-90552380D01*
X167038571Y-90552380D02*
X167371904Y-90933333D01*
X167371904Y-90933333D02*
X167229047Y-90933333D01*
X167229047Y-90933333D02*
X167133809Y-90980952D01*
X167133809Y-90980952D02*
X167086190Y-91028571D01*
X167086190Y-91028571D02*
X167038571Y-91123809D01*
X167038571Y-91123809D02*
X167038571Y-91361904D01*
X167038571Y-91361904D02*
X167086190Y-91457142D01*
X167086190Y-91457142D02*
X167133809Y-91504761D01*
X167133809Y-91504761D02*
X167229047Y-91552380D01*
X167229047Y-91552380D02*
X167514761Y-91552380D01*
X167514761Y-91552380D02*
X167609999Y-91504761D01*
X167609999Y-91504761D02*
X167657618Y-91457142D01*
D11*
X222137380Y-93277142D02*
X221661190Y-92943809D01*
X222137380Y-92705714D02*
X221137380Y-92705714D01*
X221137380Y-92705714D02*
X221137380Y-93086666D01*
X221137380Y-93086666D02*
X221185000Y-93181904D01*
X221185000Y-93181904D02*
X221232619Y-93229523D01*
X221232619Y-93229523D02*
X221327857Y-93277142D01*
X221327857Y-93277142D02*
X221470714Y-93277142D01*
X221470714Y-93277142D02*
X221565952Y-93229523D01*
X221565952Y-93229523D02*
X221613571Y-93181904D01*
X221613571Y-93181904D02*
X221661190Y-93086666D01*
X221661190Y-93086666D02*
X221661190Y-92705714D01*
X221470714Y-94134285D02*
X222137380Y-94134285D01*
X221089761Y-93896190D02*
X221804047Y-93658095D01*
X221804047Y-93658095D02*
X221804047Y-94277142D01*
X221137380Y-94562857D02*
X221137380Y-95181904D01*
X221137380Y-95181904D02*
X221518333Y-94848571D01*
X221518333Y-94848571D02*
X221518333Y-94991428D01*
X221518333Y-94991428D02*
X221565952Y-95086666D01*
X221565952Y-95086666D02*
X221613571Y-95134285D01*
X221613571Y-95134285D02*
X221708809Y-95181904D01*
X221708809Y-95181904D02*
X221946904Y-95181904D01*
X221946904Y-95181904D02*
X222042142Y-95134285D01*
X222042142Y-95134285D02*
X222089761Y-95086666D01*
X222089761Y-95086666D02*
X222137380Y-94991428D01*
X222137380Y-94991428D02*
X222137380Y-94705714D01*
X222137380Y-94705714D02*
X222089761Y-94610476D01*
X222089761Y-94610476D02*
X222042142Y-94562857D01*
X223897380Y-93297142D02*
X223421190Y-92963809D01*
X223897380Y-92725714D02*
X222897380Y-92725714D01*
X222897380Y-92725714D02*
X222897380Y-93106666D01*
X222897380Y-93106666D02*
X222945000Y-93201904D01*
X222945000Y-93201904D02*
X222992619Y-93249523D01*
X222992619Y-93249523D02*
X223087857Y-93297142D01*
X223087857Y-93297142D02*
X223230714Y-93297142D01*
X223230714Y-93297142D02*
X223325952Y-93249523D01*
X223325952Y-93249523D02*
X223373571Y-93201904D01*
X223373571Y-93201904D02*
X223421190Y-93106666D01*
X223421190Y-93106666D02*
X223421190Y-92725714D01*
X223230714Y-94154285D02*
X223897380Y-94154285D01*
X222849761Y-93916190D02*
X223564047Y-93678095D01*
X223564047Y-93678095D02*
X223564047Y-94297142D01*
X222992619Y-94630476D02*
X222945000Y-94678095D01*
X222945000Y-94678095D02*
X222897380Y-94773333D01*
X222897380Y-94773333D02*
X222897380Y-95011428D01*
X222897380Y-95011428D02*
X222945000Y-95106666D01*
X222945000Y-95106666D02*
X222992619Y-95154285D01*
X222992619Y-95154285D02*
X223087857Y-95201904D01*
X223087857Y-95201904D02*
X223183095Y-95201904D01*
X223183095Y-95201904D02*
X223325952Y-95154285D01*
X223325952Y-95154285D02*
X223897380Y-94582857D01*
X223897380Y-94582857D02*
X223897380Y-95201904D01*
X223202857Y-98357380D02*
X223536190Y-97881190D01*
X223774285Y-98357380D02*
X223774285Y-97357380D01*
X223774285Y-97357380D02*
X223393333Y-97357380D01*
X223393333Y-97357380D02*
X223298095Y-97405000D01*
X223298095Y-97405000D02*
X223250476Y-97452619D01*
X223250476Y-97452619D02*
X223202857Y-97547857D01*
X223202857Y-97547857D02*
X223202857Y-97690714D01*
X223202857Y-97690714D02*
X223250476Y-97785952D01*
X223250476Y-97785952D02*
X223298095Y-97833571D01*
X223298095Y-97833571D02*
X223393333Y-97881190D01*
X223393333Y-97881190D02*
X223774285Y-97881190D01*
X222298095Y-97357380D02*
X222774285Y-97357380D01*
X222774285Y-97357380D02*
X222821904Y-97833571D01*
X222821904Y-97833571D02*
X222774285Y-97785952D01*
X222774285Y-97785952D02*
X222679047Y-97738333D01*
X222679047Y-97738333D02*
X222440952Y-97738333D01*
X222440952Y-97738333D02*
X222345714Y-97785952D01*
X222345714Y-97785952D02*
X222298095Y-97833571D01*
X222298095Y-97833571D02*
X222250476Y-97928809D01*
X222250476Y-97928809D02*
X222250476Y-98166904D01*
X222250476Y-98166904D02*
X222298095Y-98262142D01*
X222298095Y-98262142D02*
X222345714Y-98309761D01*
X222345714Y-98309761D02*
X222440952Y-98357380D01*
X222440952Y-98357380D02*
X222679047Y-98357380D01*
X222679047Y-98357380D02*
X222774285Y-98309761D01*
X222774285Y-98309761D02*
X222821904Y-98262142D01*
X221917142Y-97357380D02*
X221298095Y-97357380D01*
X221298095Y-97357380D02*
X221631428Y-97738333D01*
X221631428Y-97738333D02*
X221488571Y-97738333D01*
X221488571Y-97738333D02*
X221393333Y-97785952D01*
X221393333Y-97785952D02*
X221345714Y-97833571D01*
X221345714Y-97833571D02*
X221298095Y-97928809D01*
X221298095Y-97928809D02*
X221298095Y-98166904D01*
X221298095Y-98166904D02*
X221345714Y-98262142D01*
X221345714Y-98262142D02*
X221393333Y-98309761D01*
X221393333Y-98309761D02*
X221488571Y-98357380D01*
X221488571Y-98357380D02*
X221774285Y-98357380D01*
X221774285Y-98357380D02*
X221869523Y-98309761D01*
X221869523Y-98309761D02*
X221917142Y-98262142D01*
X223298094Y-96877380D02*
X223298094Y-95877380D01*
X223298094Y-95877380D02*
X223059999Y-95877380D01*
X223059999Y-95877380D02*
X222917142Y-95925000D01*
X222917142Y-95925000D02*
X222821904Y-96020238D01*
X222821904Y-96020238D02*
X222774285Y-96115476D01*
X222774285Y-96115476D02*
X222726666Y-96305952D01*
X222726666Y-96305952D02*
X222726666Y-96448809D01*
X222726666Y-96448809D02*
X222774285Y-96639285D01*
X222774285Y-96639285D02*
X222821904Y-96734523D01*
X222821904Y-96734523D02*
X222917142Y-96829761D01*
X222917142Y-96829761D02*
X223059999Y-96877380D01*
X223059999Y-96877380D02*
X223298094Y-96877380D01*
X221821904Y-95877380D02*
X222298094Y-95877380D01*
X222298094Y-95877380D02*
X222345713Y-96353571D01*
X222345713Y-96353571D02*
X222298094Y-96305952D01*
X222298094Y-96305952D02*
X222202856Y-96258333D01*
X222202856Y-96258333D02*
X221964761Y-96258333D01*
X221964761Y-96258333D02*
X221869523Y-96305952D01*
X221869523Y-96305952D02*
X221821904Y-96353571D01*
X221821904Y-96353571D02*
X221774285Y-96448809D01*
X221774285Y-96448809D02*
X221774285Y-96686904D01*
X221774285Y-96686904D02*
X221821904Y-96782142D01*
X221821904Y-96782142D02*
X221869523Y-96829761D01*
X221869523Y-96829761D02*
X221964761Y-96877380D01*
X221964761Y-96877380D02*
X222202856Y-96877380D01*
X222202856Y-96877380D02*
X222298094Y-96829761D01*
X222298094Y-96829761D02*
X222345713Y-96782142D01*
X223202857Y-90147380D02*
X223536190Y-89671190D01*
X223774285Y-90147380D02*
X223774285Y-89147380D01*
X223774285Y-89147380D02*
X223393333Y-89147380D01*
X223393333Y-89147380D02*
X223298095Y-89195000D01*
X223298095Y-89195000D02*
X223250476Y-89242619D01*
X223250476Y-89242619D02*
X223202857Y-89337857D01*
X223202857Y-89337857D02*
X223202857Y-89480714D01*
X223202857Y-89480714D02*
X223250476Y-89575952D01*
X223250476Y-89575952D02*
X223298095Y-89623571D01*
X223298095Y-89623571D02*
X223393333Y-89671190D01*
X223393333Y-89671190D02*
X223774285Y-89671190D01*
X222869523Y-89147380D02*
X222250476Y-89147380D01*
X222250476Y-89147380D02*
X222583809Y-89528333D01*
X222583809Y-89528333D02*
X222440952Y-89528333D01*
X222440952Y-89528333D02*
X222345714Y-89575952D01*
X222345714Y-89575952D02*
X222298095Y-89623571D01*
X222298095Y-89623571D02*
X222250476Y-89718809D01*
X222250476Y-89718809D02*
X222250476Y-89956904D01*
X222250476Y-89956904D02*
X222298095Y-90052142D01*
X222298095Y-90052142D02*
X222345714Y-90099761D01*
X222345714Y-90099761D02*
X222440952Y-90147380D01*
X222440952Y-90147380D02*
X222726666Y-90147380D01*
X222726666Y-90147380D02*
X222821904Y-90099761D01*
X222821904Y-90099761D02*
X222869523Y-90052142D01*
X221393333Y-89147380D02*
X221583809Y-89147380D01*
X221583809Y-89147380D02*
X221679047Y-89195000D01*
X221679047Y-89195000D02*
X221726666Y-89242619D01*
X221726666Y-89242619D02*
X221821904Y-89385476D01*
X221821904Y-89385476D02*
X221869523Y-89575952D01*
X221869523Y-89575952D02*
X221869523Y-89956904D01*
X221869523Y-89956904D02*
X221821904Y-90052142D01*
X221821904Y-90052142D02*
X221774285Y-90099761D01*
X221774285Y-90099761D02*
X221679047Y-90147380D01*
X221679047Y-90147380D02*
X221488571Y-90147380D01*
X221488571Y-90147380D02*
X221393333Y-90099761D01*
X221393333Y-90099761D02*
X221345714Y-90052142D01*
X221345714Y-90052142D02*
X221298095Y-89956904D01*
X221298095Y-89956904D02*
X221298095Y-89718809D01*
X221298095Y-89718809D02*
X221345714Y-89623571D01*
X221345714Y-89623571D02*
X221393333Y-89575952D01*
X221393333Y-89575952D02*
X221488571Y-89528333D01*
X221488571Y-89528333D02*
X221679047Y-89528333D01*
X221679047Y-89528333D02*
X221774285Y-89575952D01*
X221774285Y-89575952D02*
X221821904Y-89623571D01*
X221821904Y-89623571D02*
X221869523Y-89718809D01*
X223202857Y-91867380D02*
X223536190Y-91391190D01*
X223774285Y-91867380D02*
X223774285Y-90867380D01*
X223774285Y-90867380D02*
X223393333Y-90867380D01*
X223393333Y-90867380D02*
X223298095Y-90915000D01*
X223298095Y-90915000D02*
X223250476Y-90962619D01*
X223250476Y-90962619D02*
X223202857Y-91057857D01*
X223202857Y-91057857D02*
X223202857Y-91200714D01*
X223202857Y-91200714D02*
X223250476Y-91295952D01*
X223250476Y-91295952D02*
X223298095Y-91343571D01*
X223298095Y-91343571D02*
X223393333Y-91391190D01*
X223393333Y-91391190D02*
X223774285Y-91391190D01*
X222869523Y-90867380D02*
X222250476Y-90867380D01*
X222250476Y-90867380D02*
X222583809Y-91248333D01*
X222583809Y-91248333D02*
X222440952Y-91248333D01*
X222440952Y-91248333D02*
X222345714Y-91295952D01*
X222345714Y-91295952D02*
X222298095Y-91343571D01*
X222298095Y-91343571D02*
X222250476Y-91438809D01*
X222250476Y-91438809D02*
X222250476Y-91676904D01*
X222250476Y-91676904D02*
X222298095Y-91772142D01*
X222298095Y-91772142D02*
X222345714Y-91819761D01*
X222345714Y-91819761D02*
X222440952Y-91867380D01*
X222440952Y-91867380D02*
X222726666Y-91867380D01*
X222726666Y-91867380D02*
X222821904Y-91819761D01*
X222821904Y-91819761D02*
X222869523Y-91772142D01*
X221679047Y-91295952D02*
X221774285Y-91248333D01*
X221774285Y-91248333D02*
X221821904Y-91200714D01*
X221821904Y-91200714D02*
X221869523Y-91105476D01*
X221869523Y-91105476D02*
X221869523Y-91057857D01*
X221869523Y-91057857D02*
X221821904Y-90962619D01*
X221821904Y-90962619D02*
X221774285Y-90915000D01*
X221774285Y-90915000D02*
X221679047Y-90867380D01*
X221679047Y-90867380D02*
X221488571Y-90867380D01*
X221488571Y-90867380D02*
X221393333Y-90915000D01*
X221393333Y-90915000D02*
X221345714Y-90962619D01*
X221345714Y-90962619D02*
X221298095Y-91057857D01*
X221298095Y-91057857D02*
X221298095Y-91105476D01*
X221298095Y-91105476D02*
X221345714Y-91200714D01*
X221345714Y-91200714D02*
X221393333Y-91248333D01*
X221393333Y-91248333D02*
X221488571Y-91295952D01*
X221488571Y-91295952D02*
X221679047Y-91295952D01*
X221679047Y-91295952D02*
X221774285Y-91343571D01*
X221774285Y-91343571D02*
X221821904Y-91391190D01*
X221821904Y-91391190D02*
X221869523Y-91486428D01*
X221869523Y-91486428D02*
X221869523Y-91676904D01*
X221869523Y-91676904D02*
X221821904Y-91772142D01*
X221821904Y-91772142D02*
X221774285Y-91819761D01*
X221774285Y-91819761D02*
X221679047Y-91867380D01*
X221679047Y-91867380D02*
X221488571Y-91867380D01*
X221488571Y-91867380D02*
X221393333Y-91819761D01*
X221393333Y-91819761D02*
X221345714Y-91772142D01*
X221345714Y-91772142D02*
X221298095Y-91676904D01*
X221298095Y-91676904D02*
X221298095Y-91486428D01*
X221298095Y-91486428D02*
X221345714Y-91391190D01*
X221345714Y-91391190D02*
X221393333Y-91343571D01*
X221393333Y-91343571D02*
X221488571Y-91295952D01*
X215242857Y-44017380D02*
X215576190Y-43541190D01*
X215814285Y-44017380D02*
X215814285Y-43017380D01*
X215814285Y-43017380D02*
X215433333Y-43017380D01*
X215433333Y-43017380D02*
X215338095Y-43065000D01*
X215338095Y-43065000D02*
X215290476Y-43112619D01*
X215290476Y-43112619D02*
X215242857Y-43207857D01*
X215242857Y-43207857D02*
X215242857Y-43350714D01*
X215242857Y-43350714D02*
X215290476Y-43445952D01*
X215290476Y-43445952D02*
X215338095Y-43493571D01*
X215338095Y-43493571D02*
X215433333Y-43541190D01*
X215433333Y-43541190D02*
X215814285Y-43541190D01*
X214861904Y-43112619D02*
X214814285Y-43065000D01*
X214814285Y-43065000D02*
X214719047Y-43017380D01*
X214719047Y-43017380D02*
X214480952Y-43017380D01*
X214480952Y-43017380D02*
X214385714Y-43065000D01*
X214385714Y-43065000D02*
X214338095Y-43112619D01*
X214338095Y-43112619D02*
X214290476Y-43207857D01*
X214290476Y-43207857D02*
X214290476Y-43303095D01*
X214290476Y-43303095D02*
X214338095Y-43445952D01*
X214338095Y-43445952D02*
X214909523Y-44017380D01*
X214909523Y-44017380D02*
X214290476Y-44017380D01*
X213957142Y-43017380D02*
X213290476Y-43017380D01*
X213290476Y-43017380D02*
X213719047Y-44017380D01*
X207142857Y-44017380D02*
X207476190Y-43541190D01*
X207714285Y-44017380D02*
X207714285Y-43017380D01*
X207714285Y-43017380D02*
X207333333Y-43017380D01*
X207333333Y-43017380D02*
X207238095Y-43065000D01*
X207238095Y-43065000D02*
X207190476Y-43112619D01*
X207190476Y-43112619D02*
X207142857Y-43207857D01*
X207142857Y-43207857D02*
X207142857Y-43350714D01*
X207142857Y-43350714D02*
X207190476Y-43445952D01*
X207190476Y-43445952D02*
X207238095Y-43493571D01*
X207238095Y-43493571D02*
X207333333Y-43541190D01*
X207333333Y-43541190D02*
X207714285Y-43541190D01*
X206761904Y-43112619D02*
X206714285Y-43065000D01*
X206714285Y-43065000D02*
X206619047Y-43017380D01*
X206619047Y-43017380D02*
X206380952Y-43017380D01*
X206380952Y-43017380D02*
X206285714Y-43065000D01*
X206285714Y-43065000D02*
X206238095Y-43112619D01*
X206238095Y-43112619D02*
X206190476Y-43207857D01*
X206190476Y-43207857D02*
X206190476Y-43303095D01*
X206190476Y-43303095D02*
X206238095Y-43445952D01*
X206238095Y-43445952D02*
X206809523Y-44017380D01*
X206809523Y-44017380D02*
X206190476Y-44017380D01*
X205619047Y-43445952D02*
X205714285Y-43398333D01*
X205714285Y-43398333D02*
X205761904Y-43350714D01*
X205761904Y-43350714D02*
X205809523Y-43255476D01*
X205809523Y-43255476D02*
X205809523Y-43207857D01*
X205809523Y-43207857D02*
X205761904Y-43112619D01*
X205761904Y-43112619D02*
X205714285Y-43065000D01*
X205714285Y-43065000D02*
X205619047Y-43017380D01*
X205619047Y-43017380D02*
X205428571Y-43017380D01*
X205428571Y-43017380D02*
X205333333Y-43065000D01*
X205333333Y-43065000D02*
X205285714Y-43112619D01*
X205285714Y-43112619D02*
X205238095Y-43207857D01*
X205238095Y-43207857D02*
X205238095Y-43255476D01*
X205238095Y-43255476D02*
X205285714Y-43350714D01*
X205285714Y-43350714D02*
X205333333Y-43398333D01*
X205333333Y-43398333D02*
X205428571Y-43445952D01*
X205428571Y-43445952D02*
X205619047Y-43445952D01*
X205619047Y-43445952D02*
X205714285Y-43493571D01*
X205714285Y-43493571D02*
X205761904Y-43541190D01*
X205761904Y-43541190D02*
X205809523Y-43636428D01*
X205809523Y-43636428D02*
X205809523Y-43826904D01*
X205809523Y-43826904D02*
X205761904Y-43922142D01*
X205761904Y-43922142D02*
X205714285Y-43969761D01*
X205714285Y-43969761D02*
X205619047Y-44017380D01*
X205619047Y-44017380D02*
X205428571Y-44017380D01*
X205428571Y-44017380D02*
X205333333Y-43969761D01*
X205333333Y-43969761D02*
X205285714Y-43922142D01*
X205285714Y-43922142D02*
X205238095Y-43826904D01*
X205238095Y-43826904D02*
X205238095Y-43636428D01*
X205238095Y-43636428D02*
X205285714Y-43541190D01*
X205285714Y-43541190D02*
X205333333Y-43493571D01*
X205333333Y-43493571D02*
X205428571Y-43445952D01*
X196147002Y-68887865D02*
X196214346Y-68887865D01*
X196214346Y-68887865D02*
X196349033Y-68820521D01*
X196349033Y-68820521D02*
X196416376Y-68753178D01*
X196416376Y-68753178D02*
X196483720Y-68618491D01*
X196483720Y-68618491D02*
X196483720Y-68483804D01*
X196483720Y-68483804D02*
X196450048Y-68382789D01*
X196450048Y-68382789D02*
X196349033Y-68214430D01*
X196349033Y-68214430D02*
X196248017Y-68113415D01*
X196248017Y-68113415D02*
X196079659Y-68012399D01*
X196079659Y-68012399D02*
X195978643Y-67978728D01*
X195978643Y-67978728D02*
X195843956Y-67978728D01*
X195843956Y-67978728D02*
X195709269Y-68046071D01*
X195709269Y-68046071D02*
X195641926Y-68113415D01*
X195641926Y-68113415D02*
X195574582Y-68248102D01*
X195574582Y-68248102D02*
X195574582Y-68315445D01*
X195136850Y-69089895D02*
X195608254Y-69561300D01*
X195035834Y-68652163D02*
X195709269Y-68988880D01*
X195709269Y-68988880D02*
X195271537Y-69426613D01*
X194631773Y-69258254D02*
X194564430Y-69258254D01*
X194564430Y-69258254D02*
X194463415Y-69291926D01*
X194463415Y-69291926D02*
X194295056Y-69460285D01*
X194295056Y-69460285D02*
X194261384Y-69561300D01*
X194261384Y-69561300D02*
X194261384Y-69628643D01*
X194261384Y-69628643D02*
X194295056Y-69729659D01*
X194295056Y-69729659D02*
X194362399Y-69797002D01*
X194362399Y-69797002D02*
X194497086Y-69864346D01*
X194497086Y-69864346D02*
X195305208Y-69864346D01*
X195305208Y-69864346D02*
X194867476Y-70302078D01*
X187442857Y-44017380D02*
X187776190Y-43541190D01*
X188014285Y-44017380D02*
X188014285Y-43017380D01*
X188014285Y-43017380D02*
X187633333Y-43017380D01*
X187633333Y-43017380D02*
X187538095Y-43065000D01*
X187538095Y-43065000D02*
X187490476Y-43112619D01*
X187490476Y-43112619D02*
X187442857Y-43207857D01*
X187442857Y-43207857D02*
X187442857Y-43350714D01*
X187442857Y-43350714D02*
X187490476Y-43445952D01*
X187490476Y-43445952D02*
X187538095Y-43493571D01*
X187538095Y-43493571D02*
X187633333Y-43541190D01*
X187633333Y-43541190D02*
X188014285Y-43541190D01*
X187109523Y-43017380D02*
X186490476Y-43017380D01*
X186490476Y-43017380D02*
X186823809Y-43398333D01*
X186823809Y-43398333D02*
X186680952Y-43398333D01*
X186680952Y-43398333D02*
X186585714Y-43445952D01*
X186585714Y-43445952D02*
X186538095Y-43493571D01*
X186538095Y-43493571D02*
X186490476Y-43588809D01*
X186490476Y-43588809D02*
X186490476Y-43826904D01*
X186490476Y-43826904D02*
X186538095Y-43922142D01*
X186538095Y-43922142D02*
X186585714Y-43969761D01*
X186585714Y-43969761D02*
X186680952Y-44017380D01*
X186680952Y-44017380D02*
X186966666Y-44017380D01*
X186966666Y-44017380D02*
X187061904Y-43969761D01*
X187061904Y-43969761D02*
X187109523Y-43922142D01*
X185871428Y-43017380D02*
X185776190Y-43017380D01*
X185776190Y-43017380D02*
X185680952Y-43065000D01*
X185680952Y-43065000D02*
X185633333Y-43112619D01*
X185633333Y-43112619D02*
X185585714Y-43207857D01*
X185585714Y-43207857D02*
X185538095Y-43398333D01*
X185538095Y-43398333D02*
X185538095Y-43636428D01*
X185538095Y-43636428D02*
X185585714Y-43826904D01*
X185585714Y-43826904D02*
X185633333Y-43922142D01*
X185633333Y-43922142D02*
X185680952Y-43969761D01*
X185680952Y-43969761D02*
X185776190Y-44017380D01*
X185776190Y-44017380D02*
X185871428Y-44017380D01*
X185871428Y-44017380D02*
X185966666Y-43969761D01*
X185966666Y-43969761D02*
X186014285Y-43922142D01*
X186014285Y-43922142D02*
X186061904Y-43826904D01*
X186061904Y-43826904D02*
X186109523Y-43636428D01*
X186109523Y-43636428D02*
X186109523Y-43398333D01*
X186109523Y-43398333D02*
X186061904Y-43207857D01*
X186061904Y-43207857D02*
X186014285Y-43112619D01*
X186014285Y-43112619D02*
X185966666Y-43065000D01*
X185966666Y-43065000D02*
X185871428Y-43017380D01*
X246342857Y-44017380D02*
X246676190Y-43541190D01*
X246914285Y-44017380D02*
X246914285Y-43017380D01*
X246914285Y-43017380D02*
X246533333Y-43017380D01*
X246533333Y-43017380D02*
X246438095Y-43065000D01*
X246438095Y-43065000D02*
X246390476Y-43112619D01*
X246390476Y-43112619D02*
X246342857Y-43207857D01*
X246342857Y-43207857D02*
X246342857Y-43350714D01*
X246342857Y-43350714D02*
X246390476Y-43445952D01*
X246390476Y-43445952D02*
X246438095Y-43493571D01*
X246438095Y-43493571D02*
X246533333Y-43541190D01*
X246533333Y-43541190D02*
X246914285Y-43541190D01*
X245961904Y-43112619D02*
X245914285Y-43065000D01*
X245914285Y-43065000D02*
X245819047Y-43017380D01*
X245819047Y-43017380D02*
X245580952Y-43017380D01*
X245580952Y-43017380D02*
X245485714Y-43065000D01*
X245485714Y-43065000D02*
X245438095Y-43112619D01*
X245438095Y-43112619D02*
X245390476Y-43207857D01*
X245390476Y-43207857D02*
X245390476Y-43303095D01*
X245390476Y-43303095D02*
X245438095Y-43445952D01*
X245438095Y-43445952D02*
X246009523Y-44017380D01*
X246009523Y-44017380D02*
X245390476Y-44017380D01*
X244533333Y-43350714D02*
X244533333Y-44017380D01*
X244771428Y-42969761D02*
X245009523Y-43684047D01*
X245009523Y-43684047D02*
X244390476Y-43684047D01*
X192647002Y-74544020D02*
X192714346Y-74544020D01*
X192714346Y-74544020D02*
X192849033Y-74476676D01*
X192849033Y-74476676D02*
X192916376Y-74409333D01*
X192916376Y-74409333D02*
X192983720Y-74274646D01*
X192983720Y-74274646D02*
X192983720Y-74139959D01*
X192983720Y-74139959D02*
X192950048Y-74038944D01*
X192950048Y-74038944D02*
X192849033Y-73870585D01*
X192849033Y-73870585D02*
X192748017Y-73769570D01*
X192748017Y-73769570D02*
X192579659Y-73668554D01*
X192579659Y-73668554D02*
X192478643Y-73634883D01*
X192478643Y-73634883D02*
X192343956Y-73634883D01*
X192343956Y-73634883D02*
X192209269Y-73702226D01*
X192209269Y-73702226D02*
X192141926Y-73769570D01*
X192141926Y-73769570D02*
X192074582Y-73904257D01*
X192074582Y-73904257D02*
X192074582Y-73971600D01*
X191636850Y-74746050D02*
X192108254Y-75217455D01*
X191535834Y-74308318D02*
X192209269Y-74645035D01*
X192209269Y-74645035D02*
X191771537Y-75082768D01*
X190963415Y-75419485D02*
X191434819Y-75890890D01*
X190862399Y-74981753D02*
X191535834Y-75318470D01*
X191535834Y-75318470D02*
X191098102Y-75756203D01*
X195841857Y-43928380D02*
X196175190Y-43452190D01*
X196413285Y-43928380D02*
X196413285Y-42928380D01*
X196413285Y-42928380D02*
X196032333Y-42928380D01*
X196032333Y-42928380D02*
X195937095Y-42976000D01*
X195937095Y-42976000D02*
X195889476Y-43023619D01*
X195889476Y-43023619D02*
X195841857Y-43118857D01*
X195841857Y-43118857D02*
X195841857Y-43261714D01*
X195841857Y-43261714D02*
X195889476Y-43356952D01*
X195889476Y-43356952D02*
X195937095Y-43404571D01*
X195937095Y-43404571D02*
X196032333Y-43452190D01*
X196032333Y-43452190D02*
X196413285Y-43452190D01*
X195460904Y-43023619D02*
X195413285Y-42976000D01*
X195413285Y-42976000D02*
X195318047Y-42928380D01*
X195318047Y-42928380D02*
X195079952Y-42928380D01*
X195079952Y-42928380D02*
X194984714Y-42976000D01*
X194984714Y-42976000D02*
X194937095Y-43023619D01*
X194937095Y-43023619D02*
X194889476Y-43118857D01*
X194889476Y-43118857D02*
X194889476Y-43214095D01*
X194889476Y-43214095D02*
X194937095Y-43356952D01*
X194937095Y-43356952D02*
X195508523Y-43928380D01*
X195508523Y-43928380D02*
X194889476Y-43928380D01*
X194413285Y-43928380D02*
X194222809Y-43928380D01*
X194222809Y-43928380D02*
X194127571Y-43880761D01*
X194127571Y-43880761D02*
X194079952Y-43833142D01*
X194079952Y-43833142D02*
X193984714Y-43690285D01*
X193984714Y-43690285D02*
X193937095Y-43499809D01*
X193937095Y-43499809D02*
X193937095Y-43118857D01*
X193937095Y-43118857D02*
X193984714Y-43023619D01*
X193984714Y-43023619D02*
X194032333Y-42976000D01*
X194032333Y-42976000D02*
X194127571Y-42928380D01*
X194127571Y-42928380D02*
X194318047Y-42928380D01*
X194318047Y-42928380D02*
X194413285Y-42976000D01*
X194413285Y-42976000D02*
X194460904Y-43023619D01*
X194460904Y-43023619D02*
X194508523Y-43118857D01*
X194508523Y-43118857D02*
X194508523Y-43356952D01*
X194508523Y-43356952D02*
X194460904Y-43452190D01*
X194460904Y-43452190D02*
X194413285Y-43499809D01*
X194413285Y-43499809D02*
X194318047Y-43547428D01*
X194318047Y-43547428D02*
X194127571Y-43547428D01*
X194127571Y-43547428D02*
X194032333Y-43499809D01*
X194032333Y-43499809D02*
X193984714Y-43452190D01*
X193984714Y-43452190D02*
X193937095Y-43356952D01*
X193297791Y-79272889D02*
X193196776Y-78700469D01*
X193701852Y-78868828D02*
X192994745Y-78161721D01*
X192994745Y-78161721D02*
X192725371Y-78431095D01*
X192725371Y-78431095D02*
X192691699Y-78532111D01*
X192691699Y-78532111D02*
X192691699Y-78599454D01*
X192691699Y-78599454D02*
X192725371Y-78700469D01*
X192725371Y-78700469D02*
X192826386Y-78801485D01*
X192826386Y-78801485D02*
X192927402Y-78835156D01*
X192927402Y-78835156D02*
X192994745Y-78835156D01*
X192994745Y-78835156D02*
X193095760Y-78801485D01*
X193095760Y-78801485D02*
X193365134Y-78532111D01*
X192354982Y-78801485D02*
X191917249Y-79239218D01*
X191917249Y-79239218D02*
X192422325Y-79272889D01*
X192422325Y-79272889D02*
X192321310Y-79373905D01*
X192321310Y-79373905D02*
X192287638Y-79474920D01*
X192287638Y-79474920D02*
X192287638Y-79542263D01*
X192287638Y-79542263D02*
X192321310Y-79643279D01*
X192321310Y-79643279D02*
X192489669Y-79811637D01*
X192489669Y-79811637D02*
X192590684Y-79845309D01*
X192590684Y-79845309D02*
X192658028Y-79845309D01*
X192658028Y-79845309D02*
X192759043Y-79811637D01*
X192759043Y-79811637D02*
X192961073Y-79609607D01*
X192961073Y-79609607D02*
X192994745Y-79508592D01*
X192994745Y-79508592D02*
X192994745Y-79441248D01*
X234842857Y-44017380D02*
X235176190Y-43541190D01*
X235414285Y-44017380D02*
X235414285Y-43017380D01*
X235414285Y-43017380D02*
X235033333Y-43017380D01*
X235033333Y-43017380D02*
X234938095Y-43065000D01*
X234938095Y-43065000D02*
X234890476Y-43112619D01*
X234890476Y-43112619D02*
X234842857Y-43207857D01*
X234842857Y-43207857D02*
X234842857Y-43350714D01*
X234842857Y-43350714D02*
X234890476Y-43445952D01*
X234890476Y-43445952D02*
X234938095Y-43493571D01*
X234938095Y-43493571D02*
X235033333Y-43541190D01*
X235033333Y-43541190D02*
X235414285Y-43541190D01*
X234461904Y-43112619D02*
X234414285Y-43065000D01*
X234414285Y-43065000D02*
X234319047Y-43017380D01*
X234319047Y-43017380D02*
X234080952Y-43017380D01*
X234080952Y-43017380D02*
X233985714Y-43065000D01*
X233985714Y-43065000D02*
X233938095Y-43112619D01*
X233938095Y-43112619D02*
X233890476Y-43207857D01*
X233890476Y-43207857D02*
X233890476Y-43303095D01*
X233890476Y-43303095D02*
X233938095Y-43445952D01*
X233938095Y-43445952D02*
X234509523Y-44017380D01*
X234509523Y-44017380D02*
X233890476Y-44017380D01*
X232985714Y-43017380D02*
X233461904Y-43017380D01*
X233461904Y-43017380D02*
X233509523Y-43493571D01*
X233509523Y-43493571D02*
X233461904Y-43445952D01*
X233461904Y-43445952D02*
X233366666Y-43398333D01*
X233366666Y-43398333D02*
X233128571Y-43398333D01*
X233128571Y-43398333D02*
X233033333Y-43445952D01*
X233033333Y-43445952D02*
X232985714Y-43493571D01*
X232985714Y-43493571D02*
X232938095Y-43588809D01*
X232938095Y-43588809D02*
X232938095Y-43826904D01*
X232938095Y-43826904D02*
X232985714Y-43922142D01*
X232985714Y-43922142D02*
X233033333Y-43969761D01*
X233033333Y-43969761D02*
X233128571Y-44017380D01*
X233128571Y-44017380D02*
X233366666Y-44017380D01*
X233366666Y-44017380D02*
X233461904Y-43969761D01*
X233461904Y-43969761D02*
X233509523Y-43922142D01*
X202247002Y-69587865D02*
X202314346Y-69587865D01*
X202314346Y-69587865D02*
X202449033Y-69520521D01*
X202449033Y-69520521D02*
X202516376Y-69453178D01*
X202516376Y-69453178D02*
X202583720Y-69318491D01*
X202583720Y-69318491D02*
X202583720Y-69183804D01*
X202583720Y-69183804D02*
X202550048Y-69082789D01*
X202550048Y-69082789D02*
X202449033Y-68914430D01*
X202449033Y-68914430D02*
X202348017Y-68813415D01*
X202348017Y-68813415D02*
X202179659Y-68712399D01*
X202179659Y-68712399D02*
X202078643Y-68678728D01*
X202078643Y-68678728D02*
X201943956Y-68678728D01*
X201943956Y-68678728D02*
X201809269Y-68746071D01*
X201809269Y-68746071D02*
X201741926Y-68813415D01*
X201741926Y-68813415D02*
X201674582Y-68948102D01*
X201674582Y-68948102D02*
X201674582Y-69015445D01*
X201236850Y-69789895D02*
X201708254Y-70261300D01*
X201135834Y-69352163D02*
X201809269Y-69688880D01*
X201809269Y-69688880D02*
X201371537Y-70126613D01*
X200698102Y-69857239D02*
X200260369Y-70294972D01*
X200260369Y-70294972D02*
X200765445Y-70328643D01*
X200765445Y-70328643D02*
X200664430Y-70429659D01*
X200664430Y-70429659D02*
X200630758Y-70530674D01*
X200630758Y-70530674D02*
X200630758Y-70598017D01*
X200630758Y-70598017D02*
X200664430Y-70699033D01*
X200664430Y-70699033D02*
X200832789Y-70867391D01*
X200832789Y-70867391D02*
X200933804Y-70901063D01*
X200933804Y-70901063D02*
X201001147Y-70901063D01*
X201001147Y-70901063D02*
X201102163Y-70867391D01*
X201102163Y-70867391D02*
X201304193Y-70665361D01*
X201304193Y-70665361D02*
X201337865Y-70564346D01*
X201337865Y-70564346D02*
X201337865Y-70497002D01*
X167842857Y-44017380D02*
X168176190Y-43541190D01*
X168414285Y-44017380D02*
X168414285Y-43017380D01*
X168414285Y-43017380D02*
X168033333Y-43017380D01*
X168033333Y-43017380D02*
X167938095Y-43065000D01*
X167938095Y-43065000D02*
X167890476Y-43112619D01*
X167890476Y-43112619D02*
X167842857Y-43207857D01*
X167842857Y-43207857D02*
X167842857Y-43350714D01*
X167842857Y-43350714D02*
X167890476Y-43445952D01*
X167890476Y-43445952D02*
X167938095Y-43493571D01*
X167938095Y-43493571D02*
X168033333Y-43541190D01*
X168033333Y-43541190D02*
X168414285Y-43541190D01*
X167509523Y-43017380D02*
X166890476Y-43017380D01*
X166890476Y-43017380D02*
X167223809Y-43398333D01*
X167223809Y-43398333D02*
X167080952Y-43398333D01*
X167080952Y-43398333D02*
X166985714Y-43445952D01*
X166985714Y-43445952D02*
X166938095Y-43493571D01*
X166938095Y-43493571D02*
X166890476Y-43588809D01*
X166890476Y-43588809D02*
X166890476Y-43826904D01*
X166890476Y-43826904D02*
X166938095Y-43922142D01*
X166938095Y-43922142D02*
X166985714Y-43969761D01*
X166985714Y-43969761D02*
X167080952Y-44017380D01*
X167080952Y-44017380D02*
X167366666Y-44017380D01*
X167366666Y-44017380D02*
X167461904Y-43969761D01*
X167461904Y-43969761D02*
X167509523Y-43922142D01*
X166509523Y-43112619D02*
X166461904Y-43065000D01*
X166461904Y-43065000D02*
X166366666Y-43017380D01*
X166366666Y-43017380D02*
X166128571Y-43017380D01*
X166128571Y-43017380D02*
X166033333Y-43065000D01*
X166033333Y-43065000D02*
X165985714Y-43112619D01*
X165985714Y-43112619D02*
X165938095Y-43207857D01*
X165938095Y-43207857D02*
X165938095Y-43303095D01*
X165938095Y-43303095D02*
X165985714Y-43445952D01*
X165985714Y-43445952D02*
X166557142Y-44017380D01*
X166557142Y-44017380D02*
X165938095Y-44017380D01*
X198862134Y-77497003D02*
X198862134Y-77564347D01*
X198862134Y-77564347D02*
X198929478Y-77699034D01*
X198929478Y-77699034D02*
X198996821Y-77766377D01*
X198996821Y-77766377D02*
X199131508Y-77833721D01*
X199131508Y-77833721D02*
X199266195Y-77833721D01*
X199266195Y-77833721D02*
X199367210Y-77800049D01*
X199367210Y-77800049D02*
X199535569Y-77699034D01*
X199535569Y-77699034D02*
X199636584Y-77598018D01*
X199636584Y-77598018D02*
X199737600Y-77429660D01*
X199737600Y-77429660D02*
X199771271Y-77328644D01*
X199771271Y-77328644D02*
X199771271Y-77193957D01*
X199771271Y-77193957D02*
X199703928Y-77059270D01*
X199703928Y-77059270D02*
X199636584Y-76991927D01*
X199636584Y-76991927D02*
X199501897Y-76924583D01*
X199501897Y-76924583D02*
X199434554Y-76924583D01*
X198660104Y-76486851D02*
X198188699Y-76958255D01*
X199097836Y-76385835D02*
X198761119Y-77059270D01*
X198761119Y-77059270D02*
X198323386Y-76621538D01*
X198222371Y-75577713D02*
X198357058Y-75712400D01*
X198357058Y-75712400D02*
X198390730Y-75813416D01*
X198390730Y-75813416D02*
X198390730Y-75880759D01*
X198390730Y-75880759D02*
X198357058Y-76049118D01*
X198357058Y-76049118D02*
X198256043Y-76217477D01*
X198256043Y-76217477D02*
X197986669Y-76486851D01*
X197986669Y-76486851D02*
X197885653Y-76520522D01*
X197885653Y-76520522D02*
X197818310Y-76520522D01*
X197818310Y-76520522D02*
X197717295Y-76486851D01*
X197717295Y-76486851D02*
X197582608Y-76352164D01*
X197582608Y-76352164D02*
X197548936Y-76251148D01*
X197548936Y-76251148D02*
X197548936Y-76183805D01*
X197548936Y-76183805D02*
X197582608Y-76082790D01*
X197582608Y-76082790D02*
X197750966Y-75914431D01*
X197750966Y-75914431D02*
X197851982Y-75880759D01*
X197851982Y-75880759D02*
X197919325Y-75880759D01*
X197919325Y-75880759D02*
X198020340Y-75914431D01*
X198020340Y-75914431D02*
X198155027Y-76049118D01*
X198155027Y-76049118D02*
X198188699Y-76150133D01*
X198188699Y-76150133D02*
X198188699Y-76217477D01*
X198188699Y-76217477D02*
X198155027Y-76318492D01*
X215242857Y-38822142D02*
X215290476Y-38869761D01*
X215290476Y-38869761D02*
X215433333Y-38917380D01*
X215433333Y-38917380D02*
X215528571Y-38917380D01*
X215528571Y-38917380D02*
X215671428Y-38869761D01*
X215671428Y-38869761D02*
X215766666Y-38774523D01*
X215766666Y-38774523D02*
X215814285Y-38679285D01*
X215814285Y-38679285D02*
X215861904Y-38488809D01*
X215861904Y-38488809D02*
X215861904Y-38345952D01*
X215861904Y-38345952D02*
X215814285Y-38155476D01*
X215814285Y-38155476D02*
X215766666Y-38060238D01*
X215766666Y-38060238D02*
X215671428Y-37965000D01*
X215671428Y-37965000D02*
X215528571Y-37917380D01*
X215528571Y-37917380D02*
X215433333Y-37917380D01*
X215433333Y-37917380D02*
X215290476Y-37965000D01*
X215290476Y-37965000D02*
X215242857Y-38012619D01*
X214290476Y-38917380D02*
X214861904Y-38917380D01*
X214576190Y-38917380D02*
X214576190Y-37917380D01*
X214576190Y-37917380D02*
X214671428Y-38060238D01*
X214671428Y-38060238D02*
X214766666Y-38155476D01*
X214766666Y-38155476D02*
X214861904Y-38203095D01*
X213909523Y-38012619D02*
X213861904Y-37965000D01*
X213861904Y-37965000D02*
X213766666Y-37917380D01*
X213766666Y-37917380D02*
X213528571Y-37917380D01*
X213528571Y-37917380D02*
X213433333Y-37965000D01*
X213433333Y-37965000D02*
X213385714Y-38012619D01*
X213385714Y-38012619D02*
X213338095Y-38107857D01*
X213338095Y-38107857D02*
X213338095Y-38203095D01*
X213338095Y-38203095D02*
X213385714Y-38345952D01*
X213385714Y-38345952D02*
X213957142Y-38917380D01*
X213957142Y-38917380D02*
X213338095Y-38917380D01*
X198047002Y-70687865D02*
X198114346Y-70687865D01*
X198114346Y-70687865D02*
X198249033Y-70620521D01*
X198249033Y-70620521D02*
X198316376Y-70553178D01*
X198316376Y-70553178D02*
X198383720Y-70418491D01*
X198383720Y-70418491D02*
X198383720Y-70283804D01*
X198383720Y-70283804D02*
X198350048Y-70182789D01*
X198350048Y-70182789D02*
X198249033Y-70014430D01*
X198249033Y-70014430D02*
X198148017Y-69913415D01*
X198148017Y-69913415D02*
X197979659Y-69812399D01*
X197979659Y-69812399D02*
X197878643Y-69778728D01*
X197878643Y-69778728D02*
X197743956Y-69778728D01*
X197743956Y-69778728D02*
X197609269Y-69846071D01*
X197609269Y-69846071D02*
X197541926Y-69913415D01*
X197541926Y-69913415D02*
X197474582Y-70048102D01*
X197474582Y-70048102D02*
X197474582Y-70115445D01*
X197036850Y-70889895D02*
X197508254Y-71361300D01*
X196935834Y-70452163D02*
X197609269Y-70788880D01*
X197609269Y-70788880D02*
X197171537Y-71226613D01*
X196498102Y-70957239D02*
X196026697Y-71428643D01*
X196026697Y-71428643D02*
X197036850Y-71832704D01*
X205847002Y-73787865D02*
X205914346Y-73787865D01*
X205914346Y-73787865D02*
X206049033Y-73720521D01*
X206049033Y-73720521D02*
X206116376Y-73653178D01*
X206116376Y-73653178D02*
X206183720Y-73518491D01*
X206183720Y-73518491D02*
X206183720Y-73383804D01*
X206183720Y-73383804D02*
X206150048Y-73282789D01*
X206150048Y-73282789D02*
X206049033Y-73114430D01*
X206049033Y-73114430D02*
X205948017Y-73013415D01*
X205948017Y-73013415D02*
X205779659Y-72912399D01*
X205779659Y-72912399D02*
X205678643Y-72878728D01*
X205678643Y-72878728D02*
X205543956Y-72878728D01*
X205543956Y-72878728D02*
X205409269Y-72946071D01*
X205409269Y-72946071D02*
X205341926Y-73013415D01*
X205341926Y-73013415D02*
X205274582Y-73148102D01*
X205274582Y-73148102D02*
X205274582Y-73215445D01*
X204971537Y-73383804D02*
X204533804Y-73821537D01*
X204533804Y-73821537D02*
X205038880Y-73855208D01*
X205038880Y-73855208D02*
X204937865Y-73956224D01*
X204937865Y-73956224D02*
X204904193Y-74057239D01*
X204904193Y-74057239D02*
X204904193Y-74124582D01*
X204904193Y-74124582D02*
X204937865Y-74225598D01*
X204937865Y-74225598D02*
X205106224Y-74393956D01*
X205106224Y-74393956D02*
X205207239Y-74427628D01*
X205207239Y-74427628D02*
X205274582Y-74427628D01*
X205274582Y-74427628D02*
X205375598Y-74393956D01*
X205375598Y-74393956D02*
X205577628Y-74191926D01*
X205577628Y-74191926D02*
X205611300Y-74090911D01*
X205611300Y-74090911D02*
X205611300Y-74023567D01*
X204904193Y-74865361D02*
X204769506Y-75000048D01*
X204769506Y-75000048D02*
X204668491Y-75033720D01*
X204668491Y-75033720D02*
X204601147Y-75033720D01*
X204601147Y-75033720D02*
X204432789Y-75000048D01*
X204432789Y-75000048D02*
X204264430Y-74899033D01*
X204264430Y-74899033D02*
X203995056Y-74629659D01*
X203995056Y-74629659D02*
X203961384Y-74528643D01*
X203961384Y-74528643D02*
X203961384Y-74461300D01*
X203961384Y-74461300D02*
X203995056Y-74360285D01*
X203995056Y-74360285D02*
X204129743Y-74225598D01*
X204129743Y-74225598D02*
X204230758Y-74191926D01*
X204230758Y-74191926D02*
X204298102Y-74191926D01*
X204298102Y-74191926D02*
X204399117Y-74225598D01*
X204399117Y-74225598D02*
X204567476Y-74393956D01*
X204567476Y-74393956D02*
X204601147Y-74494972D01*
X204601147Y-74494972D02*
X204601147Y-74562315D01*
X204601147Y-74562315D02*
X204567476Y-74663330D01*
X204567476Y-74663330D02*
X204432789Y-74798017D01*
X204432789Y-74798017D02*
X204331773Y-74831689D01*
X204331773Y-74831689D02*
X204264430Y-74831689D01*
X204264430Y-74831689D02*
X204163415Y-74798017D01*
X203547002Y-71287865D02*
X203614346Y-71287865D01*
X203614346Y-71287865D02*
X203749033Y-71220521D01*
X203749033Y-71220521D02*
X203816376Y-71153178D01*
X203816376Y-71153178D02*
X203883720Y-71018491D01*
X203883720Y-71018491D02*
X203883720Y-70883804D01*
X203883720Y-70883804D02*
X203850048Y-70782789D01*
X203850048Y-70782789D02*
X203749033Y-70614430D01*
X203749033Y-70614430D02*
X203648017Y-70513415D01*
X203648017Y-70513415D02*
X203479659Y-70412399D01*
X203479659Y-70412399D02*
X203378643Y-70378728D01*
X203378643Y-70378728D02*
X203243956Y-70378728D01*
X203243956Y-70378728D02*
X203109269Y-70446071D01*
X203109269Y-70446071D02*
X203041926Y-70513415D01*
X203041926Y-70513415D02*
X202974582Y-70648102D01*
X202974582Y-70648102D02*
X202974582Y-70715445D01*
X202267476Y-71287865D02*
X202604193Y-70951147D01*
X202604193Y-70951147D02*
X202974582Y-71254193D01*
X202974582Y-71254193D02*
X202907239Y-71254193D01*
X202907239Y-71254193D02*
X202806224Y-71287865D01*
X202806224Y-71287865D02*
X202637865Y-71456224D01*
X202637865Y-71456224D02*
X202604193Y-71557239D01*
X202604193Y-71557239D02*
X202604193Y-71624582D01*
X202604193Y-71624582D02*
X202637865Y-71725598D01*
X202637865Y-71725598D02*
X202806224Y-71893956D01*
X202806224Y-71893956D02*
X202907239Y-71927628D01*
X202907239Y-71927628D02*
X202974582Y-71927628D01*
X202974582Y-71927628D02*
X203075598Y-71893956D01*
X203075598Y-71893956D02*
X203243956Y-71725598D01*
X203243956Y-71725598D02*
X203277628Y-71624582D01*
X203277628Y-71624582D02*
X203277628Y-71557239D01*
X201998102Y-71557239D02*
X201560369Y-71994972D01*
X201560369Y-71994972D02*
X202065445Y-72028643D01*
X202065445Y-72028643D02*
X201964430Y-72129659D01*
X201964430Y-72129659D02*
X201930758Y-72230674D01*
X201930758Y-72230674D02*
X201930758Y-72298017D01*
X201930758Y-72298017D02*
X201964430Y-72399033D01*
X201964430Y-72399033D02*
X202132789Y-72567391D01*
X202132789Y-72567391D02*
X202233804Y-72601063D01*
X202233804Y-72601063D02*
X202301147Y-72601063D01*
X202301147Y-72601063D02*
X202402163Y-72567391D01*
X202402163Y-72567391D02*
X202604193Y-72365361D01*
X202604193Y-72365361D02*
X202637865Y-72264346D01*
X202637865Y-72264346D02*
X202637865Y-72197002D01*
X176042857Y-44017380D02*
X176376190Y-43541190D01*
X176614285Y-44017380D02*
X176614285Y-43017380D01*
X176614285Y-43017380D02*
X176233333Y-43017380D01*
X176233333Y-43017380D02*
X176138095Y-43065000D01*
X176138095Y-43065000D02*
X176090476Y-43112619D01*
X176090476Y-43112619D02*
X176042857Y-43207857D01*
X176042857Y-43207857D02*
X176042857Y-43350714D01*
X176042857Y-43350714D02*
X176090476Y-43445952D01*
X176090476Y-43445952D02*
X176138095Y-43493571D01*
X176138095Y-43493571D02*
X176233333Y-43541190D01*
X176233333Y-43541190D02*
X176614285Y-43541190D01*
X175709523Y-43017380D02*
X175090476Y-43017380D01*
X175090476Y-43017380D02*
X175423809Y-43398333D01*
X175423809Y-43398333D02*
X175280952Y-43398333D01*
X175280952Y-43398333D02*
X175185714Y-43445952D01*
X175185714Y-43445952D02*
X175138095Y-43493571D01*
X175138095Y-43493571D02*
X175090476Y-43588809D01*
X175090476Y-43588809D02*
X175090476Y-43826904D01*
X175090476Y-43826904D02*
X175138095Y-43922142D01*
X175138095Y-43922142D02*
X175185714Y-43969761D01*
X175185714Y-43969761D02*
X175280952Y-44017380D01*
X175280952Y-44017380D02*
X175566666Y-44017380D01*
X175566666Y-44017380D02*
X175661904Y-43969761D01*
X175661904Y-43969761D02*
X175709523Y-43922142D01*
X174138095Y-44017380D02*
X174709523Y-44017380D01*
X174423809Y-44017380D02*
X174423809Y-43017380D01*
X174423809Y-43017380D02*
X174519047Y-43160238D01*
X174519047Y-43160238D02*
X174614285Y-43255476D01*
X174614285Y-43255476D02*
X174709523Y-43303095D01*
X199347002Y-79287865D02*
X199414346Y-79287865D01*
X199414346Y-79287865D02*
X199549033Y-79220521D01*
X199549033Y-79220521D02*
X199616376Y-79153178D01*
X199616376Y-79153178D02*
X199683720Y-79018491D01*
X199683720Y-79018491D02*
X199683720Y-78883804D01*
X199683720Y-78883804D02*
X199650048Y-78782789D01*
X199650048Y-78782789D02*
X199549033Y-78614430D01*
X199549033Y-78614430D02*
X199448017Y-78513415D01*
X199448017Y-78513415D02*
X199279659Y-78412399D01*
X199279659Y-78412399D02*
X199178643Y-78378728D01*
X199178643Y-78378728D02*
X199043956Y-78378728D01*
X199043956Y-78378728D02*
X198909269Y-78446071D01*
X198909269Y-78446071D02*
X198841926Y-78513415D01*
X198841926Y-78513415D02*
X198774582Y-78648102D01*
X198774582Y-78648102D02*
X198774582Y-78715445D01*
X198067476Y-79287865D02*
X198404193Y-78951147D01*
X198404193Y-78951147D02*
X198774582Y-79254193D01*
X198774582Y-79254193D02*
X198707239Y-79254193D01*
X198707239Y-79254193D02*
X198606224Y-79287865D01*
X198606224Y-79287865D02*
X198437865Y-79456224D01*
X198437865Y-79456224D02*
X198404193Y-79557239D01*
X198404193Y-79557239D02*
X198404193Y-79624582D01*
X198404193Y-79624582D02*
X198437865Y-79725598D01*
X198437865Y-79725598D02*
X198606224Y-79893956D01*
X198606224Y-79893956D02*
X198707239Y-79927628D01*
X198707239Y-79927628D02*
X198774582Y-79927628D01*
X198774582Y-79927628D02*
X198875598Y-79893956D01*
X198875598Y-79893956D02*
X199043956Y-79725598D01*
X199043956Y-79725598D02*
X199077628Y-79624582D01*
X199077628Y-79624582D02*
X199077628Y-79557239D01*
X197663415Y-80163330D02*
X198134819Y-80634735D01*
X197562399Y-79725598D02*
X198235834Y-80062315D01*
X198235834Y-80062315D02*
X197798102Y-80500048D01*
X204447001Y-72187865D02*
X204514345Y-72187865D01*
X204514345Y-72187865D02*
X204649032Y-72120521D01*
X204649032Y-72120521D02*
X204716375Y-72053178D01*
X204716375Y-72053178D02*
X204783719Y-71918491D01*
X204783719Y-71918491D02*
X204783719Y-71783804D01*
X204783719Y-71783804D02*
X204750047Y-71682789D01*
X204750047Y-71682789D02*
X204649032Y-71514430D01*
X204649032Y-71514430D02*
X204548016Y-71413415D01*
X204548016Y-71413415D02*
X204379658Y-71312399D01*
X204379658Y-71312399D02*
X204278642Y-71278728D01*
X204278642Y-71278728D02*
X204143955Y-71278728D01*
X204143955Y-71278728D02*
X204009268Y-71346071D01*
X204009268Y-71346071D02*
X203941925Y-71413415D01*
X203941925Y-71413415D02*
X203874581Y-71548102D01*
X203874581Y-71548102D02*
X203874581Y-71615445D01*
X203167475Y-72187865D02*
X203504192Y-71851147D01*
X203504192Y-71851147D02*
X203874581Y-72154193D01*
X203874581Y-72154193D02*
X203807238Y-72154193D01*
X203807238Y-72154193D02*
X203706223Y-72187865D01*
X203706223Y-72187865D02*
X203537864Y-72356224D01*
X203537864Y-72356224D02*
X203504192Y-72457239D01*
X203504192Y-72457239D02*
X203504192Y-72524582D01*
X203504192Y-72524582D02*
X203537864Y-72625598D01*
X203537864Y-72625598D02*
X203706223Y-72793956D01*
X203706223Y-72793956D02*
X203807238Y-72827628D01*
X203807238Y-72827628D02*
X203874581Y-72827628D01*
X203874581Y-72827628D02*
X203975597Y-72793956D01*
X203975597Y-72793956D02*
X204143955Y-72625598D01*
X204143955Y-72625598D02*
X204177627Y-72524582D01*
X204177627Y-72524582D02*
X204177627Y-72457239D01*
X202696070Y-72659269D02*
X202628727Y-72726613D01*
X202628727Y-72726613D02*
X202595055Y-72827628D01*
X202595055Y-72827628D02*
X202595055Y-72894972D01*
X202595055Y-72894972D02*
X202628727Y-72995987D01*
X202628727Y-72995987D02*
X202729742Y-73164346D01*
X202729742Y-73164346D02*
X202898101Y-73332704D01*
X202898101Y-73332704D02*
X203066459Y-73433720D01*
X203066459Y-73433720D02*
X203167475Y-73467391D01*
X203167475Y-73467391D02*
X203234818Y-73467391D01*
X203234818Y-73467391D02*
X203335833Y-73433720D01*
X203335833Y-73433720D02*
X203403177Y-73366376D01*
X203403177Y-73366376D02*
X203436849Y-73265361D01*
X203436849Y-73265361D02*
X203436849Y-73198017D01*
X203436849Y-73198017D02*
X203403177Y-73097002D01*
X203403177Y-73097002D02*
X203302162Y-72928643D01*
X203302162Y-72928643D02*
X203133803Y-72760285D01*
X203133803Y-72760285D02*
X202965444Y-72659269D01*
X202965444Y-72659269D02*
X202864429Y-72625598D01*
X202864429Y-72625598D02*
X202797085Y-72625598D01*
X202797085Y-72625598D02*
X202696070Y-72659269D01*
X198447002Y-78387865D02*
X198514346Y-78387865D01*
X198514346Y-78387865D02*
X198649033Y-78320521D01*
X198649033Y-78320521D02*
X198716376Y-78253178D01*
X198716376Y-78253178D02*
X198783720Y-78118491D01*
X198783720Y-78118491D02*
X198783720Y-77983804D01*
X198783720Y-77983804D02*
X198750048Y-77882789D01*
X198750048Y-77882789D02*
X198649033Y-77714430D01*
X198649033Y-77714430D02*
X198548017Y-77613415D01*
X198548017Y-77613415D02*
X198379659Y-77512399D01*
X198379659Y-77512399D02*
X198278643Y-77478728D01*
X198278643Y-77478728D02*
X198143956Y-77478728D01*
X198143956Y-77478728D02*
X198009269Y-77546071D01*
X198009269Y-77546071D02*
X197941926Y-77613415D01*
X197941926Y-77613415D02*
X197874582Y-77748102D01*
X197874582Y-77748102D02*
X197874582Y-77815445D01*
X197436850Y-78589895D02*
X197908254Y-79061300D01*
X197335834Y-78152163D02*
X198009269Y-78488880D01*
X198009269Y-78488880D02*
X197571537Y-78926613D01*
X196494041Y-79061300D02*
X196830758Y-78724582D01*
X196830758Y-78724582D02*
X197201147Y-79027628D01*
X197201147Y-79027628D02*
X197133804Y-79027628D01*
X197133804Y-79027628D02*
X197032789Y-79061300D01*
X197032789Y-79061300D02*
X196864430Y-79229659D01*
X196864430Y-79229659D02*
X196830758Y-79330674D01*
X196830758Y-79330674D02*
X196830758Y-79398017D01*
X196830758Y-79398017D02*
X196864430Y-79499033D01*
X196864430Y-79499033D02*
X197032789Y-79667391D01*
X197032789Y-79667391D02*
X197133804Y-79701063D01*
X197133804Y-79701063D02*
X197201147Y-79701063D01*
X197201147Y-79701063D02*
X197302163Y-79667391D01*
X197302163Y-79667391D02*
X197470521Y-79499033D01*
X197470521Y-79499033D02*
X197504193Y-79398017D01*
X197504193Y-79398017D02*
X197504193Y-79330674D01*
X205247002Y-76687865D02*
X205314346Y-76687865D01*
X205314346Y-76687865D02*
X205449033Y-76620521D01*
X205449033Y-76620521D02*
X205516376Y-76553178D01*
X205516376Y-76553178D02*
X205583720Y-76418491D01*
X205583720Y-76418491D02*
X205583720Y-76283804D01*
X205583720Y-76283804D02*
X205550048Y-76182789D01*
X205550048Y-76182789D02*
X205449033Y-76014430D01*
X205449033Y-76014430D02*
X205348017Y-75913415D01*
X205348017Y-75913415D02*
X205179659Y-75812399D01*
X205179659Y-75812399D02*
X205078643Y-75778728D01*
X205078643Y-75778728D02*
X204943956Y-75778728D01*
X204943956Y-75778728D02*
X204809269Y-75846071D01*
X204809269Y-75846071D02*
X204741926Y-75913415D01*
X204741926Y-75913415D02*
X204674582Y-76048102D01*
X204674582Y-76048102D02*
X204674582Y-76115445D01*
X203967476Y-76687865D02*
X204304193Y-76351147D01*
X204304193Y-76351147D02*
X204674582Y-76654193D01*
X204674582Y-76654193D02*
X204607239Y-76654193D01*
X204607239Y-76654193D02*
X204506224Y-76687865D01*
X204506224Y-76687865D02*
X204337865Y-76856224D01*
X204337865Y-76856224D02*
X204304193Y-76957239D01*
X204304193Y-76957239D02*
X204304193Y-77024582D01*
X204304193Y-77024582D02*
X204337865Y-77125598D01*
X204337865Y-77125598D02*
X204506224Y-77293956D01*
X204506224Y-77293956D02*
X204607239Y-77327628D01*
X204607239Y-77327628D02*
X204674582Y-77327628D01*
X204674582Y-77327628D02*
X204775598Y-77293956D01*
X204775598Y-77293956D02*
X204943956Y-77125598D01*
X204943956Y-77125598D02*
X204977628Y-77024582D01*
X204977628Y-77024582D02*
X204977628Y-76957239D01*
X203294041Y-77361300D02*
X203630758Y-77024582D01*
X203630758Y-77024582D02*
X204001147Y-77327628D01*
X204001147Y-77327628D02*
X203933804Y-77327628D01*
X203933804Y-77327628D02*
X203832789Y-77361300D01*
X203832789Y-77361300D02*
X203664430Y-77529659D01*
X203664430Y-77529659D02*
X203630758Y-77630674D01*
X203630758Y-77630674D02*
X203630758Y-77698017D01*
X203630758Y-77698017D02*
X203664430Y-77799033D01*
X203664430Y-77799033D02*
X203832789Y-77967391D01*
X203832789Y-77967391D02*
X203933804Y-78001063D01*
X203933804Y-78001063D02*
X204001147Y-78001063D01*
X204001147Y-78001063D02*
X204102163Y-77967391D01*
X204102163Y-77967391D02*
X204270521Y-77799033D01*
X204270521Y-77799033D02*
X204304193Y-77698017D01*
X204304193Y-77698017D02*
X204304193Y-77630674D01*
X191864590Y-80706089D02*
X191763575Y-80133669D01*
X192268651Y-80302028D02*
X191561544Y-79594921D01*
X191561544Y-79594921D02*
X191292170Y-79864295D01*
X191292170Y-79864295D02*
X191258498Y-79965311D01*
X191258498Y-79965311D02*
X191258498Y-80032654D01*
X191258498Y-80032654D02*
X191292170Y-80133669D01*
X191292170Y-80133669D02*
X191393185Y-80234685D01*
X191393185Y-80234685D02*
X191494201Y-80268356D01*
X191494201Y-80268356D02*
X191561544Y-80268356D01*
X191561544Y-80268356D02*
X191662559Y-80234685D01*
X191662559Y-80234685D02*
X191931933Y-79965311D01*
X190955453Y-80335700D02*
X190888109Y-80335700D01*
X190888109Y-80335700D02*
X190787094Y-80369372D01*
X190787094Y-80369372D02*
X190618735Y-80537731D01*
X190618735Y-80537731D02*
X190585063Y-80638746D01*
X190585063Y-80638746D02*
X190585063Y-80706089D01*
X190585063Y-80706089D02*
X190618735Y-80807105D01*
X190618735Y-80807105D02*
X190686079Y-80874448D01*
X190686079Y-80874448D02*
X190820766Y-80941792D01*
X190820766Y-80941792D02*
X191628888Y-80941792D01*
X191628888Y-80941792D02*
X191191155Y-81379524D01*
X194177628Y-70891926D02*
X194076613Y-70319506D01*
X194581689Y-70487865D02*
X193874582Y-69780758D01*
X193874582Y-69780758D02*
X193605208Y-70050132D01*
X193605208Y-70050132D02*
X193571536Y-70151148D01*
X193571536Y-70151148D02*
X193571536Y-70218491D01*
X193571536Y-70218491D02*
X193605208Y-70319506D01*
X193605208Y-70319506D02*
X193706223Y-70420522D01*
X193706223Y-70420522D02*
X193807239Y-70454193D01*
X193807239Y-70454193D02*
X193874582Y-70454193D01*
X193874582Y-70454193D02*
X193975597Y-70420522D01*
X193975597Y-70420522D02*
X194244971Y-70151148D01*
X193504193Y-71565361D02*
X193908254Y-71161300D01*
X193706223Y-71363331D02*
X192999117Y-70656224D01*
X192999117Y-70656224D02*
X193167475Y-70689896D01*
X193167475Y-70689896D02*
X193302162Y-70689896D01*
X193302162Y-70689896D02*
X193403178Y-70656224D01*
X195347002Y-67987865D02*
X195414346Y-67987865D01*
X195414346Y-67987865D02*
X195549033Y-67920521D01*
X195549033Y-67920521D02*
X195616376Y-67853178D01*
X195616376Y-67853178D02*
X195683720Y-67718491D01*
X195683720Y-67718491D02*
X195683720Y-67583804D01*
X195683720Y-67583804D02*
X195650048Y-67482789D01*
X195650048Y-67482789D02*
X195549033Y-67314430D01*
X195549033Y-67314430D02*
X195448017Y-67213415D01*
X195448017Y-67213415D02*
X195279659Y-67112399D01*
X195279659Y-67112399D02*
X195178643Y-67078728D01*
X195178643Y-67078728D02*
X195043956Y-67078728D01*
X195043956Y-67078728D02*
X194909269Y-67146071D01*
X194909269Y-67146071D02*
X194841926Y-67213415D01*
X194841926Y-67213415D02*
X194774582Y-67348102D01*
X194774582Y-67348102D02*
X194774582Y-67415445D01*
X194336850Y-68189895D02*
X194808254Y-68661300D01*
X194235834Y-67752163D02*
X194909269Y-68088880D01*
X194909269Y-68088880D02*
X194471537Y-68526613D01*
X194067476Y-69402078D02*
X194471537Y-68998017D01*
X194269506Y-69200048D02*
X193562399Y-68492941D01*
X193562399Y-68492941D02*
X193730758Y-68526613D01*
X193730758Y-68526613D02*
X193865445Y-68526613D01*
X193865445Y-68526613D02*
X193966460Y-68492941D01*
X226742857Y-44017380D02*
X227076190Y-43541190D01*
X227314285Y-44017380D02*
X227314285Y-43017380D01*
X227314285Y-43017380D02*
X226933333Y-43017380D01*
X226933333Y-43017380D02*
X226838095Y-43065000D01*
X226838095Y-43065000D02*
X226790476Y-43112619D01*
X226790476Y-43112619D02*
X226742857Y-43207857D01*
X226742857Y-43207857D02*
X226742857Y-43350714D01*
X226742857Y-43350714D02*
X226790476Y-43445952D01*
X226790476Y-43445952D02*
X226838095Y-43493571D01*
X226838095Y-43493571D02*
X226933333Y-43541190D01*
X226933333Y-43541190D02*
X227314285Y-43541190D01*
X226361904Y-43112619D02*
X226314285Y-43065000D01*
X226314285Y-43065000D02*
X226219047Y-43017380D01*
X226219047Y-43017380D02*
X225980952Y-43017380D01*
X225980952Y-43017380D02*
X225885714Y-43065000D01*
X225885714Y-43065000D02*
X225838095Y-43112619D01*
X225838095Y-43112619D02*
X225790476Y-43207857D01*
X225790476Y-43207857D02*
X225790476Y-43303095D01*
X225790476Y-43303095D02*
X225838095Y-43445952D01*
X225838095Y-43445952D02*
X226409523Y-44017380D01*
X226409523Y-44017380D02*
X225790476Y-44017380D01*
X224933333Y-43017380D02*
X225123809Y-43017380D01*
X225123809Y-43017380D02*
X225219047Y-43065000D01*
X225219047Y-43065000D02*
X225266666Y-43112619D01*
X225266666Y-43112619D02*
X225361904Y-43255476D01*
X225361904Y-43255476D02*
X225409523Y-43445952D01*
X225409523Y-43445952D02*
X225409523Y-43826904D01*
X225409523Y-43826904D02*
X225361904Y-43922142D01*
X225361904Y-43922142D02*
X225314285Y-43969761D01*
X225314285Y-43969761D02*
X225219047Y-44017380D01*
X225219047Y-44017380D02*
X225028571Y-44017380D01*
X225028571Y-44017380D02*
X224933333Y-43969761D01*
X224933333Y-43969761D02*
X224885714Y-43922142D01*
X224885714Y-43922142D02*
X224838095Y-43826904D01*
X224838095Y-43826904D02*
X224838095Y-43588809D01*
X224838095Y-43588809D02*
X224885714Y-43493571D01*
X224885714Y-43493571D02*
X224933333Y-43445952D01*
X224933333Y-43445952D02*
X225028571Y-43398333D01*
X225028571Y-43398333D02*
X225219047Y-43398333D01*
X225219047Y-43398333D02*
X225314285Y-43445952D01*
X225314285Y-43445952D02*
X225361904Y-43493571D01*
X225361904Y-43493571D02*
X225409523Y-43588809D01*
X199862134Y-76297002D02*
X199862134Y-76364346D01*
X199862134Y-76364346D02*
X199929478Y-76499033D01*
X199929478Y-76499033D02*
X199996821Y-76566376D01*
X199996821Y-76566376D02*
X200131508Y-76633720D01*
X200131508Y-76633720D02*
X200266195Y-76633720D01*
X200266195Y-76633720D02*
X200367210Y-76600048D01*
X200367210Y-76600048D02*
X200535569Y-76499033D01*
X200535569Y-76499033D02*
X200636584Y-76398017D01*
X200636584Y-76398017D02*
X200737600Y-76229659D01*
X200737600Y-76229659D02*
X200771271Y-76128643D01*
X200771271Y-76128643D02*
X200771271Y-75993956D01*
X200771271Y-75993956D02*
X200703928Y-75859269D01*
X200703928Y-75859269D02*
X200636584Y-75791926D01*
X200636584Y-75791926D02*
X200501897Y-75724582D01*
X200501897Y-75724582D02*
X200434554Y-75724582D01*
X199862134Y-75017476D02*
X200198852Y-75354193D01*
X200198852Y-75354193D02*
X199895806Y-75724582D01*
X199895806Y-75724582D02*
X199895806Y-75657239D01*
X199895806Y-75657239D02*
X199862134Y-75556224D01*
X199862134Y-75556224D02*
X199693775Y-75387865D01*
X199693775Y-75387865D02*
X199592760Y-75354193D01*
X199592760Y-75354193D02*
X199525417Y-75354193D01*
X199525417Y-75354193D02*
X199424401Y-75387865D01*
X199424401Y-75387865D02*
X199256043Y-75556224D01*
X199256043Y-75556224D02*
X199222371Y-75657239D01*
X199222371Y-75657239D02*
X199222371Y-75724582D01*
X199222371Y-75724582D02*
X199256043Y-75825598D01*
X199256043Y-75825598D02*
X199424401Y-75993956D01*
X199424401Y-75993956D02*
X199525417Y-76027628D01*
X199525417Y-76027628D02*
X199592760Y-76027628D01*
X199222371Y-74377712D02*
X199357058Y-74512399D01*
X199357058Y-74512399D02*
X199390730Y-74613415D01*
X199390730Y-74613415D02*
X199390730Y-74680758D01*
X199390730Y-74680758D02*
X199357058Y-74849117D01*
X199357058Y-74849117D02*
X199256043Y-75017476D01*
X199256043Y-75017476D02*
X198986669Y-75286850D01*
X198986669Y-75286850D02*
X198885653Y-75320521D01*
X198885653Y-75320521D02*
X198818310Y-75320521D01*
X198818310Y-75320521D02*
X198717295Y-75286850D01*
X198717295Y-75286850D02*
X198582608Y-75152163D01*
X198582608Y-75152163D02*
X198548936Y-75051147D01*
X198548936Y-75051147D02*
X198548936Y-74983804D01*
X198548936Y-74983804D02*
X198582608Y-74882789D01*
X198582608Y-74882789D02*
X198750966Y-74714430D01*
X198750966Y-74714430D02*
X198851982Y-74680758D01*
X198851982Y-74680758D02*
X198919325Y-74680758D01*
X198919325Y-74680758D02*
X199020340Y-74714430D01*
X199020340Y-74714430D02*
X199155027Y-74849117D01*
X199155027Y-74849117D02*
X199188699Y-74950132D01*
X199188699Y-74950132D02*
X199188699Y-75017476D01*
X199188699Y-75017476D02*
X199155027Y-75118491D01*
X156442857Y-44017380D02*
X156776190Y-43541190D01*
X157014285Y-44017380D02*
X157014285Y-43017380D01*
X157014285Y-43017380D02*
X156633333Y-43017380D01*
X156633333Y-43017380D02*
X156538095Y-43065000D01*
X156538095Y-43065000D02*
X156490476Y-43112619D01*
X156490476Y-43112619D02*
X156442857Y-43207857D01*
X156442857Y-43207857D02*
X156442857Y-43350714D01*
X156442857Y-43350714D02*
X156490476Y-43445952D01*
X156490476Y-43445952D02*
X156538095Y-43493571D01*
X156538095Y-43493571D02*
X156633333Y-43541190D01*
X156633333Y-43541190D02*
X157014285Y-43541190D01*
X156109523Y-43017380D02*
X155490476Y-43017380D01*
X155490476Y-43017380D02*
X155823809Y-43398333D01*
X155823809Y-43398333D02*
X155680952Y-43398333D01*
X155680952Y-43398333D02*
X155585714Y-43445952D01*
X155585714Y-43445952D02*
X155538095Y-43493571D01*
X155538095Y-43493571D02*
X155490476Y-43588809D01*
X155490476Y-43588809D02*
X155490476Y-43826904D01*
X155490476Y-43826904D02*
X155538095Y-43922142D01*
X155538095Y-43922142D02*
X155585714Y-43969761D01*
X155585714Y-43969761D02*
X155680952Y-44017380D01*
X155680952Y-44017380D02*
X155966666Y-44017380D01*
X155966666Y-44017380D02*
X156061904Y-43969761D01*
X156061904Y-43969761D02*
X156109523Y-43922142D01*
X155157142Y-43017380D02*
X154538095Y-43017380D01*
X154538095Y-43017380D02*
X154871428Y-43398333D01*
X154871428Y-43398333D02*
X154728571Y-43398333D01*
X154728571Y-43398333D02*
X154633333Y-43445952D01*
X154633333Y-43445952D02*
X154585714Y-43493571D01*
X154585714Y-43493571D02*
X154538095Y-43588809D01*
X154538095Y-43588809D02*
X154538095Y-43826904D01*
X154538095Y-43826904D02*
X154585714Y-43922142D01*
X154585714Y-43922142D02*
X154633333Y-43969761D01*
X154633333Y-43969761D02*
X154728571Y-44017380D01*
X154728571Y-44017380D02*
X155014285Y-44017380D01*
X155014285Y-44017380D02*
X155109523Y-43969761D01*
X155109523Y-43969761D02*
X155157142Y-43922142D01*
X197047002Y-69787866D02*
X197114346Y-69787866D01*
X197114346Y-69787866D02*
X197249033Y-69720522D01*
X197249033Y-69720522D02*
X197316376Y-69653179D01*
X197316376Y-69653179D02*
X197383720Y-69518492D01*
X197383720Y-69518492D02*
X197383720Y-69383805D01*
X197383720Y-69383805D02*
X197350048Y-69282790D01*
X197350048Y-69282790D02*
X197249033Y-69114431D01*
X197249033Y-69114431D02*
X197148017Y-69013416D01*
X197148017Y-69013416D02*
X196979659Y-68912400D01*
X196979659Y-68912400D02*
X196878643Y-68878729D01*
X196878643Y-68878729D02*
X196743956Y-68878729D01*
X196743956Y-68878729D02*
X196609269Y-68946072D01*
X196609269Y-68946072D02*
X196541926Y-69013416D01*
X196541926Y-69013416D02*
X196474582Y-69148103D01*
X196474582Y-69148103D02*
X196474582Y-69215446D01*
X195767476Y-69787866D02*
X196104193Y-69451148D01*
X196104193Y-69451148D02*
X196474582Y-69754194D01*
X196474582Y-69754194D02*
X196407239Y-69754194D01*
X196407239Y-69754194D02*
X196306224Y-69787866D01*
X196306224Y-69787866D02*
X196137865Y-69956225D01*
X196137865Y-69956225D02*
X196104193Y-70057240D01*
X196104193Y-70057240D02*
X196104193Y-70124583D01*
X196104193Y-70124583D02*
X196137865Y-70225599D01*
X196137865Y-70225599D02*
X196306224Y-70393957D01*
X196306224Y-70393957D02*
X196407239Y-70427629D01*
X196407239Y-70427629D02*
X196474582Y-70427629D01*
X196474582Y-70427629D02*
X196575598Y-70393957D01*
X196575598Y-70393957D02*
X196743956Y-70225599D01*
X196743956Y-70225599D02*
X196777628Y-70124583D01*
X196777628Y-70124583D02*
X196777628Y-70057240D01*
X195498102Y-70057240D02*
X195026697Y-70528644D01*
X195026697Y-70528644D02*
X196036850Y-70932705D01*
X201047002Y-80737865D02*
X201114346Y-80737865D01*
X201114346Y-80737865D02*
X201249033Y-80670521D01*
X201249033Y-80670521D02*
X201316376Y-80603178D01*
X201316376Y-80603178D02*
X201383720Y-80468491D01*
X201383720Y-80468491D02*
X201383720Y-80333804D01*
X201383720Y-80333804D02*
X201350048Y-80232789D01*
X201350048Y-80232789D02*
X201249033Y-80064430D01*
X201249033Y-80064430D02*
X201148017Y-79963415D01*
X201148017Y-79963415D02*
X200979659Y-79862399D01*
X200979659Y-79862399D02*
X200878643Y-79828728D01*
X200878643Y-79828728D02*
X200743956Y-79828728D01*
X200743956Y-79828728D02*
X200609269Y-79896071D01*
X200609269Y-79896071D02*
X200541926Y-79963415D01*
X200541926Y-79963415D02*
X200474582Y-80098102D01*
X200474582Y-80098102D02*
X200474582Y-80165445D01*
X200036850Y-80939895D02*
X200508254Y-81411300D01*
X199935834Y-80502163D02*
X200609269Y-80838880D01*
X200609269Y-80838880D02*
X200171537Y-81276613D01*
X199296071Y-81209269D02*
X199228728Y-81276613D01*
X199228728Y-81276613D02*
X199195056Y-81377628D01*
X199195056Y-81377628D02*
X199195056Y-81444972D01*
X199195056Y-81444972D02*
X199228728Y-81545987D01*
X199228728Y-81545987D02*
X199329743Y-81714346D01*
X199329743Y-81714346D02*
X199498102Y-81882704D01*
X199498102Y-81882704D02*
X199666460Y-81983720D01*
X199666460Y-81983720D02*
X199767476Y-82017391D01*
X199767476Y-82017391D02*
X199834819Y-82017391D01*
X199834819Y-82017391D02*
X199935834Y-81983720D01*
X199935834Y-81983720D02*
X200003178Y-81916376D01*
X200003178Y-81916376D02*
X200036850Y-81815361D01*
X200036850Y-81815361D02*
X200036850Y-81748017D01*
X200036850Y-81748017D02*
X200003178Y-81647002D01*
X200003178Y-81647002D02*
X199902163Y-81478643D01*
X199902163Y-81478643D02*
X199733804Y-81310285D01*
X199733804Y-81310285D02*
X199565445Y-81209269D01*
X199565445Y-81209269D02*
X199464430Y-81175598D01*
X199464430Y-81175598D02*
X199397086Y-81175598D01*
X199397086Y-81175598D02*
X199296071Y-81209269D01*
X203197002Y-78737865D02*
X203264346Y-78737865D01*
X203264346Y-78737865D02*
X203399033Y-78670521D01*
X203399033Y-78670521D02*
X203466376Y-78603178D01*
X203466376Y-78603178D02*
X203533720Y-78468491D01*
X203533720Y-78468491D02*
X203533720Y-78333804D01*
X203533720Y-78333804D02*
X203500048Y-78232789D01*
X203500048Y-78232789D02*
X203399033Y-78064430D01*
X203399033Y-78064430D02*
X203298017Y-77963415D01*
X203298017Y-77963415D02*
X203129659Y-77862399D01*
X203129659Y-77862399D02*
X203028643Y-77828728D01*
X203028643Y-77828728D02*
X202893956Y-77828728D01*
X202893956Y-77828728D02*
X202759269Y-77896071D01*
X202759269Y-77896071D02*
X202691926Y-77963415D01*
X202691926Y-77963415D02*
X202624582Y-78098102D01*
X202624582Y-78098102D02*
X202624582Y-78165445D01*
X202321537Y-78333804D02*
X201883804Y-78771537D01*
X201883804Y-78771537D02*
X202388880Y-78805208D01*
X202388880Y-78805208D02*
X202287865Y-78906224D01*
X202287865Y-78906224D02*
X202254193Y-79007239D01*
X202254193Y-79007239D02*
X202254193Y-79074582D01*
X202254193Y-79074582D02*
X202287865Y-79175598D01*
X202287865Y-79175598D02*
X202456224Y-79343956D01*
X202456224Y-79343956D02*
X202557239Y-79377628D01*
X202557239Y-79377628D02*
X202624582Y-79377628D01*
X202624582Y-79377628D02*
X202725598Y-79343956D01*
X202725598Y-79343956D02*
X202927628Y-79141926D01*
X202927628Y-79141926D02*
X202961300Y-79040911D01*
X202961300Y-79040911D02*
X202961300Y-78973567D01*
X201917476Y-80152078D02*
X202321537Y-79748017D01*
X202119506Y-79950048D02*
X201412399Y-79242941D01*
X201412399Y-79242941D02*
X201580758Y-79276613D01*
X201580758Y-79276613D02*
X201715445Y-79276613D01*
X201715445Y-79276613D02*
X201816460Y-79242941D01*
D12*
X213050000Y-43671959D02*
X213050000Y-43979241D01*
X212290000Y-43671959D02*
X212290000Y-43979241D01*
X204900800Y-43621159D02*
X204900800Y-43928441D01*
X204140800Y-43621159D02*
X204140800Y-43928441D01*
X199263507Y-72478790D02*
X199416010Y-72631293D01*
X198754390Y-72987907D02*
X198906893Y-73140410D01*
X185292000Y-43570359D02*
X185292000Y-43877641D01*
X184532000Y-43570359D02*
X184532000Y-43877641D01*
X244067600Y-43570359D02*
X244067600Y-43877641D01*
X243307600Y-43570359D02*
X243307600Y-43877641D01*
X193091410Y-75804707D02*
X192938907Y-75957210D01*
X192582293Y-75295590D02*
X192429790Y-75448093D01*
X193470800Y-43570359D02*
X193470800Y-43877641D01*
X192710800Y-43570359D02*
X192710800Y-43877641D01*
X194535060Y-80096133D02*
X194870593Y-80431666D01*
X193796133Y-80835060D02*
X194131666Y-81170593D01*
X232586800Y-43468759D02*
X232586800Y-43776041D01*
X231826800Y-43468759D02*
X231826800Y-43776041D01*
X200178010Y-71588307D02*
X200025507Y-71740810D01*
X199668893Y-71079190D02*
X199516390Y-71231693D01*
X165683200Y-43621159D02*
X165683200Y-43928441D01*
X164923200Y-43621159D02*
X164923200Y-43928441D01*
X196926707Y-74812990D02*
X197079210Y-74965493D01*
X196417590Y-75322107D02*
X196570093Y-75474610D01*
X211510000Y-39088748D02*
X211510000Y-41411252D01*
X208090000Y-39088748D02*
X208090000Y-41411252D01*
X195071390Y-75676693D02*
X195223893Y-75524190D01*
X195580507Y-76185810D02*
X195733010Y-76033307D01*
X203175210Y-76363507D02*
X203022707Y-76516010D01*
X202666093Y-75854390D02*
X202513590Y-76006893D01*
X200940010Y-74128307D02*
X200787507Y-74280810D01*
X200430893Y-73619190D02*
X200278390Y-73771693D01*
X173811200Y-43722759D02*
X173811200Y-44030041D01*
X173051200Y-43722759D02*
X173051200Y-44030041D01*
X195934990Y-76540293D02*
X196087493Y-76387790D01*
X196444107Y-77049410D02*
X196596610Y-76896907D01*
X201702010Y-74890307D02*
X201549507Y-75042810D01*
X201192893Y-74381190D02*
X201040390Y-74533693D01*
X196798590Y-77403893D02*
X196951093Y-77251390D01*
X197307707Y-77913010D02*
X197460210Y-77760507D01*
X201548493Y-77633610D02*
X201395990Y-77481107D01*
X202057610Y-77124493D02*
X201905107Y-76971990D01*
X193335060Y-81296133D02*
X193670593Y-81631666D01*
X192596133Y-82035060D02*
X192931666Y-82370593D01*
X192773316Y-72417317D02*
X192556035Y-72200036D01*
X193310717Y-71879916D02*
X193093436Y-71662635D01*
X197739507Y-73990979D02*
X197892010Y-74143482D01*
X197230390Y-74500096D02*
X197382893Y-74652599D01*
X224458800Y-43621159D02*
X224458800Y-43928441D01*
X223698800Y-43621159D02*
X223698800Y-43928441D01*
X198501507Y-73235590D02*
X198654010Y-73388093D01*
X197992390Y-73744707D02*
X198144893Y-73897210D01*
X154253200Y-43621159D02*
X154253200Y-43928441D01*
X153493200Y-43621159D02*
X153493200Y-43928441D01*
X194205190Y-73771693D02*
X194357693Y-73619190D01*
X194714307Y-74280810D02*
X194866810Y-74128307D01*
X199211590Y-79816893D02*
X199364093Y-79664390D01*
X199720707Y-80326010D02*
X199873210Y-80173507D01*
X200802682Y-78360999D02*
X200650179Y-78208496D01*
X201311799Y-77851882D02*
X201159296Y-77699379D01*
%LPC*%
D13*
X244043109Y-74068109D03*
X244636218Y-72636218D03*
X244636218Y-75500000D03*
X246068109Y-72043109D03*
D14*
X246068109Y-74068109D03*
D13*
X246068109Y-76093109D03*
X247500000Y-72636218D03*
X247500000Y-75500000D03*
X248093109Y-74068109D03*
D15*
X171058999Y-95082799D03*
D16*
X168518999Y-95082799D03*
X165978999Y-95082799D03*
X163438999Y-95082799D03*
D17*
X154404000Y-31690000D03*
X167104000Y-31690000D03*
D18*
X157193999Y-34229999D03*
D19*
X158210000Y-36010000D03*
X159226000Y-34230000D03*
X160242000Y-36010000D03*
X161258000Y-34230000D03*
X162274000Y-36010000D03*
X163290000Y-34230000D03*
X164306000Y-36010000D03*
X153894000Y-40830000D03*
X156184000Y-40830000D03*
X165324000Y-40830000D03*
X167614000Y-40830000D03*
D20*
X152624000Y-35120000D03*
X168884000Y-35120000D03*
D17*
X173992000Y-31690000D03*
X186692000Y-31690000D03*
D18*
X176781999Y-34229999D03*
D19*
X177798000Y-36010000D03*
X178814000Y-34230000D03*
X179830000Y-36010000D03*
X180846000Y-34230000D03*
X181862000Y-36010000D03*
X182878000Y-34230000D03*
X183894000Y-36010000D03*
X173482000Y-40830000D03*
X175772000Y-40830000D03*
X184912000Y-40830000D03*
X187202000Y-40830000D03*
D20*
X172212000Y-35120000D03*
X188472000Y-35120000D03*
D21*
X229869999Y-89661999D03*
D22*
X229870000Y-95862000D03*
D23*
X234570000Y-92662000D03*
D15*
X185165999Y-94955799D03*
D16*
X187705999Y-94955799D03*
X190245999Y-94955799D03*
X192785999Y-94955799D03*
D17*
X232750000Y-31690000D03*
X245450000Y-31690000D03*
D18*
X235539999Y-34229999D03*
D19*
X236556000Y-36010000D03*
X237572000Y-34230000D03*
X238588000Y-36010000D03*
X239604000Y-34230000D03*
X240620000Y-36010000D03*
X241636000Y-34230000D03*
X242652000Y-36010000D03*
X232240000Y-40830000D03*
X234530000Y-40830000D03*
X243670000Y-40830000D03*
X245960000Y-40830000D03*
D20*
X230970000Y-35120000D03*
X247230000Y-35120000D03*
D17*
X213176000Y-31690000D03*
X225876000Y-31690000D03*
D18*
X215965999Y-34229999D03*
D19*
X216982000Y-36010000D03*
X217998000Y-34230000D03*
X219014000Y-36010000D03*
X220030000Y-34230000D03*
X221046000Y-36010000D03*
X222062000Y-34230000D03*
X223078000Y-36010000D03*
X212666000Y-40830000D03*
X214956000Y-40830000D03*
X224096000Y-40830000D03*
X226386000Y-40830000D03*
D20*
X211396000Y-35120000D03*
X227656000Y-35120000D03*
D13*
X152900000Y-94150000D03*
X153493109Y-92718109D03*
X153493109Y-95581891D03*
X154925000Y-92125000D03*
D14*
X154925000Y-94150000D03*
D13*
X154925000Y-96175000D03*
X156356891Y-92718109D03*
X156356891Y-95581891D03*
X156950000Y-94150000D03*
D17*
X193590000Y-31690000D03*
X206290000Y-31690000D03*
D18*
X196379999Y-34229999D03*
D19*
X197396000Y-36010000D03*
X198412000Y-34230000D03*
X199428000Y-36010000D03*
X200444000Y-34230000D03*
X201460000Y-36010000D03*
X202476000Y-34230000D03*
X203492000Y-36010000D03*
X193080000Y-40830000D03*
X195370000Y-40830000D03*
X204510000Y-40830000D03*
X206800000Y-40830000D03*
D20*
X191810000Y-35120000D03*
X208070000Y-35120000D03*
D13*
X207906891Y-53718109D03*
X208500000Y-52286218D03*
X208500000Y-55150000D03*
X209931891Y-51693109D03*
D14*
X209931891Y-53718109D03*
D13*
X209931891Y-55743109D03*
X211363782Y-52286218D03*
X211363782Y-55150000D03*
X211956891Y-53718109D03*
D24*
X212670000Y-43315600D03*
X212670000Y-44335600D03*
X204520800Y-43264800D03*
X204520800Y-44284800D03*
D25*
X198745789Y-72470189D03*
X199424611Y-73149011D03*
D24*
X184912000Y-43214000D03*
X184912000Y-44234000D03*
X243687600Y-43214000D03*
X243687600Y-44234000D03*
D26*
X193100011Y-75286989D03*
X192421189Y-75965811D03*
D24*
X193090800Y-43214000D03*
X193090800Y-44234000D03*
D27*
X193750000Y-80050000D03*
X194916726Y-81216726D03*
D24*
X232206800Y-43112400D03*
X232206800Y-44132400D03*
D26*
X200186611Y-71070589D03*
X199507789Y-71749411D03*
D24*
X165303200Y-43264800D03*
X165303200Y-44284800D03*
D25*
X196408989Y-74804389D03*
X197087811Y-75483211D03*
D28*
X209800000Y-38200000D03*
X209800000Y-42300000D03*
D29*
X195062789Y-76194411D03*
X195741611Y-75515589D03*
D26*
X203183811Y-75845789D03*
X202504989Y-76524611D03*
X200948611Y-73610589D03*
X200269789Y-74289411D03*
D24*
X173431200Y-43366400D03*
X173431200Y-44386400D03*
D29*
X195926389Y-77058011D03*
X196605211Y-76379189D03*
D26*
X201710611Y-74372589D03*
X201031789Y-75051411D03*
D29*
X196789989Y-77921611D03*
X197468811Y-77242789D03*
D30*
X202066211Y-77642211D03*
X201387389Y-76963389D03*
D27*
X192550000Y-81250000D03*
X193716726Y-82416726D03*
D31*
X193294000Y-72400600D03*
X192572752Y-71679352D03*
D25*
X197221789Y-73982378D03*
X197900611Y-74661200D03*
D24*
X224078800Y-43264800D03*
X224078800Y-44284800D03*
D25*
X197983789Y-73226989D03*
X198662611Y-73905811D03*
D24*
X153873200Y-43264800D03*
X153873200Y-44284800D03*
D29*
X194196589Y-74289411D03*
X194875411Y-73610589D03*
X199202989Y-80334611D03*
X199881811Y-79655789D03*
D30*
X201320400Y-78369600D03*
X200641578Y-77690778D03*
M02*
