G04 #@! TF.GenerationSoftware,KiCad,Pcbnew,(7.0.0)*
G04 #@! TF.CreationDate,2023-06-14T17:50:15+02:00*
G04 #@! TF.ProjectId,Switch ETHERNET,53776974-6368-4204-9554-4845524e4554,rev?*
G04 #@! TF.SameCoordinates,Original*
G04 #@! TF.FileFunction,Soldermask,Bot*
G04 #@! TF.FilePolarity,Negative*
%FSLAX46Y46*%
G04 Gerber Fmt 4.6, Leading zero omitted, Abs format (unit mm)*
G04 Created by KiCad (PCBNEW (7.0.0)) date 2023-06-14 17:50:15*
%MOMM*%
%LPD*%
G01*
G04 APERTURE LIST*
G04 Aperture macros list*
%AMRoundRect*
0 Rectangle with rounded corners*
0 $1 Rounding radius*
0 $2 $3 $4 $5 $6 $7 $8 $9 X,Y pos of 4 corners*
0 Add a 4 corners polygon primitive as box body*
4,1,4,$2,$3,$4,$5,$6,$7,$8,$9,$2,$3,0*
0 Add four circle primitives for the rounded corners*
1,1,$1+$1,$2,$3*
1,1,$1+$1,$4,$5*
1,1,$1+$1,$6,$7*
1,1,$1+$1,$8,$9*
0 Add four rect primitives between the rounded corners*
20,1,$1+$1,$2,$3,$4,$5,0*
20,1,$1+$1,$4,$5,$6,$7,0*
20,1,$1+$1,$6,$7,$8,$9,0*
20,1,$1+$1,$8,$9,$2,$3,0*%
G04 Aperture macros list end*
%ADD10C,0.800000*%
%ADD11C,5.400000*%
%ADD12R,1.700000X1.700000*%
%ADD13O,1.700000X1.700000*%
%ADD14C,3.250000*%
%ADD15R,1.500000X1.500000*%
%ADD16C,1.500000*%
%ADD17C,2.300000*%
%ADD18R,3.500000X3.500000*%
%ADD19RoundRect,0.750000X1.000000X-0.750000X1.000000X0.750000X-1.000000X0.750000X-1.000000X-0.750000X0*%
%ADD20RoundRect,0.875000X0.875000X-0.875000X0.875000X0.875000X-0.875000X0.875000X-0.875000X-0.875000X0*%
%ADD21RoundRect,0.135000X-0.185000X0.135000X-0.185000X-0.135000X0.185000X-0.135000X0.185000X0.135000X0*%
%ADD22RoundRect,0.140000X-0.219203X-0.021213X-0.021213X-0.219203X0.219203X0.021213X0.021213X0.219203X0*%
%ADD23RoundRect,0.140000X-0.021213X0.219203X-0.219203X0.021213X0.021213X-0.219203X0.219203X-0.021213X0*%
%ADD24RoundRect,0.200000X-0.335876X-0.053033X-0.053033X-0.335876X0.335876X0.053033X0.053033X0.335876X0*%
%ADD25RoundRect,0.249999X-1.450001X0.450001X-1.450001X-0.450001X1.450001X-0.450001X1.450001X0.450001X0*%
%ADD26RoundRect,0.140000X0.021213X-0.219203X0.219203X-0.021213X-0.021213X0.219203X-0.219203X0.021213X0*%
%ADD27RoundRect,0.140000X0.219203X0.021213X0.021213X0.219203X-0.219203X-0.021213X-0.021213X-0.219203X0*%
%ADD28RoundRect,0.135000X0.226274X0.035355X0.035355X0.226274X-0.226274X-0.035355X-0.035355X-0.226274X0*%
G04 APERTURE END LIST*
D10*
X244043109Y-74068109D03*
X244636218Y-72636218D03*
X244636218Y-75500000D03*
X246068109Y-72043109D03*
D11*
X246068109Y-74068109D03*
D10*
X246068109Y-76093109D03*
X247500000Y-72636218D03*
X247500000Y-75500000D03*
X248093109Y-74068109D03*
D12*
X171058999Y-95082799D03*
D13*
X168518999Y-95082799D03*
X165978999Y-95082799D03*
X163438999Y-95082799D03*
D14*
X154404000Y-31690000D03*
X167104000Y-31690000D03*
D15*
X157193999Y-34229999D03*
D16*
X158210000Y-36010000D03*
X159226000Y-34230000D03*
X160242000Y-36010000D03*
X161258000Y-34230000D03*
X162274000Y-36010000D03*
X163290000Y-34230000D03*
X164306000Y-36010000D03*
X153894000Y-40830000D03*
X156184000Y-40830000D03*
X165324000Y-40830000D03*
X167614000Y-40830000D03*
D17*
X152624000Y-35120000D03*
X168884000Y-35120000D03*
D14*
X173992000Y-31690000D03*
X186692000Y-31690000D03*
D15*
X176781999Y-34229999D03*
D16*
X177798000Y-36010000D03*
X178814000Y-34230000D03*
X179830000Y-36010000D03*
X180846000Y-34230000D03*
X181862000Y-36010000D03*
X182878000Y-34230000D03*
X183894000Y-36010000D03*
X173482000Y-40830000D03*
X175772000Y-40830000D03*
X184912000Y-40830000D03*
X187202000Y-40830000D03*
D17*
X172212000Y-35120000D03*
X188472000Y-35120000D03*
D18*
X229869999Y-89661999D03*
D19*
X229870000Y-95862000D03*
D20*
X234570000Y-92662000D03*
D12*
X185165999Y-94955799D03*
D13*
X187705999Y-94955799D03*
X190245999Y-94955799D03*
X192785999Y-94955799D03*
D14*
X232750000Y-31690000D03*
X245450000Y-31690000D03*
D15*
X235539999Y-34229999D03*
D16*
X236556000Y-36010000D03*
X237572000Y-34230000D03*
X238588000Y-36010000D03*
X239604000Y-34230000D03*
X240620000Y-36010000D03*
X241636000Y-34230000D03*
X242652000Y-36010000D03*
X232240000Y-40830000D03*
X234530000Y-40830000D03*
X243670000Y-40830000D03*
X245960000Y-40830000D03*
D17*
X230970000Y-35120000D03*
X247230000Y-35120000D03*
D14*
X213176000Y-31690000D03*
X225876000Y-31690000D03*
D15*
X215965999Y-34229999D03*
D16*
X216982000Y-36010000D03*
X217998000Y-34230000D03*
X219014000Y-36010000D03*
X220030000Y-34230000D03*
X221046000Y-36010000D03*
X222062000Y-34230000D03*
X223078000Y-36010000D03*
X212666000Y-40830000D03*
X214956000Y-40830000D03*
X224096000Y-40830000D03*
X226386000Y-40830000D03*
D17*
X211396000Y-35120000D03*
X227656000Y-35120000D03*
D10*
X152900000Y-94150000D03*
X153493109Y-92718109D03*
X153493109Y-95581891D03*
X154925000Y-92125000D03*
D11*
X154925000Y-94150000D03*
D10*
X154925000Y-96175000D03*
X156356891Y-92718109D03*
X156356891Y-95581891D03*
X156950000Y-94150000D03*
D14*
X193590000Y-31690000D03*
X206290000Y-31690000D03*
D15*
X196379999Y-34229999D03*
D16*
X197396000Y-36010000D03*
X198412000Y-34230000D03*
X199428000Y-36010000D03*
X200444000Y-34230000D03*
X201460000Y-36010000D03*
X202476000Y-34230000D03*
X203492000Y-36010000D03*
X193080000Y-40830000D03*
X195370000Y-40830000D03*
X204510000Y-40830000D03*
X206800000Y-40830000D03*
D17*
X191810000Y-35120000D03*
X208070000Y-35120000D03*
D10*
X207906891Y-53718109D03*
X208500000Y-52286218D03*
X208500000Y-55150000D03*
X209931891Y-51693109D03*
D11*
X209931891Y-53718109D03*
D10*
X209931891Y-55743109D03*
X211363782Y-52286218D03*
X211363782Y-55150000D03*
X211956891Y-53718109D03*
D21*
X212670000Y-43315600D03*
X212670000Y-44335600D03*
X204520800Y-43264800D03*
X204520800Y-44284800D03*
D22*
X198745789Y-72470189D03*
X199424611Y-73149011D03*
D21*
X184912000Y-43214000D03*
X184912000Y-44234000D03*
X243687600Y-43214000D03*
X243687600Y-44234000D03*
D23*
X193100011Y-75286989D03*
X192421189Y-75965811D03*
D21*
X193090800Y-43214000D03*
X193090800Y-44234000D03*
D24*
X193750000Y-80050000D03*
X194916726Y-81216726D03*
D21*
X232206800Y-43112400D03*
X232206800Y-44132400D03*
D23*
X200186611Y-71070589D03*
X199507789Y-71749411D03*
D21*
X165303200Y-43264800D03*
X165303200Y-44284800D03*
D22*
X196408989Y-74804389D03*
X197087811Y-75483211D03*
D25*
X209800000Y-38200000D03*
X209800000Y-42300000D03*
D26*
X195062789Y-76194411D03*
X195741611Y-75515589D03*
D23*
X203183811Y-75845789D03*
X202504989Y-76524611D03*
X200948611Y-73610589D03*
X200269789Y-74289411D03*
D21*
X173431200Y-43366400D03*
X173431200Y-44386400D03*
D26*
X195926389Y-77058011D03*
X196605211Y-76379189D03*
D23*
X201710611Y-74372589D03*
X201031789Y-75051411D03*
D26*
X196789989Y-77921611D03*
X197468811Y-77242789D03*
D27*
X202066211Y-77642211D03*
X201387389Y-76963389D03*
D24*
X192550000Y-81250000D03*
X193716726Y-82416726D03*
D28*
X193294000Y-72400600D03*
X192572752Y-71679352D03*
D22*
X197221789Y-73982378D03*
X197900611Y-74661200D03*
D21*
X224078800Y-43264800D03*
X224078800Y-44284800D03*
D22*
X197983789Y-73226989D03*
X198662611Y-73905811D03*
D21*
X153873200Y-43264800D03*
X153873200Y-44284800D03*
D26*
X194196589Y-74289411D03*
X194875411Y-73610589D03*
X199202989Y-80334611D03*
X199881811Y-79655789D03*
D27*
X201320400Y-78369600D03*
X200641578Y-77690778D03*
M02*
