%TF.GenerationSoftware,KiCad,Pcbnew,(7.0.0)*%
%TF.CreationDate,2023-06-14T17:51:45+02:00*%
%TF.ProjectId,Switch ETHERNET,53776974-6368-4204-9554-4845524e4554,rev?*%
%TF.SameCoordinates,Original*%
%TF.FileFunction,Drillmap*%
%TF.FilePolarity,Positive*%
%FSLAX45Y45*%
G04 Gerber Fmt 4.5, Leading zero omitted, Abs format (unit mm)*
G04 Created by KiCad (PCBNEW (7.0.0)) date 2023-06-14 17:51:45*
%MOMM*%
%LPD*%
G01*
G04 APERTURE LIST*
%ADD10C,0.100000*%
%ADD11C,0.200000*%
%ADD12C,0.325000*%
G04 APERTURE END LIST*
D10*
X15000000Y-9700000D02*
G75*
G03*
X15300000Y-10000000I300000J0D01*
G01*
X24700000Y-10000000D02*
G75*
G03*
X25000000Y-9700000I0J300000D01*
G01*
X15300000Y-10000000D02*
X24700000Y-10000000D01*
X25000000Y-9700000D02*
X24999000Y-2876000D01*
X15000000Y-9700000D02*
X15000000Y-2875000D01*
X24699000Y-2576000D02*
X15300000Y-2575000D01*
X24999000Y-2876000D02*
G75*
G03*
X24699000Y-2576000I-300000J0D01*
G01*
X15300000Y-2575000D02*
G75*
G03*
X15000000Y-2875000I0J-300000D01*
G01*
D11*
D12*
X15277900Y-3006500D02*
X15602900Y-3331500D01*
X15602900Y-3006500D02*
X15277900Y-3331500D01*
X16547900Y-3006500D02*
X16872900Y-3331500D01*
X16872900Y-3006500D02*
X16547900Y-3331500D01*
X17236700Y-3006500D02*
X17561700Y-3331500D01*
X17561700Y-3006500D02*
X17236700Y-3331500D01*
X18506700Y-3006500D02*
X18831700Y-3331500D01*
X18831700Y-3006500D02*
X18506700Y-3331500D01*
X19196500Y-3006500D02*
X19521500Y-3331500D01*
X19521500Y-3006500D02*
X19196500Y-3331500D01*
X20466500Y-3006500D02*
X20791500Y-3331500D01*
X20791500Y-3006500D02*
X20466500Y-3331500D01*
X21155100Y-3006500D02*
X21480100Y-3331500D01*
X21480100Y-3006500D02*
X21155100Y-3331500D01*
X22425100Y-3006500D02*
X22750100Y-3331500D01*
X22750100Y-3006500D02*
X22425100Y-3331500D01*
X23112500Y-3006500D02*
X23437500Y-3331500D01*
X23437500Y-3006500D02*
X23112500Y-3331500D01*
X24382500Y-3006500D02*
X24707500Y-3331500D01*
X24707500Y-3006500D02*
X24382500Y-3331500D01*
D11*
X15242619Y-10298476D02*
X15242619Y-10098476D01*
X15242619Y-10098476D02*
X15290238Y-10098476D01*
X15290238Y-10098476D02*
X15318809Y-10108000D01*
X15318809Y-10108000D02*
X15337857Y-10127048D01*
X15337857Y-10127048D02*
X15347381Y-10146095D01*
X15347381Y-10146095D02*
X15356905Y-10184190D01*
X15356905Y-10184190D02*
X15356905Y-10212762D01*
X15356905Y-10212762D02*
X15347381Y-10250857D01*
X15347381Y-10250857D02*
X15337857Y-10269905D01*
X15337857Y-10269905D02*
X15318809Y-10288952D01*
X15318809Y-10288952D02*
X15290238Y-10298476D01*
X15290238Y-10298476D02*
X15242619Y-10298476D01*
X15442619Y-10298476D02*
X15442619Y-10165143D01*
X15442619Y-10203238D02*
X15452143Y-10184190D01*
X15452143Y-10184190D02*
X15461667Y-10174667D01*
X15461667Y-10174667D02*
X15480714Y-10165143D01*
X15480714Y-10165143D02*
X15499762Y-10165143D01*
X15566428Y-10298476D02*
X15566428Y-10165143D01*
X15566428Y-10098476D02*
X15556905Y-10108000D01*
X15556905Y-10108000D02*
X15566428Y-10117524D01*
X15566428Y-10117524D02*
X15575952Y-10108000D01*
X15575952Y-10108000D02*
X15566428Y-10098476D01*
X15566428Y-10098476D02*
X15566428Y-10117524D01*
X15690238Y-10298476D02*
X15671190Y-10288952D01*
X15671190Y-10288952D02*
X15661667Y-10269905D01*
X15661667Y-10269905D02*
X15661667Y-10098476D01*
X15795000Y-10298476D02*
X15775952Y-10288952D01*
X15775952Y-10288952D02*
X15766428Y-10269905D01*
X15766428Y-10269905D02*
X15766428Y-10098476D01*
X15991190Y-10298476D02*
X15991190Y-10098476D01*
X15991190Y-10098476D02*
X16057857Y-10241333D01*
X16057857Y-10241333D02*
X16124524Y-10098476D01*
X16124524Y-10098476D02*
X16124524Y-10298476D01*
X16305476Y-10298476D02*
X16305476Y-10193714D01*
X16305476Y-10193714D02*
X16295952Y-10174667D01*
X16295952Y-10174667D02*
X16276905Y-10165143D01*
X16276905Y-10165143D02*
X16238809Y-10165143D01*
X16238809Y-10165143D02*
X16219762Y-10174667D01*
X16305476Y-10288952D02*
X16286428Y-10298476D01*
X16286428Y-10298476D02*
X16238809Y-10298476D01*
X16238809Y-10298476D02*
X16219762Y-10288952D01*
X16219762Y-10288952D02*
X16210238Y-10269905D01*
X16210238Y-10269905D02*
X16210238Y-10250857D01*
X16210238Y-10250857D02*
X16219762Y-10231810D01*
X16219762Y-10231810D02*
X16238809Y-10222286D01*
X16238809Y-10222286D02*
X16286428Y-10222286D01*
X16286428Y-10222286D02*
X16305476Y-10212762D01*
X16400714Y-10165143D02*
X16400714Y-10365143D01*
X16400714Y-10174667D02*
X16419762Y-10165143D01*
X16419762Y-10165143D02*
X16457857Y-10165143D01*
X16457857Y-10165143D02*
X16476905Y-10174667D01*
X16476905Y-10174667D02*
X16486428Y-10184190D01*
X16486428Y-10184190D02*
X16495952Y-10203238D01*
X16495952Y-10203238D02*
X16495952Y-10260381D01*
X16495952Y-10260381D02*
X16486428Y-10279429D01*
X16486428Y-10279429D02*
X16476905Y-10288952D01*
X16476905Y-10288952D02*
X16457857Y-10298476D01*
X16457857Y-10298476D02*
X16419762Y-10298476D01*
X16419762Y-10298476D02*
X16400714Y-10288952D01*
X16581667Y-10279429D02*
X16591190Y-10288952D01*
X16591190Y-10288952D02*
X16581667Y-10298476D01*
X16581667Y-10298476D02*
X16572143Y-10288952D01*
X16572143Y-10288952D02*
X16581667Y-10279429D01*
X16581667Y-10279429D02*
X16581667Y-10298476D01*
X16581667Y-10174667D02*
X16591190Y-10184190D01*
X16591190Y-10184190D02*
X16581667Y-10193714D01*
X16581667Y-10193714D02*
X16572143Y-10184190D01*
X16572143Y-10184190D02*
X16581667Y-10174667D01*
X16581667Y-10174667D02*
X16581667Y-10193714D01*
X14795000Y-10545000D02*
X14995000Y-10745000D01*
X14995000Y-10545000D02*
X14795000Y-10745000D01*
X15223571Y-10518476D02*
X15347381Y-10518476D01*
X15347381Y-10518476D02*
X15280714Y-10594667D01*
X15280714Y-10594667D02*
X15309286Y-10594667D01*
X15309286Y-10594667D02*
X15328333Y-10604190D01*
X15328333Y-10604190D02*
X15337857Y-10613714D01*
X15337857Y-10613714D02*
X15347381Y-10632762D01*
X15347381Y-10632762D02*
X15347381Y-10680381D01*
X15347381Y-10680381D02*
X15337857Y-10699429D01*
X15337857Y-10699429D02*
X15328333Y-10708952D01*
X15328333Y-10708952D02*
X15309286Y-10718476D01*
X15309286Y-10718476D02*
X15252143Y-10718476D01*
X15252143Y-10718476D02*
X15233095Y-10708952D01*
X15233095Y-10708952D02*
X15223571Y-10699429D01*
X15433095Y-10699429D02*
X15442619Y-10708952D01*
X15442619Y-10708952D02*
X15433095Y-10718476D01*
X15433095Y-10718476D02*
X15423571Y-10708952D01*
X15423571Y-10708952D02*
X15433095Y-10699429D01*
X15433095Y-10699429D02*
X15433095Y-10718476D01*
X15518809Y-10537524D02*
X15528333Y-10528000D01*
X15528333Y-10528000D02*
X15547381Y-10518476D01*
X15547381Y-10518476D02*
X15595000Y-10518476D01*
X15595000Y-10518476D02*
X15614048Y-10528000D01*
X15614048Y-10528000D02*
X15623571Y-10537524D01*
X15623571Y-10537524D02*
X15633095Y-10556571D01*
X15633095Y-10556571D02*
X15633095Y-10575619D01*
X15633095Y-10575619D02*
X15623571Y-10604190D01*
X15623571Y-10604190D02*
X15509286Y-10718476D01*
X15509286Y-10718476D02*
X15633095Y-10718476D01*
X15814048Y-10518476D02*
X15718809Y-10518476D01*
X15718809Y-10518476D02*
X15709286Y-10613714D01*
X15709286Y-10613714D02*
X15718809Y-10604190D01*
X15718809Y-10604190D02*
X15737857Y-10594667D01*
X15737857Y-10594667D02*
X15785476Y-10594667D01*
X15785476Y-10594667D02*
X15804524Y-10604190D01*
X15804524Y-10604190D02*
X15814048Y-10613714D01*
X15814048Y-10613714D02*
X15823571Y-10632762D01*
X15823571Y-10632762D02*
X15823571Y-10680381D01*
X15823571Y-10680381D02*
X15814048Y-10699429D01*
X15814048Y-10699429D02*
X15804524Y-10708952D01*
X15804524Y-10708952D02*
X15785476Y-10718476D01*
X15785476Y-10718476D02*
X15737857Y-10718476D01*
X15737857Y-10718476D02*
X15718809Y-10708952D01*
X15718809Y-10708952D02*
X15709286Y-10699429D01*
X15947381Y-10518476D02*
X15966429Y-10518476D01*
X15966429Y-10518476D02*
X15985476Y-10528000D01*
X15985476Y-10528000D02*
X15995000Y-10537524D01*
X15995000Y-10537524D02*
X16004524Y-10556571D01*
X16004524Y-10556571D02*
X16014048Y-10594667D01*
X16014048Y-10594667D02*
X16014048Y-10642286D01*
X16014048Y-10642286D02*
X16004524Y-10680381D01*
X16004524Y-10680381D02*
X15995000Y-10699429D01*
X15995000Y-10699429D02*
X15985476Y-10708952D01*
X15985476Y-10708952D02*
X15966429Y-10718476D01*
X15966429Y-10718476D02*
X15947381Y-10718476D01*
X15947381Y-10718476D02*
X15928333Y-10708952D01*
X15928333Y-10708952D02*
X15918809Y-10699429D01*
X15918809Y-10699429D02*
X15909286Y-10680381D01*
X15909286Y-10680381D02*
X15899762Y-10642286D01*
X15899762Y-10642286D02*
X15899762Y-10594667D01*
X15899762Y-10594667D02*
X15909286Y-10556571D01*
X15909286Y-10556571D02*
X15918809Y-10537524D01*
X15918809Y-10537524D02*
X15928333Y-10528000D01*
X15928333Y-10528000D02*
X15947381Y-10518476D01*
X16099762Y-10718476D02*
X16099762Y-10585143D01*
X16099762Y-10604190D02*
X16109286Y-10594667D01*
X16109286Y-10594667D02*
X16128333Y-10585143D01*
X16128333Y-10585143D02*
X16156905Y-10585143D01*
X16156905Y-10585143D02*
X16175952Y-10594667D01*
X16175952Y-10594667D02*
X16185476Y-10613714D01*
X16185476Y-10613714D02*
X16185476Y-10718476D01*
X16185476Y-10613714D02*
X16195000Y-10594667D01*
X16195000Y-10594667D02*
X16214048Y-10585143D01*
X16214048Y-10585143D02*
X16242619Y-10585143D01*
X16242619Y-10585143D02*
X16261667Y-10594667D01*
X16261667Y-10594667D02*
X16271190Y-10613714D01*
X16271190Y-10613714D02*
X16271190Y-10718476D01*
X16366429Y-10718476D02*
X16366429Y-10585143D01*
X16366429Y-10604190D02*
X16375952Y-10594667D01*
X16375952Y-10594667D02*
X16395000Y-10585143D01*
X16395000Y-10585143D02*
X16423571Y-10585143D01*
X16423571Y-10585143D02*
X16442619Y-10594667D01*
X16442619Y-10594667D02*
X16452143Y-10613714D01*
X16452143Y-10613714D02*
X16452143Y-10718476D01*
X16452143Y-10613714D02*
X16461667Y-10594667D01*
X16461667Y-10594667D02*
X16480714Y-10585143D01*
X16480714Y-10585143D02*
X16509286Y-10585143D01*
X16509286Y-10585143D02*
X16528333Y-10594667D01*
X16528333Y-10594667D02*
X16537857Y-10613714D01*
X16537857Y-10613714D02*
X16537857Y-10718476D01*
X16895952Y-10508952D02*
X16724524Y-10766095D01*
X17120714Y-10518476D02*
X17139762Y-10518476D01*
X17139762Y-10518476D02*
X17158810Y-10528000D01*
X17158810Y-10528000D02*
X17168333Y-10537524D01*
X17168333Y-10537524D02*
X17177857Y-10556571D01*
X17177857Y-10556571D02*
X17187381Y-10594667D01*
X17187381Y-10594667D02*
X17187381Y-10642286D01*
X17187381Y-10642286D02*
X17177857Y-10680381D01*
X17177857Y-10680381D02*
X17168333Y-10699429D01*
X17168333Y-10699429D02*
X17158810Y-10708952D01*
X17158810Y-10708952D02*
X17139762Y-10718476D01*
X17139762Y-10718476D02*
X17120714Y-10718476D01*
X17120714Y-10718476D02*
X17101667Y-10708952D01*
X17101667Y-10708952D02*
X17092143Y-10699429D01*
X17092143Y-10699429D02*
X17082619Y-10680381D01*
X17082619Y-10680381D02*
X17073095Y-10642286D01*
X17073095Y-10642286D02*
X17073095Y-10594667D01*
X17073095Y-10594667D02*
X17082619Y-10556571D01*
X17082619Y-10556571D02*
X17092143Y-10537524D01*
X17092143Y-10537524D02*
X17101667Y-10528000D01*
X17101667Y-10528000D02*
X17120714Y-10518476D01*
X17273095Y-10699429D02*
X17282619Y-10708952D01*
X17282619Y-10708952D02*
X17273095Y-10718476D01*
X17273095Y-10718476D02*
X17263572Y-10708952D01*
X17263572Y-10708952D02*
X17273095Y-10699429D01*
X17273095Y-10699429D02*
X17273095Y-10718476D01*
X17473095Y-10718476D02*
X17358810Y-10718476D01*
X17415952Y-10718476D02*
X17415952Y-10518476D01*
X17415952Y-10518476D02*
X17396905Y-10547048D01*
X17396905Y-10547048D02*
X17377857Y-10566095D01*
X17377857Y-10566095D02*
X17358810Y-10575619D01*
X17549286Y-10537524D02*
X17558810Y-10528000D01*
X17558810Y-10528000D02*
X17577857Y-10518476D01*
X17577857Y-10518476D02*
X17625476Y-10518476D01*
X17625476Y-10518476D02*
X17644524Y-10528000D01*
X17644524Y-10528000D02*
X17654048Y-10537524D01*
X17654048Y-10537524D02*
X17663572Y-10556571D01*
X17663572Y-10556571D02*
X17663572Y-10575619D01*
X17663572Y-10575619D02*
X17654048Y-10604190D01*
X17654048Y-10604190D02*
X17539762Y-10718476D01*
X17539762Y-10718476D02*
X17663572Y-10718476D01*
X17777857Y-10604190D02*
X17758810Y-10594667D01*
X17758810Y-10594667D02*
X17749286Y-10585143D01*
X17749286Y-10585143D02*
X17739762Y-10566095D01*
X17739762Y-10566095D02*
X17739762Y-10556571D01*
X17739762Y-10556571D02*
X17749286Y-10537524D01*
X17749286Y-10537524D02*
X17758810Y-10528000D01*
X17758810Y-10528000D02*
X17777857Y-10518476D01*
X17777857Y-10518476D02*
X17815953Y-10518476D01*
X17815953Y-10518476D02*
X17835000Y-10528000D01*
X17835000Y-10528000D02*
X17844524Y-10537524D01*
X17844524Y-10537524D02*
X17854048Y-10556571D01*
X17854048Y-10556571D02*
X17854048Y-10566095D01*
X17854048Y-10566095D02*
X17844524Y-10585143D01*
X17844524Y-10585143D02*
X17835000Y-10594667D01*
X17835000Y-10594667D02*
X17815953Y-10604190D01*
X17815953Y-10604190D02*
X17777857Y-10604190D01*
X17777857Y-10604190D02*
X17758810Y-10613714D01*
X17758810Y-10613714D02*
X17749286Y-10623238D01*
X17749286Y-10623238D02*
X17739762Y-10642286D01*
X17739762Y-10642286D02*
X17739762Y-10680381D01*
X17739762Y-10680381D02*
X17749286Y-10699429D01*
X17749286Y-10699429D02*
X17758810Y-10708952D01*
X17758810Y-10708952D02*
X17777857Y-10718476D01*
X17777857Y-10718476D02*
X17815953Y-10718476D01*
X17815953Y-10718476D02*
X17835000Y-10708952D01*
X17835000Y-10708952D02*
X17844524Y-10699429D01*
X17844524Y-10699429D02*
X17854048Y-10680381D01*
X17854048Y-10680381D02*
X17854048Y-10642286D01*
X17854048Y-10642286D02*
X17844524Y-10623238D01*
X17844524Y-10623238D02*
X17835000Y-10613714D01*
X17835000Y-10613714D02*
X17815953Y-10604190D01*
X17977857Y-10518476D02*
X17996905Y-10518476D01*
X17996905Y-10518476D02*
X18015953Y-10528000D01*
X18015953Y-10528000D02*
X18025476Y-10537524D01*
X18025476Y-10537524D02*
X18035000Y-10556571D01*
X18035000Y-10556571D02*
X18044524Y-10594667D01*
X18044524Y-10594667D02*
X18044524Y-10642286D01*
X18044524Y-10642286D02*
X18035000Y-10680381D01*
X18035000Y-10680381D02*
X18025476Y-10699429D01*
X18025476Y-10699429D02*
X18015953Y-10708952D01*
X18015953Y-10708952D02*
X17996905Y-10718476D01*
X17996905Y-10718476D02*
X17977857Y-10718476D01*
X17977857Y-10718476D02*
X17958810Y-10708952D01*
X17958810Y-10708952D02*
X17949286Y-10699429D01*
X17949286Y-10699429D02*
X17939762Y-10680381D01*
X17939762Y-10680381D02*
X17930238Y-10642286D01*
X17930238Y-10642286D02*
X17930238Y-10594667D01*
X17930238Y-10594667D02*
X17939762Y-10556571D01*
X17939762Y-10556571D02*
X17949286Y-10537524D01*
X17949286Y-10537524D02*
X17958810Y-10528000D01*
X17958810Y-10528000D02*
X17977857Y-10518476D01*
X18120714Y-10518476D02*
X18120714Y-10556571D01*
X18196905Y-10518476D02*
X18196905Y-10556571D01*
X18459762Y-10794667D02*
X18450238Y-10785143D01*
X18450238Y-10785143D02*
X18431191Y-10756571D01*
X18431191Y-10756571D02*
X18421667Y-10737524D01*
X18421667Y-10737524D02*
X18412143Y-10708952D01*
X18412143Y-10708952D02*
X18402619Y-10661333D01*
X18402619Y-10661333D02*
X18402619Y-10623238D01*
X18402619Y-10623238D02*
X18412143Y-10575619D01*
X18412143Y-10575619D02*
X18421667Y-10547048D01*
X18421667Y-10547048D02*
X18431191Y-10528000D01*
X18431191Y-10528000D02*
X18450238Y-10499429D01*
X18450238Y-10499429D02*
X18459762Y-10489905D01*
X18640714Y-10718476D02*
X18526429Y-10718476D01*
X18583572Y-10718476D02*
X18583572Y-10518476D01*
X18583572Y-10518476D02*
X18564524Y-10547048D01*
X18564524Y-10547048D02*
X18545476Y-10566095D01*
X18545476Y-10566095D02*
X18526429Y-10575619D01*
X18764524Y-10518476D02*
X18783572Y-10518476D01*
X18783572Y-10518476D02*
X18802619Y-10528000D01*
X18802619Y-10528000D02*
X18812143Y-10537524D01*
X18812143Y-10537524D02*
X18821667Y-10556571D01*
X18821667Y-10556571D02*
X18831191Y-10594667D01*
X18831191Y-10594667D02*
X18831191Y-10642286D01*
X18831191Y-10642286D02*
X18821667Y-10680381D01*
X18821667Y-10680381D02*
X18812143Y-10699429D01*
X18812143Y-10699429D02*
X18802619Y-10708952D01*
X18802619Y-10708952D02*
X18783572Y-10718476D01*
X18783572Y-10718476D02*
X18764524Y-10718476D01*
X18764524Y-10718476D02*
X18745476Y-10708952D01*
X18745476Y-10708952D02*
X18735953Y-10699429D01*
X18735953Y-10699429D02*
X18726429Y-10680381D01*
X18726429Y-10680381D02*
X18716905Y-10642286D01*
X18716905Y-10642286D02*
X18716905Y-10594667D01*
X18716905Y-10594667D02*
X18726429Y-10556571D01*
X18726429Y-10556571D02*
X18735953Y-10537524D01*
X18735953Y-10537524D02*
X18745476Y-10528000D01*
X18745476Y-10528000D02*
X18764524Y-10518476D01*
X19036905Y-10718476D02*
X19036905Y-10518476D01*
X19122619Y-10718476D02*
X19122619Y-10613714D01*
X19122619Y-10613714D02*
X19113095Y-10594667D01*
X19113095Y-10594667D02*
X19094048Y-10585143D01*
X19094048Y-10585143D02*
X19065476Y-10585143D01*
X19065476Y-10585143D02*
X19046429Y-10594667D01*
X19046429Y-10594667D02*
X19036905Y-10604190D01*
X19246429Y-10718476D02*
X19227381Y-10708952D01*
X19227381Y-10708952D02*
X19217857Y-10699429D01*
X19217857Y-10699429D02*
X19208334Y-10680381D01*
X19208334Y-10680381D02*
X19208334Y-10623238D01*
X19208334Y-10623238D02*
X19217857Y-10604190D01*
X19217857Y-10604190D02*
X19227381Y-10594667D01*
X19227381Y-10594667D02*
X19246429Y-10585143D01*
X19246429Y-10585143D02*
X19275000Y-10585143D01*
X19275000Y-10585143D02*
X19294048Y-10594667D01*
X19294048Y-10594667D02*
X19303572Y-10604190D01*
X19303572Y-10604190D02*
X19313095Y-10623238D01*
X19313095Y-10623238D02*
X19313095Y-10680381D01*
X19313095Y-10680381D02*
X19303572Y-10699429D01*
X19303572Y-10699429D02*
X19294048Y-10708952D01*
X19294048Y-10708952D02*
X19275000Y-10718476D01*
X19275000Y-10718476D02*
X19246429Y-10718476D01*
X19427381Y-10718476D02*
X19408334Y-10708952D01*
X19408334Y-10708952D02*
X19398810Y-10689905D01*
X19398810Y-10689905D02*
X19398810Y-10518476D01*
X19579762Y-10708952D02*
X19560715Y-10718476D01*
X19560715Y-10718476D02*
X19522619Y-10718476D01*
X19522619Y-10718476D02*
X19503572Y-10708952D01*
X19503572Y-10708952D02*
X19494048Y-10689905D01*
X19494048Y-10689905D02*
X19494048Y-10613714D01*
X19494048Y-10613714D02*
X19503572Y-10594667D01*
X19503572Y-10594667D02*
X19522619Y-10585143D01*
X19522619Y-10585143D02*
X19560715Y-10585143D01*
X19560715Y-10585143D02*
X19579762Y-10594667D01*
X19579762Y-10594667D02*
X19589286Y-10613714D01*
X19589286Y-10613714D02*
X19589286Y-10632762D01*
X19589286Y-10632762D02*
X19494048Y-10651810D01*
X19665476Y-10708952D02*
X19684524Y-10718476D01*
X19684524Y-10718476D02*
X19722619Y-10718476D01*
X19722619Y-10718476D02*
X19741667Y-10708952D01*
X19741667Y-10708952D02*
X19751191Y-10689905D01*
X19751191Y-10689905D02*
X19751191Y-10680381D01*
X19751191Y-10680381D02*
X19741667Y-10661333D01*
X19741667Y-10661333D02*
X19722619Y-10651810D01*
X19722619Y-10651810D02*
X19694048Y-10651810D01*
X19694048Y-10651810D02*
X19675000Y-10642286D01*
X19675000Y-10642286D02*
X19665476Y-10623238D01*
X19665476Y-10623238D02*
X19665476Y-10613714D01*
X19665476Y-10613714D02*
X19675000Y-10594667D01*
X19675000Y-10594667D02*
X19694048Y-10585143D01*
X19694048Y-10585143D02*
X19722619Y-10585143D01*
X19722619Y-10585143D02*
X19741667Y-10594667D01*
X19817857Y-10794667D02*
X19827381Y-10785143D01*
X19827381Y-10785143D02*
X19846429Y-10756571D01*
X19846429Y-10756571D02*
X19855953Y-10737524D01*
X19855953Y-10737524D02*
X19865476Y-10708952D01*
X19865476Y-10708952D02*
X19875000Y-10661333D01*
X19875000Y-10661333D02*
X19875000Y-10623238D01*
X19875000Y-10623238D02*
X19865476Y-10575619D01*
X19865476Y-10575619D02*
X19855953Y-10547048D01*
X19855953Y-10547048D02*
X19846429Y-10528000D01*
X19846429Y-10528000D02*
X19827381Y-10499429D01*
X19827381Y-10499429D02*
X19817857Y-10489905D01*
X20147381Y-10794667D02*
X20137857Y-10785143D01*
X20137857Y-10785143D02*
X20118810Y-10756571D01*
X20118810Y-10756571D02*
X20109286Y-10737524D01*
X20109286Y-10737524D02*
X20099762Y-10708952D01*
X20099762Y-10708952D02*
X20090238Y-10661333D01*
X20090238Y-10661333D02*
X20090238Y-10623238D01*
X20090238Y-10623238D02*
X20099762Y-10575619D01*
X20099762Y-10575619D02*
X20109286Y-10547048D01*
X20109286Y-10547048D02*
X20118810Y-10528000D01*
X20118810Y-10528000D02*
X20137857Y-10499429D01*
X20137857Y-10499429D02*
X20147381Y-10489905D01*
X20223572Y-10585143D02*
X20223572Y-10718476D01*
X20223572Y-10604190D02*
X20233095Y-10594667D01*
X20233095Y-10594667D02*
X20252143Y-10585143D01*
X20252143Y-10585143D02*
X20280715Y-10585143D01*
X20280715Y-10585143D02*
X20299762Y-10594667D01*
X20299762Y-10594667D02*
X20309286Y-10613714D01*
X20309286Y-10613714D02*
X20309286Y-10718476D01*
X20433095Y-10718476D02*
X20414048Y-10708952D01*
X20414048Y-10708952D02*
X20404524Y-10699429D01*
X20404524Y-10699429D02*
X20395000Y-10680381D01*
X20395000Y-10680381D02*
X20395000Y-10623238D01*
X20395000Y-10623238D02*
X20404524Y-10604190D01*
X20404524Y-10604190D02*
X20414048Y-10594667D01*
X20414048Y-10594667D02*
X20433095Y-10585143D01*
X20433095Y-10585143D02*
X20461667Y-10585143D01*
X20461667Y-10585143D02*
X20480715Y-10594667D01*
X20480715Y-10594667D02*
X20490238Y-10604190D01*
X20490238Y-10604190D02*
X20499762Y-10623238D01*
X20499762Y-10623238D02*
X20499762Y-10680381D01*
X20499762Y-10680381D02*
X20490238Y-10699429D01*
X20490238Y-10699429D02*
X20480715Y-10708952D01*
X20480715Y-10708952D02*
X20461667Y-10718476D01*
X20461667Y-10718476D02*
X20433095Y-10718476D01*
X20556905Y-10585143D02*
X20633095Y-10585143D01*
X20585476Y-10518476D02*
X20585476Y-10689905D01*
X20585476Y-10689905D02*
X20595000Y-10708952D01*
X20595000Y-10708952D02*
X20614048Y-10718476D01*
X20614048Y-10718476D02*
X20633095Y-10718476D01*
X20819762Y-10585143D02*
X20819762Y-10785143D01*
X20819762Y-10594667D02*
X20838810Y-10585143D01*
X20838810Y-10585143D02*
X20876905Y-10585143D01*
X20876905Y-10585143D02*
X20895953Y-10594667D01*
X20895953Y-10594667D02*
X20905476Y-10604190D01*
X20905476Y-10604190D02*
X20915000Y-10623238D01*
X20915000Y-10623238D02*
X20915000Y-10680381D01*
X20915000Y-10680381D02*
X20905476Y-10699429D01*
X20905476Y-10699429D02*
X20895953Y-10708952D01*
X20895953Y-10708952D02*
X20876905Y-10718476D01*
X20876905Y-10718476D02*
X20838810Y-10718476D01*
X20838810Y-10718476D02*
X20819762Y-10708952D01*
X21029286Y-10718476D02*
X21010238Y-10708952D01*
X21010238Y-10708952D02*
X21000715Y-10689905D01*
X21000715Y-10689905D02*
X21000715Y-10518476D01*
X21191191Y-10718476D02*
X21191191Y-10613714D01*
X21191191Y-10613714D02*
X21181667Y-10594667D01*
X21181667Y-10594667D02*
X21162619Y-10585143D01*
X21162619Y-10585143D02*
X21124524Y-10585143D01*
X21124524Y-10585143D02*
X21105476Y-10594667D01*
X21191191Y-10708952D02*
X21172143Y-10718476D01*
X21172143Y-10718476D02*
X21124524Y-10718476D01*
X21124524Y-10718476D02*
X21105476Y-10708952D01*
X21105476Y-10708952D02*
X21095953Y-10689905D01*
X21095953Y-10689905D02*
X21095953Y-10670857D01*
X21095953Y-10670857D02*
X21105476Y-10651810D01*
X21105476Y-10651810D02*
X21124524Y-10642286D01*
X21124524Y-10642286D02*
X21172143Y-10642286D01*
X21172143Y-10642286D02*
X21191191Y-10632762D01*
X21257857Y-10585143D02*
X21334048Y-10585143D01*
X21286429Y-10518476D02*
X21286429Y-10689905D01*
X21286429Y-10689905D02*
X21295953Y-10708952D01*
X21295953Y-10708952D02*
X21315000Y-10718476D01*
X21315000Y-10718476D02*
X21334048Y-10718476D01*
X21476905Y-10708952D02*
X21457857Y-10718476D01*
X21457857Y-10718476D02*
X21419762Y-10718476D01*
X21419762Y-10718476D02*
X21400715Y-10708952D01*
X21400715Y-10708952D02*
X21391191Y-10689905D01*
X21391191Y-10689905D02*
X21391191Y-10613714D01*
X21391191Y-10613714D02*
X21400715Y-10594667D01*
X21400715Y-10594667D02*
X21419762Y-10585143D01*
X21419762Y-10585143D02*
X21457857Y-10585143D01*
X21457857Y-10585143D02*
X21476905Y-10594667D01*
X21476905Y-10594667D02*
X21486429Y-10613714D01*
X21486429Y-10613714D02*
X21486429Y-10632762D01*
X21486429Y-10632762D02*
X21391191Y-10651810D01*
X21657857Y-10718476D02*
X21657857Y-10518476D01*
X21657857Y-10708952D02*
X21638810Y-10718476D01*
X21638810Y-10718476D02*
X21600715Y-10718476D01*
X21600715Y-10718476D02*
X21581667Y-10708952D01*
X21581667Y-10708952D02*
X21572143Y-10699429D01*
X21572143Y-10699429D02*
X21562619Y-10680381D01*
X21562619Y-10680381D02*
X21562619Y-10623238D01*
X21562619Y-10623238D02*
X21572143Y-10604190D01*
X21572143Y-10604190D02*
X21581667Y-10594667D01*
X21581667Y-10594667D02*
X21600715Y-10585143D01*
X21600715Y-10585143D02*
X21638810Y-10585143D01*
X21638810Y-10585143D02*
X21657857Y-10594667D01*
X21734048Y-10794667D02*
X21743572Y-10785143D01*
X21743572Y-10785143D02*
X21762619Y-10756571D01*
X21762619Y-10756571D02*
X21772143Y-10737524D01*
X21772143Y-10737524D02*
X21781667Y-10708952D01*
X21781667Y-10708952D02*
X21791191Y-10661333D01*
X21791191Y-10661333D02*
X21791191Y-10623238D01*
X21791191Y-10623238D02*
X21781667Y-10575619D01*
X21781667Y-10575619D02*
X21772143Y-10547048D01*
X21772143Y-10547048D02*
X21762619Y-10528000D01*
X21762619Y-10528000D02*
X21743572Y-10499429D01*
X21743572Y-10499429D02*
X21734048Y-10489905D01*
M02*
