%TF.GenerationSoftware,KiCad,Pcbnew,(7.0.0)*%
%TF.CreationDate,2023-06-14T17:51:45+02:00*%
%TF.ProjectId,Switch ETHERNET,53776974-6368-4204-9554-4845524e4554,rev?*%
%TF.SameCoordinates,Original*%
%TF.FileFunction,Drillmap*%
%TF.FilePolarity,Positive*%
%FSLAX45Y45*%
G04 Gerber Fmt 4.5, Leading zero omitted, Abs format (unit mm)*
G04 Created by KiCad (PCBNEW (7.0.0)) date 2023-06-14 17:51:45*
%MOMM*%
%LPD*%
G01*
G04 APERTURE LIST*
%ADD10C,0.100000*%
%ADD11C,0.200000*%
%ADD12C,0.020000*%
%ADD13C,0.050000*%
%ADD14C,0.089000*%
%ADD15C,0.157000*%
%ADD16C,0.270000*%
G04 APERTURE END LIST*
D10*
X15000000Y-9700000D02*
G75*
G03*
X15300000Y-10000000I300000J0D01*
G01*
X24700000Y-10000000D02*
G75*
G03*
X25000000Y-9700000I0J300000D01*
G01*
X15300000Y-10000000D02*
X24700000Y-10000000D01*
X25000000Y-9700000D02*
X24999000Y-2876000D01*
X15000000Y-9700000D02*
X15000000Y-2875000D01*
X24699000Y-2576000D02*
X15300000Y-2575000D01*
X24999000Y-2876000D02*
G75*
G03*
X24699000Y-2576000I-300000J0D01*
G01*
X15300000Y-2575000D02*
G75*
G03*
X15000000Y-2875000I0J-300000D01*
G01*
D11*
D12*
X15230000Y-2813000D02*
X15250000Y-2833000D01*
X15250000Y-2813000D02*
X15230000Y-2833000D01*
X15230000Y-3321000D02*
X15250000Y-3341000D01*
X15250000Y-3321000D02*
X15230000Y-3341000D01*
X15230000Y-4845000D02*
X15250000Y-4865000D01*
X15250000Y-4845000D02*
X15230000Y-4865000D01*
X15230000Y-5353000D02*
X15250000Y-5373000D01*
X15250000Y-5353000D02*
X15230000Y-5373000D01*
X15230000Y-5861000D02*
X15250000Y-5881000D01*
X15250000Y-5861000D02*
X15230000Y-5881000D01*
X15230000Y-6369000D02*
X15250000Y-6389000D01*
X15250000Y-6369000D02*
X15230000Y-6389000D01*
X15230000Y-6877000D02*
X15250000Y-6897000D01*
X15250000Y-6877000D02*
X15230000Y-6897000D01*
X15230000Y-7410000D02*
X15250000Y-7430000D01*
X15250000Y-7410000D02*
X15230000Y-7430000D01*
X15230000Y-7893000D02*
X15250000Y-7913000D01*
X15250000Y-7893000D02*
X15230000Y-7913000D01*
X15230000Y-8401000D02*
X15250000Y-8421000D01*
X15250000Y-8401000D02*
X15230000Y-8421000D01*
X15230000Y-8909000D02*
X15250000Y-8929000D01*
X15250000Y-8909000D02*
X15230000Y-8929000D01*
X15484000Y-8655000D02*
X15504000Y-8675000D01*
X15504000Y-8655000D02*
X15484000Y-8675000D01*
X15524640Y-4347160D02*
X15544640Y-4367160D01*
X15544640Y-4347160D02*
X15524640Y-4367160D01*
X15738000Y-2813000D02*
X15758000Y-2833000D01*
X15758000Y-2813000D02*
X15738000Y-2833000D01*
X15738000Y-7893000D02*
X15758000Y-7913000D01*
X15758000Y-7893000D02*
X15738000Y-7913000D01*
X15738000Y-8909000D02*
X15758000Y-8929000D01*
X15758000Y-8909000D02*
X15738000Y-8929000D01*
X15740000Y-8415000D02*
X15760000Y-8435000D01*
X15760000Y-8415000D02*
X15740000Y-8435000D01*
X15743000Y-5106000D02*
X15763000Y-5126000D01*
X15763000Y-5106000D02*
X15743000Y-5126000D01*
X15743000Y-5868000D02*
X15763000Y-5888000D01*
X15763000Y-5868000D02*
X15743000Y-5888000D01*
X15890400Y-6851600D02*
X15910400Y-6871600D01*
X15910400Y-6851600D02*
X15890400Y-6871600D01*
X15905640Y-4344620D02*
X15925640Y-4364620D01*
X15925640Y-4344620D02*
X15905640Y-4364620D01*
X15992000Y-3067000D02*
X16012000Y-3087000D01*
X16012000Y-3067000D02*
X15992000Y-3087000D01*
X15992000Y-7639000D02*
X16012000Y-7659000D01*
X16012000Y-7639000D02*
X15992000Y-7659000D01*
X15992000Y-8655000D02*
X16012000Y-8675000D01*
X16012000Y-8655000D02*
X15992000Y-8675000D01*
X15992000Y-9163000D02*
X16012000Y-9183000D01*
X16012000Y-9163000D02*
X15992000Y-9183000D01*
X15992000Y-9671000D02*
X16012000Y-9691000D01*
X16012000Y-9671000D02*
X15992000Y-9691000D01*
X16131700Y-4339540D02*
X16151700Y-4359540D01*
X16151700Y-4339540D02*
X16131700Y-4359540D01*
X16157100Y-7118300D02*
X16177100Y-7138300D01*
X16177100Y-7118300D02*
X16157100Y-7138300D01*
X16246000Y-2813000D02*
X16266000Y-2833000D01*
X16266000Y-2813000D02*
X16246000Y-2833000D01*
X16246000Y-3321000D02*
X16266000Y-3341000D01*
X16266000Y-3321000D02*
X16246000Y-3341000D01*
X16246000Y-7893000D02*
X16266000Y-7913000D01*
X16266000Y-7893000D02*
X16246000Y-7913000D01*
X16246000Y-8909000D02*
X16266000Y-8929000D01*
X16266000Y-8909000D02*
X16246000Y-8929000D01*
X16251000Y-5106000D02*
X16271000Y-5126000D01*
X16271000Y-5106000D02*
X16251000Y-5126000D01*
X16251000Y-5868000D02*
X16271000Y-5888000D01*
X16271000Y-5868000D02*
X16251000Y-5888000D01*
X16436500Y-7385000D02*
X16456500Y-7405000D01*
X16456500Y-7385000D02*
X16436500Y-7405000D01*
X16500000Y-3067000D02*
X16520000Y-3087000D01*
X16520000Y-3067000D02*
X16500000Y-3087000D01*
X16500000Y-6877000D02*
X16520000Y-6897000D01*
X16520000Y-6877000D02*
X16500000Y-6897000D01*
X16500000Y-8655000D02*
X16520000Y-8675000D01*
X16520000Y-8655000D02*
X16500000Y-8675000D01*
X16500000Y-9671000D02*
X16520000Y-9691000D01*
X16520000Y-9671000D02*
X16500000Y-9691000D01*
X16639700Y-7600900D02*
X16659700Y-7620900D01*
X16659700Y-7600900D02*
X16639700Y-7620900D01*
X16665100Y-4344620D02*
X16685100Y-4364620D01*
X16685100Y-4344620D02*
X16665100Y-4364620D01*
X16754000Y-2813000D02*
X16774000Y-2833000D01*
X16774000Y-2813000D02*
X16754000Y-2833000D01*
X16754000Y-7131000D02*
X16774000Y-7151000D01*
X16774000Y-7131000D02*
X16754000Y-7151000D01*
X16759000Y-5360000D02*
X16779000Y-5380000D01*
X16779000Y-5360000D02*
X16759000Y-5380000D01*
X16759000Y-5868000D02*
X16779000Y-5888000D01*
X16779000Y-5868000D02*
X16759000Y-5888000D01*
X16893700Y-6661100D02*
X16913700Y-6681100D01*
X16913700Y-6661100D02*
X16893700Y-6681100D01*
X17008000Y-7385000D02*
X17028000Y-7405000D01*
X17028000Y-7385000D02*
X17008000Y-7405000D01*
X17008000Y-8655000D02*
X17028000Y-8675000D01*
X17028000Y-8655000D02*
X17008000Y-8675000D01*
X17008000Y-9671000D02*
X17028000Y-9691000D01*
X17028000Y-9671000D02*
X17008000Y-9691000D01*
X17084200Y-6877000D02*
X17104200Y-6897000D01*
X17104200Y-6877000D02*
X17084200Y-6897000D01*
X17180000Y-3995000D02*
X17200000Y-4015000D01*
X17200000Y-3995000D02*
X17180000Y-4015000D01*
X17262000Y-2813000D02*
X17282000Y-2833000D01*
X17282000Y-2813000D02*
X17262000Y-2833000D01*
X17262000Y-4616400D02*
X17282000Y-4636400D01*
X17282000Y-4616400D02*
X17262000Y-4636400D01*
X17262000Y-8909000D02*
X17282000Y-8929000D01*
X17282000Y-8909000D02*
X17262000Y-8929000D01*
X17439800Y-7194500D02*
X17459800Y-7214500D01*
X17459800Y-7194500D02*
X17439800Y-7214500D01*
X17465200Y-7804100D02*
X17485200Y-7824100D01*
X17485200Y-7804100D02*
X17465200Y-7824100D01*
X17477900Y-8105300D02*
X17497900Y-8125300D01*
X17497900Y-8105300D02*
X17477900Y-8125300D01*
X17516000Y-5099000D02*
X17536000Y-5119000D01*
X17536000Y-5099000D02*
X17516000Y-5119000D01*
X17516000Y-5607000D02*
X17536000Y-5627000D01*
X17536000Y-5607000D02*
X17516000Y-5627000D01*
X17516000Y-6115000D02*
X17536000Y-6135000D01*
X17536000Y-6115000D02*
X17516000Y-6135000D01*
X17516000Y-8655000D02*
X17536000Y-8675000D01*
X17536000Y-8655000D02*
X17516000Y-8675000D01*
X17516000Y-9163000D02*
X17536000Y-9183000D01*
X17536000Y-9163000D02*
X17516000Y-9183000D01*
X17516000Y-9671000D02*
X17536000Y-9691000D01*
X17536000Y-9671000D02*
X17516000Y-9691000D01*
X17757300Y-7562800D02*
X17777300Y-7582800D01*
X17777300Y-7562800D02*
X17757300Y-7582800D01*
X17770000Y-2813000D02*
X17790000Y-2833000D01*
X17790000Y-2813000D02*
X17770000Y-2833000D01*
X17770000Y-6623000D02*
X17790000Y-6643000D01*
X17790000Y-6623000D02*
X17770000Y-6643000D01*
X17770000Y-8909000D02*
X17790000Y-8929000D01*
X17790000Y-8909000D02*
X17770000Y-8929000D01*
X17800000Y-4244500D02*
X17820000Y-4264500D01*
X17820000Y-4244500D02*
X17800000Y-4264500D01*
X17985900Y-8092600D02*
X18005900Y-8112600D01*
X18005900Y-8092600D02*
X17985900Y-8112600D01*
X18024000Y-3067000D02*
X18044000Y-3087000D01*
X18044000Y-3067000D02*
X18024000Y-3087000D01*
X18024000Y-6877000D02*
X18044000Y-6897000D01*
X18044000Y-6877000D02*
X18024000Y-6897000D01*
X18024000Y-9671000D02*
X18044000Y-9691000D01*
X18044000Y-9671000D02*
X18024000Y-9691000D01*
X18029000Y-5106000D02*
X18049000Y-5126000D01*
X18049000Y-5106000D02*
X18029000Y-5126000D01*
X18029000Y-5614000D02*
X18049000Y-5634000D01*
X18049000Y-5614000D02*
X18029000Y-5634000D01*
X18070000Y-4244500D02*
X18090000Y-4264500D01*
X18090000Y-4244500D02*
X18070000Y-4264500D01*
X18227200Y-7229000D02*
X18247200Y-7249000D01*
X18247200Y-7229000D02*
X18227200Y-7249000D01*
X18230000Y-6735000D02*
X18250000Y-6755000D01*
X18250000Y-6735000D02*
X18230000Y-6755000D01*
X18278000Y-2813000D02*
X18298000Y-2833000D01*
X18298000Y-2813000D02*
X18278000Y-2833000D01*
X18278000Y-8401000D02*
X18298000Y-8421000D01*
X18298000Y-8401000D02*
X18278000Y-8421000D01*
X18278000Y-8909000D02*
X18298000Y-8929000D01*
X18298000Y-8909000D02*
X18278000Y-8929000D01*
X18278000Y-9417000D02*
X18298000Y-9437000D01*
X18298000Y-9417000D02*
X18278000Y-9437000D01*
X18340000Y-4360000D02*
X18360000Y-4380000D01*
X18360000Y-4360000D02*
X18340000Y-4380000D01*
X18360000Y-3960000D02*
X18380000Y-3980000D01*
X18380000Y-3960000D02*
X18360000Y-3980000D01*
X18532000Y-9671000D02*
X18552000Y-9691000D01*
X18552000Y-9671000D02*
X18532000Y-9691000D01*
X18537000Y-5106000D02*
X18557000Y-5126000D01*
X18557000Y-5106000D02*
X18537000Y-5126000D01*
X18537000Y-5614000D02*
X18557000Y-5634000D01*
X18557000Y-5614000D02*
X18537000Y-5634000D01*
X18585000Y-7090000D02*
X18605000Y-7110000D01*
X18605000Y-7090000D02*
X18585000Y-7110000D01*
X18630000Y-6740000D02*
X18650000Y-6760000D01*
X18650000Y-6740000D02*
X18630000Y-6760000D01*
X18760000Y-6520000D02*
X18780000Y-6540000D01*
X18780000Y-6520000D02*
X18760000Y-6540000D01*
X18760600Y-7600900D02*
X18780600Y-7620900D01*
X18780600Y-7600900D02*
X18760600Y-7620900D01*
X18786000Y-2813000D02*
X18806000Y-2833000D01*
X18806000Y-2813000D02*
X18786000Y-2833000D01*
X18786000Y-7385000D02*
X18806000Y-7405000D01*
X18806000Y-7385000D02*
X18786000Y-7405000D01*
X18786000Y-8909000D02*
X18806000Y-8929000D01*
X18806000Y-8909000D02*
X18786000Y-8929000D01*
X18795000Y-6905000D02*
X18815000Y-6925000D01*
X18815000Y-6905000D02*
X18795000Y-6925000D01*
X18930000Y-7845000D02*
X18950000Y-7865000D01*
X18950000Y-7845000D02*
X18930000Y-7865000D01*
X18980000Y-4180000D02*
X19000000Y-4200000D01*
X19000000Y-4180000D02*
X18980000Y-4200000D01*
X19040000Y-9671000D02*
X19060000Y-9691000D01*
X19060000Y-9671000D02*
X19040000Y-9691000D01*
X19085000Y-6500000D02*
X19105000Y-6520000D01*
X19105000Y-6500000D02*
X19085000Y-6520000D01*
X19165000Y-7830000D02*
X19185000Y-7850000D01*
X19185000Y-7830000D02*
X19165000Y-7850000D01*
X19294000Y-2813000D02*
X19314000Y-2833000D01*
X19314000Y-2813000D02*
X19294000Y-2833000D01*
X19299000Y-5106000D02*
X19319000Y-5126000D01*
X19319000Y-5106000D02*
X19299000Y-5126000D01*
X19299000Y-5614000D02*
X19319000Y-5634000D01*
X19319000Y-5614000D02*
X19299000Y-5634000D01*
X19380000Y-4250000D02*
X19400000Y-4270000D01*
X19400000Y-4250000D02*
X19380000Y-4270000D01*
X19390520Y-7320440D02*
X19410520Y-7340440D01*
X19410520Y-7320440D02*
X19390520Y-7340440D01*
X19400680Y-7567880D02*
X19420680Y-7587880D01*
X19420680Y-7567880D02*
X19400680Y-7587880D01*
X19425000Y-7670000D02*
X19445000Y-7690000D01*
X19445000Y-7670000D02*
X19425000Y-7690000D01*
X19430000Y-3880000D02*
X19450000Y-3900000D01*
X19450000Y-3880000D02*
X19430000Y-3900000D01*
X19456560Y-7512000D02*
X19476560Y-7532000D01*
X19476560Y-7512000D02*
X19456560Y-7532000D01*
X19470000Y-6570000D02*
X19490000Y-6590000D01*
X19490000Y-6570000D02*
X19470000Y-6590000D01*
X19487040Y-8329880D02*
X19507040Y-8349880D01*
X19507040Y-8329880D02*
X19487040Y-8349880D01*
X19489580Y-8479740D02*
X19509580Y-8499740D01*
X19509580Y-8479740D02*
X19489580Y-8499740D01*
X19509900Y-7760920D02*
X19529900Y-7780920D01*
X19529900Y-7760920D02*
X19509900Y-7780920D01*
X19531490Y-7438340D02*
X19551490Y-7458340D01*
X19551490Y-7438340D02*
X19531490Y-7458340D01*
X19548000Y-3067000D02*
X19568000Y-3087000D01*
X19568000Y-3067000D02*
X19548000Y-3087000D01*
X19548000Y-9671000D02*
X19568000Y-9691000D01*
X19568000Y-9671000D02*
X19548000Y-9691000D01*
X19596260Y-7847280D02*
X19616260Y-7867280D01*
X19616260Y-7847280D02*
X19596260Y-7867280D01*
X19636900Y-7341820D02*
X19656900Y-7361820D01*
X19656900Y-7341820D02*
X19636900Y-7361820D01*
X19680000Y-4244500D02*
X19700000Y-4264500D01*
X19700000Y-4244500D02*
X19680000Y-4264500D01*
X19693439Y-8522870D02*
X19713439Y-8542870D01*
X19713439Y-8522870D02*
X19693439Y-8542870D01*
X19730880Y-7984440D02*
X19750880Y-8004440D01*
X19750880Y-7984440D02*
X19730880Y-8004440D01*
X19735960Y-7247840D02*
X19755960Y-7267840D01*
X19755960Y-7247840D02*
X19735960Y-7267840D01*
X19776600Y-7613600D02*
X19796600Y-7633600D01*
X19796600Y-7613600D02*
X19776600Y-7633600D01*
X19776600Y-7918400D02*
X19796600Y-7938400D01*
X19796600Y-7918400D02*
X19776600Y-7938400D01*
X19780000Y-6585000D02*
X19800000Y-6605000D01*
X19800000Y-6585000D02*
X19780000Y-6605000D01*
X19780000Y-8345000D02*
X19800000Y-8365000D01*
X19800000Y-8345000D02*
X19780000Y-8365000D01*
X19786760Y-8522920D02*
X19806760Y-8542920D01*
X19806760Y-8522920D02*
X19786760Y-8542920D01*
X19793352Y-8048709D02*
X19813352Y-8068709D01*
X19813352Y-8048709D02*
X19793352Y-8068709D01*
X19802000Y-2813000D02*
X19822000Y-2833000D01*
X19822000Y-2813000D02*
X19802000Y-2833000D01*
X19802000Y-8909000D02*
X19822000Y-8929000D01*
X19822000Y-8909000D02*
X19802000Y-8929000D01*
X19807080Y-7166560D02*
X19827080Y-7186560D01*
X19827080Y-7166560D02*
X19807080Y-7186560D01*
X19852800Y-7537400D02*
X19872800Y-7557400D01*
X19872800Y-7537400D02*
X19852800Y-7557400D01*
X19852800Y-7842200D02*
X19872800Y-7862200D01*
X19872800Y-7842200D02*
X19852800Y-7862200D01*
X19868040Y-8112361D02*
X19888040Y-8132361D01*
X19888040Y-8112361D02*
X19868040Y-8132361D01*
X19900000Y-6720000D02*
X19920000Y-6740000D01*
X19920000Y-6720000D02*
X19900000Y-6740000D01*
X19929000Y-7461200D02*
X19949000Y-7481200D01*
X19949000Y-7461200D02*
X19929000Y-7481200D01*
X19929000Y-7613600D02*
X19949000Y-7633600D01*
X19949000Y-7613600D02*
X19929000Y-7633600D01*
X19929000Y-7918400D02*
X19949000Y-7938400D01*
X19949000Y-7918400D02*
X19929000Y-7938400D01*
X19930000Y-7765000D02*
X19950000Y-7785000D01*
X19950000Y-7765000D02*
X19930000Y-7785000D01*
X19934080Y-7049720D02*
X19954080Y-7069720D01*
X19954080Y-7049720D02*
X19934080Y-7069720D01*
X19934080Y-8284160D02*
X19954080Y-8304160D01*
X19954080Y-8284160D02*
X19934080Y-8304160D01*
X19949320Y-8131760D02*
X19969320Y-8151760D01*
X19969320Y-8131760D02*
X19949320Y-8151760D01*
X20005200Y-7232600D02*
X20025200Y-7252600D01*
X20025200Y-7232600D02*
X20005200Y-7252600D01*
X20005200Y-7308800D02*
X20025200Y-7328800D01*
X20025200Y-7308800D02*
X20005200Y-7328800D01*
X20005200Y-7537400D02*
X20025200Y-7557400D01*
X20025200Y-7537400D02*
X20005200Y-7557400D01*
X20005200Y-7842200D02*
X20025200Y-7862200D01*
X20025200Y-7842200D02*
X20005200Y-7862200D01*
X20013160Y-8063520D02*
X20033160Y-8083520D01*
X20033160Y-8063520D02*
X20013160Y-8083520D01*
X20017327Y-8349580D02*
X20037327Y-8369580D01*
X20037327Y-8349580D02*
X20017327Y-8369580D01*
X20056000Y-3067000D02*
X20076000Y-3087000D01*
X20076000Y-3067000D02*
X20056000Y-3087000D01*
X20056000Y-7918400D02*
X20076000Y-7938400D01*
X20076000Y-7918400D02*
X20056000Y-7938400D01*
X20056000Y-9671000D02*
X20076000Y-9691000D01*
X20076000Y-9671000D02*
X20056000Y-9691000D01*
X20061000Y-5106000D02*
X20081000Y-5126000D01*
X20081000Y-5106000D02*
X20061000Y-5126000D01*
X20061000Y-5614000D02*
X20081000Y-5634000D01*
X20081000Y-5614000D02*
X20061000Y-5634000D01*
X20081400Y-7613600D02*
X20101400Y-7633600D01*
X20101400Y-7613600D02*
X20081400Y-7633600D01*
X20085783Y-8022889D02*
X20105783Y-8042889D01*
X20105783Y-8022889D02*
X20085783Y-8042889D01*
X20110000Y-4160000D02*
X20130000Y-4180000D01*
X20130000Y-4160000D02*
X20110000Y-4180000D01*
X20147440Y-7288480D02*
X20167440Y-7308480D01*
X20167440Y-7288480D02*
X20147440Y-7308480D01*
X20157600Y-7537400D02*
X20177600Y-7557400D01*
X20177600Y-7537400D02*
X20157600Y-7557400D01*
X20157600Y-7613600D02*
X20177600Y-7633600D01*
X20177600Y-7613600D02*
X20157600Y-7633600D01*
X20195067Y-7911413D02*
X20215067Y-7931413D01*
X20215067Y-7911413D02*
X20195067Y-7931413D01*
X20228720Y-7374840D02*
X20248720Y-7394840D01*
X20248720Y-7374840D02*
X20228720Y-7394840D01*
X20233800Y-7461200D02*
X20253800Y-7481200D01*
X20253800Y-7461200D02*
X20233800Y-7481200D01*
X20246500Y-6520000D02*
X20266500Y-6540000D01*
X20266500Y-6520000D02*
X20246500Y-6540000D01*
X20249040Y-6705760D02*
X20269040Y-6725760D01*
X20269040Y-6705760D02*
X20249040Y-6725760D01*
X20254120Y-8121600D02*
X20274120Y-8141600D01*
X20274120Y-8121600D02*
X20254120Y-8141600D01*
X20254650Y-8197270D02*
X20274650Y-8217270D01*
X20274650Y-8197270D02*
X20254650Y-8217270D01*
X20304327Y-8070207D02*
X20324327Y-8090207D01*
X20324327Y-8070207D02*
X20304327Y-8090207D01*
X20310000Y-2813000D02*
X20330000Y-2833000D01*
X20330000Y-2813000D02*
X20310000Y-2833000D01*
X20310000Y-3321000D02*
X20330000Y-3341000D01*
X20330000Y-3321000D02*
X20310000Y-3341000D01*
X20367313Y-7744247D02*
X20387313Y-7764247D01*
X20387313Y-7744247D02*
X20367313Y-7764247D01*
X20376040Y-7517080D02*
X20396040Y-7537080D01*
X20396040Y-7517080D02*
X20376040Y-7537080D01*
X20424300Y-6280100D02*
X20444300Y-6300100D01*
X20444300Y-6280100D02*
X20424300Y-6300100D01*
X20490000Y-7605000D02*
X20510000Y-7625000D01*
X20510000Y-7605000D02*
X20490000Y-7625000D01*
X20525900Y-5022800D02*
X20545900Y-5042800D01*
X20545900Y-5022800D02*
X20525900Y-5042800D01*
X20525900Y-5353000D02*
X20545900Y-5373000D01*
X20545900Y-5353000D02*
X20525900Y-5373000D01*
X20525900Y-5861000D02*
X20545900Y-5881000D01*
X20545900Y-5861000D02*
X20525900Y-5881000D01*
X20538600Y-7991000D02*
X20558600Y-8011000D01*
X20558600Y-7991000D02*
X20538600Y-8011000D01*
X20564000Y-9671000D02*
X20584000Y-9691000D01*
X20584000Y-9671000D02*
X20564000Y-9691000D01*
X20579240Y-8947100D02*
X20599240Y-8967100D01*
X20599240Y-8947100D02*
X20579240Y-8967100D01*
X20705000Y-9365000D02*
X20725000Y-9385000D01*
X20725000Y-9365000D02*
X20705000Y-9385000D01*
X20818000Y-2813000D02*
X20838000Y-2833000D01*
X20838000Y-2813000D02*
X20818000Y-2833000D01*
X20818000Y-3321000D02*
X20838000Y-3341000D01*
X20838000Y-3321000D02*
X20818000Y-3341000D01*
X20818000Y-4650900D02*
X20838000Y-4670900D01*
X20838000Y-4650900D02*
X20818000Y-4670900D01*
X20818000Y-5861000D02*
X20838000Y-5881000D01*
X20838000Y-5861000D02*
X20818000Y-5881000D01*
X20825000Y-8580000D02*
X20845000Y-8600000D01*
X20845000Y-8580000D02*
X20825000Y-8600000D01*
X20894200Y-6673800D02*
X20914200Y-6693800D01*
X20914200Y-6673800D02*
X20894200Y-6693800D01*
X20950080Y-7137560D02*
X20970080Y-7157560D01*
X20970080Y-7137560D02*
X20950080Y-7157560D01*
X20950080Y-7335680D02*
X20970080Y-7355680D01*
X20970080Y-7335680D02*
X20950080Y-7355680D01*
X20975000Y-8475000D02*
X20995000Y-8495000D01*
X20995000Y-8475000D02*
X20975000Y-8495000D01*
X20990000Y-8945000D02*
X21010000Y-8965000D01*
X21010000Y-8945000D02*
X20990000Y-8965000D01*
X20990000Y-9205000D02*
X21010000Y-9225000D01*
X21010000Y-9205000D02*
X20990000Y-9225000D01*
X20990000Y-9445000D02*
X21010000Y-9465000D01*
X21010000Y-9445000D02*
X20990000Y-9465000D01*
X20990000Y-9705000D02*
X21010000Y-9725000D01*
X21010000Y-9705000D02*
X20990000Y-9725000D01*
X21110000Y-8805000D02*
X21130000Y-8825000D01*
X21130000Y-8805000D02*
X21110000Y-8825000D01*
X21130000Y-9085000D02*
X21150000Y-9105000D01*
X21150000Y-9085000D02*
X21130000Y-9105000D01*
X21130000Y-9325000D02*
X21150000Y-9345000D01*
X21150000Y-9325000D02*
X21130000Y-9345000D01*
X21130000Y-9565000D02*
X21150000Y-9585000D01*
X21150000Y-9565000D02*
X21130000Y-9585000D01*
X21130000Y-9845000D02*
X21150000Y-9865000D01*
X21150000Y-9845000D02*
X21130000Y-9865000D01*
X21160900Y-6915100D02*
X21180900Y-6935100D01*
X21180900Y-6915100D02*
X21160900Y-6935100D01*
X21160900Y-7762400D02*
X21180900Y-7782400D01*
X21180900Y-7762400D02*
X21160900Y-7782400D01*
X21186300Y-5010100D02*
X21206300Y-5030100D01*
X21206300Y-5010100D02*
X21186300Y-5030100D01*
X21230000Y-8705000D02*
X21250000Y-8725000D01*
X21250000Y-8705000D02*
X21230000Y-8725000D01*
X21249800Y-9210200D02*
X21269800Y-9230200D01*
X21269800Y-9210200D02*
X21249800Y-9230200D01*
X21250000Y-8945000D02*
X21270000Y-8965000D01*
X21270000Y-8945000D02*
X21250000Y-8965000D01*
X21250000Y-9445000D02*
X21270000Y-9465000D01*
X21270000Y-9445000D02*
X21250000Y-9465000D01*
X21250000Y-9705000D02*
X21270000Y-9725000D01*
X21270000Y-9705000D02*
X21250000Y-9725000D01*
X21250000Y-9845000D02*
X21270000Y-9865000D01*
X21270000Y-9845000D02*
X21250000Y-9865000D01*
X21326000Y-2813000D02*
X21346000Y-2833000D01*
X21346000Y-2813000D02*
X21326000Y-2833000D01*
X21370000Y-8525000D02*
X21390000Y-8545000D01*
X21390000Y-8525000D02*
X21370000Y-8545000D01*
X21414900Y-7991000D02*
X21434900Y-8011000D01*
X21434900Y-7991000D02*
X21414900Y-8011000D01*
X21427600Y-7537400D02*
X21447600Y-7557400D01*
X21447600Y-7537400D02*
X21427600Y-7557400D01*
X21453000Y-6327300D02*
X21473000Y-6347300D01*
X21473000Y-6327300D02*
X21453000Y-6347300D01*
X21453000Y-6673800D02*
X21473000Y-6693800D01*
X21473000Y-6673800D02*
X21453000Y-6693800D01*
X21580000Y-3067000D02*
X21600000Y-3087000D01*
X21600000Y-3067000D02*
X21580000Y-3087000D01*
X21648580Y-9437320D02*
X21668580Y-9457320D01*
X21668580Y-9437320D02*
X21648580Y-9457320D01*
X21648580Y-9510980D02*
X21668580Y-9530980D01*
X21668580Y-9510980D02*
X21648580Y-9530980D01*
X21690000Y-8615000D02*
X21710000Y-8635000D01*
X21710000Y-8615000D02*
X21690000Y-8635000D01*
X21690000Y-8715000D02*
X21710000Y-8735000D01*
X21710000Y-8715000D02*
X21690000Y-8735000D01*
X21690000Y-8815000D02*
X21710000Y-8835000D01*
X21710000Y-8815000D02*
X21690000Y-8835000D01*
X21690000Y-8939480D02*
X21710000Y-8959480D01*
X21710000Y-8939480D02*
X21690000Y-8959480D01*
X21732400Y-7334200D02*
X21752400Y-7354200D01*
X21752400Y-7334200D02*
X21732400Y-7354200D01*
X21745100Y-6924200D02*
X21765100Y-6944200D01*
X21765100Y-6924200D02*
X21745100Y-6944200D01*
X21745100Y-7753300D02*
X21765100Y-7773300D01*
X21765100Y-7753300D02*
X21745100Y-7773300D01*
X21830000Y-8395000D02*
X21850000Y-8415000D01*
X21850000Y-8395000D02*
X21830000Y-8415000D01*
X21834000Y-2813000D02*
X21854000Y-2833000D01*
X21854000Y-2813000D02*
X21834000Y-2833000D01*
X21890000Y-4350000D02*
X21910000Y-4370000D01*
X21910000Y-4350000D02*
X21890000Y-4370000D01*
X21973700Y-7131000D02*
X21993700Y-7151000D01*
X21993700Y-7131000D02*
X21973700Y-7151000D01*
X21986400Y-7524700D02*
X22006400Y-7544700D01*
X22006400Y-7524700D02*
X21986400Y-7544700D01*
X21999100Y-7991000D02*
X22019100Y-8011000D01*
X22019100Y-7991000D02*
X21999100Y-8011000D01*
X22047360Y-8774380D02*
X22067360Y-8794380D01*
X22067360Y-8774380D02*
X22047360Y-8794380D01*
X22054980Y-9460180D02*
X22074980Y-9480180D01*
X22074980Y-9460180D02*
X22054980Y-9480180D01*
X22054980Y-9650680D02*
X22074980Y-9670680D01*
X22074980Y-9650680D02*
X22054980Y-9670680D01*
X22060000Y-4350000D02*
X22080000Y-4370000D01*
X22080000Y-4350000D02*
X22060000Y-4370000D01*
X22088000Y-3067000D02*
X22108000Y-3087000D01*
X22108000Y-3067000D02*
X22088000Y-3087000D01*
X22093000Y-5614000D02*
X22113000Y-5634000D01*
X22113000Y-5614000D02*
X22093000Y-5634000D01*
X22215000Y-7753300D02*
X22235000Y-7773300D01*
X22235000Y-7753300D02*
X22215000Y-7773300D01*
X22227700Y-7321500D02*
X22247700Y-7341500D01*
X22247700Y-7321500D02*
X22227700Y-7341500D01*
X22250000Y-9205000D02*
X22270000Y-9225000D01*
X22270000Y-9205000D02*
X22250000Y-9225000D01*
X22280000Y-3950000D02*
X22300000Y-3970000D01*
X22300000Y-3950000D02*
X22280000Y-3970000D01*
X22342000Y-2813000D02*
X22362000Y-2833000D01*
X22362000Y-2813000D02*
X22342000Y-2833000D01*
X22342000Y-3321000D02*
X22362000Y-3341000D01*
X22362000Y-3321000D02*
X22342000Y-3341000D01*
X22342000Y-8401000D02*
X22362000Y-8421000D01*
X22362000Y-8401000D02*
X22342000Y-8421000D01*
X22354700Y-6750000D02*
X22374700Y-6770000D01*
X22374700Y-6750000D02*
X22354700Y-6770000D01*
X22400000Y-4915000D02*
X22420000Y-4935000D01*
X22420000Y-4915000D02*
X22400000Y-4935000D01*
X22430900Y-7067500D02*
X22450900Y-7087500D01*
X22450900Y-7067500D02*
X22430900Y-7087500D01*
X22469000Y-7524700D02*
X22489000Y-7544700D01*
X22489000Y-7524700D02*
X22469000Y-7544700D01*
X22469000Y-7978300D02*
X22489000Y-7998300D01*
X22489000Y-7978300D02*
X22469000Y-7998300D01*
X22474080Y-9475420D02*
X22494080Y-9495420D01*
X22494080Y-9475420D02*
X22474080Y-9495420D01*
X22510000Y-4380000D02*
X22530000Y-4400000D01*
X22530000Y-4380000D02*
X22510000Y-4400000D01*
X22590000Y-8565000D02*
X22610000Y-8585000D01*
X22610000Y-8565000D02*
X22590000Y-8585000D01*
X22601000Y-5614000D02*
X22621000Y-5634000D01*
X22621000Y-5614000D02*
X22601000Y-5634000D01*
X22684900Y-7207200D02*
X22704900Y-7227200D01*
X22704900Y-7207200D02*
X22684900Y-7227200D01*
X22723000Y-7753300D02*
X22743000Y-7773300D01*
X22743000Y-7753300D02*
X22723000Y-7773300D01*
X22735700Y-6788100D02*
X22755700Y-6808100D01*
X22755700Y-6788100D02*
X22735700Y-6808100D01*
X22735700Y-8688020D02*
X22755700Y-8708020D01*
X22755700Y-8688020D02*
X22735700Y-8708020D01*
X22750000Y-4230000D02*
X22770000Y-4250000D01*
X22770000Y-4230000D02*
X22750000Y-4250000D01*
X22850000Y-2813000D02*
X22870000Y-2833000D01*
X22870000Y-2813000D02*
X22850000Y-2833000D01*
X22850000Y-3321000D02*
X22870000Y-3341000D01*
X22870000Y-3321000D02*
X22850000Y-3341000D01*
X22850000Y-7385000D02*
X22870000Y-7405000D01*
X22870000Y-7385000D02*
X22850000Y-7405000D01*
X22875400Y-7029400D02*
X22895400Y-7049400D01*
X22895400Y-7029400D02*
X22875400Y-7049400D01*
X22875400Y-7978300D02*
X22895400Y-7998300D01*
X22895400Y-7978300D02*
X22875400Y-7998300D01*
X22960000Y-4350000D02*
X22980000Y-4370000D01*
X22980000Y-4350000D02*
X22960000Y-4370000D01*
X23053200Y-7571900D02*
X23073200Y-7591900D01*
X23073200Y-7571900D02*
X23053200Y-7591900D01*
X23065900Y-6775400D02*
X23085900Y-6795400D01*
X23085900Y-6775400D02*
X23065900Y-6795400D01*
X23078600Y-7169100D02*
X23098600Y-7189100D01*
X23098600Y-7169100D02*
X23078600Y-7189100D01*
X23109000Y-5614000D02*
X23129000Y-5634000D01*
X23129000Y-5614000D02*
X23109000Y-5634000D01*
X23256400Y-7800500D02*
X23276400Y-7820500D01*
X23276400Y-7800500D02*
X23256400Y-7820500D01*
X23281800Y-7343300D02*
X23301800Y-7363300D01*
X23301800Y-7343300D02*
X23281800Y-7363300D01*
X23358000Y-2813000D02*
X23378000Y-2833000D01*
X23378000Y-2813000D02*
X23358000Y-2833000D01*
X23358000Y-6877000D02*
X23378000Y-6897000D01*
X23378000Y-6877000D02*
X23358000Y-6897000D01*
X23490000Y-9625000D02*
X23510000Y-9645000D01*
X23510000Y-9625000D02*
X23490000Y-9645000D01*
X23523100Y-7089300D02*
X23543100Y-7109300D01*
X23543100Y-7089300D02*
X23523100Y-7109300D01*
X23523100Y-7533800D02*
X23543100Y-7553800D01*
X23543100Y-7533800D02*
X23523100Y-7553800D01*
X23605000Y-8400000D02*
X23625000Y-8420000D01*
X23625000Y-8400000D02*
X23605000Y-8420000D01*
X23610000Y-3820000D02*
X23630000Y-3840000D01*
X23630000Y-3820000D02*
X23610000Y-3840000D01*
X23610000Y-3990000D02*
X23630000Y-4010000D01*
X23630000Y-3990000D02*
X23610000Y-4010000D01*
X23610000Y-9465000D02*
X23630000Y-9485000D01*
X23630000Y-9465000D02*
X23610000Y-9485000D01*
X23612000Y-3067000D02*
X23632000Y-3087000D01*
X23632000Y-3067000D02*
X23612000Y-3087000D01*
X23612000Y-8147000D02*
X23632000Y-8167000D01*
X23632000Y-8147000D02*
X23612000Y-8167000D01*
X23612000Y-9756300D02*
X23632000Y-9776300D01*
X23632000Y-9756300D02*
X23612000Y-9776300D01*
X23617000Y-5106000D02*
X23637000Y-5126000D01*
X23637000Y-5106000D02*
X23617000Y-5126000D01*
X23617000Y-5614000D02*
X23637000Y-5634000D01*
X23637000Y-5614000D02*
X23617000Y-5634000D01*
X23630000Y-8845000D02*
X23650000Y-8865000D01*
X23650000Y-8845000D02*
X23630000Y-8865000D01*
X23730000Y-4270000D02*
X23750000Y-4290000D01*
X23750000Y-4270000D02*
X23730000Y-4290000D01*
X23730000Y-8845000D02*
X23750000Y-8865000D01*
X23750000Y-8845000D02*
X23730000Y-8865000D01*
X23730000Y-9305000D02*
X23750000Y-9325000D01*
X23750000Y-9305000D02*
X23730000Y-9325000D01*
X23730000Y-9625000D02*
X23750000Y-9645000D01*
X23750000Y-9625000D02*
X23730000Y-9645000D01*
X23751700Y-7296100D02*
X23771700Y-7316100D01*
X23771700Y-7296100D02*
X23751700Y-7316100D01*
X23800000Y-9165000D02*
X23820000Y-9185000D01*
X23820000Y-9165000D02*
X23800000Y-9185000D01*
X23830000Y-9305000D02*
X23850000Y-9325000D01*
X23850000Y-9305000D02*
X23830000Y-9325000D01*
X23830000Y-9465000D02*
X23850000Y-9485000D01*
X23850000Y-9465000D02*
X23830000Y-9485000D01*
X23866000Y-2813000D02*
X23886000Y-2833000D01*
X23886000Y-2813000D02*
X23866000Y-2833000D01*
X23866000Y-3321000D02*
X23886000Y-3341000D01*
X23886000Y-3321000D02*
X23866000Y-3341000D01*
X23866000Y-7893000D02*
X23886000Y-7913000D01*
X23886000Y-7893000D02*
X23866000Y-7913000D01*
X23866000Y-8401000D02*
X23886000Y-8421000D01*
X23886000Y-8401000D02*
X23866000Y-8421000D01*
X23967600Y-6750000D02*
X23987600Y-6770000D01*
X23987600Y-6750000D02*
X23967600Y-6770000D01*
X23985380Y-9565000D02*
X24005380Y-9585000D01*
X24005380Y-9565000D02*
X23985380Y-9585000D01*
X23987920Y-9731960D02*
X24007920Y-9751960D01*
X24007920Y-9731960D02*
X23987920Y-9751960D01*
X24050000Y-4270000D02*
X24070000Y-4290000D01*
X24070000Y-4270000D02*
X24050000Y-4290000D01*
X24110000Y-9485000D02*
X24130000Y-9505000D01*
X24130000Y-9485000D02*
X24110000Y-9505000D01*
X24114920Y-9650680D02*
X24134920Y-9670680D01*
X24134920Y-9650680D02*
X24114920Y-9670680D01*
X24114920Y-9790380D02*
X24134920Y-9810380D01*
X24134920Y-9790380D02*
X24114920Y-9810380D01*
X24120000Y-3067000D02*
X24140000Y-3087000D01*
X24140000Y-3067000D02*
X24120000Y-3087000D01*
X24120000Y-7639000D02*
X24140000Y-7659000D01*
X24140000Y-7639000D02*
X24120000Y-7659000D01*
X24120000Y-8147000D02*
X24140000Y-8167000D01*
X24140000Y-8147000D02*
X24120000Y-8167000D01*
X24125000Y-5106000D02*
X24145000Y-5126000D01*
X24145000Y-5106000D02*
X24125000Y-5126000D01*
X24125000Y-5614000D02*
X24145000Y-5634000D01*
X24145000Y-5614000D02*
X24125000Y-5634000D01*
X24140000Y-8765000D02*
X24160000Y-8785000D01*
X24160000Y-8765000D02*
X24140000Y-8785000D01*
X24140000Y-8865000D02*
X24160000Y-8885000D01*
X24160000Y-8865000D02*
X24140000Y-8885000D01*
X24140000Y-8965000D02*
X24160000Y-8985000D01*
X24160000Y-8965000D02*
X24140000Y-8985000D01*
X24374000Y-2813000D02*
X24394000Y-2833000D01*
X24394000Y-2813000D02*
X24374000Y-2833000D01*
X24374000Y-4845000D02*
X24394000Y-4865000D01*
X24394000Y-4845000D02*
X24374000Y-4865000D01*
X24374000Y-5353000D02*
X24394000Y-5373000D01*
X24394000Y-5353000D02*
X24374000Y-5373000D01*
X24374000Y-5861000D02*
X24394000Y-5881000D01*
X24394000Y-5861000D02*
X24374000Y-5881000D01*
X24374000Y-6369000D02*
X24394000Y-6389000D01*
X24394000Y-6369000D02*
X24374000Y-6389000D01*
X24374000Y-6877000D02*
X24394000Y-6897000D01*
X24394000Y-6877000D02*
X24374000Y-6897000D01*
X24374000Y-7893000D02*
X24394000Y-7913000D01*
X24394000Y-7893000D02*
X24374000Y-7913000D01*
X24540000Y-9515000D02*
X24560000Y-9535000D01*
X24560000Y-9515000D02*
X24540000Y-9535000D01*
X24540000Y-9815000D02*
X24560000Y-9835000D01*
X24560000Y-9815000D02*
X24540000Y-9835000D01*
X24570000Y-9145000D02*
X24590000Y-9165000D01*
X24590000Y-9145000D02*
X24570000Y-9165000D01*
X24605000Y-2810000D02*
X24625000Y-2830000D01*
X24625000Y-2810000D02*
X24605000Y-2830000D01*
X24628000Y-5603400D02*
X24648000Y-5623400D01*
X24648000Y-5603400D02*
X24628000Y-5623400D01*
X24628000Y-6623000D02*
X24648000Y-6643000D01*
X24648000Y-6623000D02*
X24628000Y-6643000D01*
X24628000Y-8147000D02*
X24648000Y-8167000D01*
X24648000Y-8147000D02*
X24628000Y-8167000D01*
X24628000Y-8655000D02*
X24648000Y-8675000D01*
X24648000Y-8655000D02*
X24628000Y-8675000D01*
X24630000Y-9505000D02*
X24650000Y-9525000D01*
X24650000Y-9505000D02*
X24630000Y-9525000D01*
X24640700Y-6136800D02*
X24660700Y-6156800D01*
X24660700Y-6136800D02*
X24640700Y-6156800D01*
X24831200Y-8803800D02*
X24851200Y-8823800D01*
X24851200Y-8803800D02*
X24831200Y-8823800D01*
D13*
X15315000Y-9415000D02*
G75*
G03*
X15315000Y-9415000I-25000J0D01*
G01*
X15374311Y-9271811D02*
G75*
G03*
X15374311Y-9271811I-25000J0D01*
G01*
X15374311Y-9558189D02*
G75*
G03*
X15374311Y-9558189I-25000J0D01*
G01*
X15517500Y-9212500D02*
G75*
G03*
X15517500Y-9212500I-25000J0D01*
G01*
X15517500Y-9617500D02*
G75*
G03*
X15517500Y-9617500I-25000J0D01*
G01*
X15660689Y-9271811D02*
G75*
G03*
X15660689Y-9271811I-25000J0D01*
G01*
X15660689Y-9558189D02*
G75*
G03*
X15660689Y-9558189I-25000J0D01*
G01*
X15720000Y-9415000D02*
G75*
G03*
X15720000Y-9415000I-25000J0D01*
G01*
X20815689Y-5371811D02*
G75*
G03*
X20815689Y-5371811I-25000J0D01*
G01*
X20875000Y-5228622D02*
G75*
G03*
X20875000Y-5228622I-25000J0D01*
G01*
X20875000Y-5515000D02*
G75*
G03*
X20875000Y-5515000I-25000J0D01*
G01*
X21018189Y-5169311D02*
G75*
G03*
X21018189Y-5169311I-25000J0D01*
G01*
X21018189Y-5574311D02*
G75*
G03*
X21018189Y-5574311I-25000J0D01*
G01*
X21161378Y-5228622D02*
G75*
G03*
X21161378Y-5228622I-25000J0D01*
G01*
X21161378Y-5515000D02*
G75*
G03*
X21161378Y-5515000I-25000J0D01*
G01*
X21220689Y-5371811D02*
G75*
G03*
X21220689Y-5371811I-25000J0D01*
G01*
X24429311Y-7406811D02*
G75*
G03*
X24429311Y-7406811I-25000J0D01*
G01*
X24488622Y-7263622D02*
G75*
G03*
X24488622Y-7263622I-25000J0D01*
G01*
X24488622Y-7550000D02*
G75*
G03*
X24488622Y-7550000I-25000J0D01*
G01*
X24631811Y-7204311D02*
G75*
G03*
X24631811Y-7204311I-25000J0D01*
G01*
X24631811Y-7609311D02*
G75*
G03*
X24631811Y-7609311I-25000J0D01*
G01*
X24775000Y-7263622D02*
G75*
G03*
X24775000Y-7263622I-25000J0D01*
G01*
X24775000Y-7550000D02*
G75*
G03*
X24775000Y-7550000I-25000J0D01*
G01*
X24834311Y-7406811D02*
G75*
G03*
X24834311Y-7406811I-25000J0D01*
G01*
D14*
X15389400Y-4038500D02*
X15389400Y-4127500D01*
X15344900Y-4083000D02*
X15433900Y-4083000D01*
X15618400Y-4038500D02*
X15618400Y-4127500D01*
X15573900Y-4083000D02*
X15662900Y-4083000D01*
X15719400Y-3378500D02*
X15719400Y-3467500D01*
X15674900Y-3423000D02*
X15763900Y-3423000D01*
X15821000Y-3556500D02*
X15821000Y-3645500D01*
X15776500Y-3601000D02*
X15865500Y-3601000D01*
X15922600Y-3378500D02*
X15922600Y-3467500D01*
X15878100Y-3423000D02*
X15967100Y-3423000D01*
X16024200Y-3556500D02*
X16024200Y-3645500D01*
X15979700Y-3601000D02*
X16068700Y-3601000D01*
X16125800Y-3378500D02*
X16125800Y-3467500D01*
X16081300Y-3423000D02*
X16170300Y-3423000D01*
X16227400Y-3556500D02*
X16227400Y-3645500D01*
X16182900Y-3601000D02*
X16271900Y-3601000D01*
X16329000Y-3378500D02*
X16329000Y-3467500D01*
X16284500Y-3423000D02*
X16373500Y-3423000D01*
X16430600Y-3556500D02*
X16430600Y-3645500D01*
X16386100Y-3601000D02*
X16475100Y-3601000D01*
X16532400Y-4038500D02*
X16532400Y-4127500D01*
X16487900Y-4083000D02*
X16576900Y-4083000D01*
X16761400Y-4038500D02*
X16761400Y-4127500D01*
X16716900Y-4083000D02*
X16805900Y-4083000D01*
X17348200Y-4038500D02*
X17348200Y-4127500D01*
X17303700Y-4083000D02*
X17392700Y-4083000D01*
X17577200Y-4038500D02*
X17577200Y-4127500D01*
X17532700Y-4083000D02*
X17621700Y-4083000D01*
X17678200Y-3378500D02*
X17678200Y-3467500D01*
X17633700Y-3423000D02*
X17722700Y-3423000D01*
X17779800Y-3556500D02*
X17779800Y-3645500D01*
X17735300Y-3601000D02*
X17824300Y-3601000D01*
X17881400Y-3378500D02*
X17881400Y-3467500D01*
X17836900Y-3423000D02*
X17925900Y-3423000D01*
X17983000Y-3556500D02*
X17983000Y-3645500D01*
X17938500Y-3601000D02*
X18027500Y-3601000D01*
X18084600Y-3378500D02*
X18084600Y-3467500D01*
X18040100Y-3423000D02*
X18129100Y-3423000D01*
X18186200Y-3556500D02*
X18186200Y-3645500D01*
X18141700Y-3601000D02*
X18230700Y-3601000D01*
X18287800Y-3378500D02*
X18287800Y-3467500D01*
X18243300Y-3423000D02*
X18332300Y-3423000D01*
X18389400Y-3556500D02*
X18389400Y-3645500D01*
X18344900Y-3601000D02*
X18433900Y-3601000D01*
X18491200Y-4038500D02*
X18491200Y-4127500D01*
X18446700Y-4083000D02*
X18535700Y-4083000D01*
X18720200Y-4038500D02*
X18720200Y-4127500D01*
X18675700Y-4083000D02*
X18764700Y-4083000D01*
X19308000Y-4038500D02*
X19308000Y-4127500D01*
X19263500Y-4083000D02*
X19352500Y-4083000D01*
X19537000Y-4038500D02*
X19537000Y-4127500D01*
X19492500Y-4083000D02*
X19581500Y-4083000D01*
X19638000Y-3378500D02*
X19638000Y-3467500D01*
X19593500Y-3423000D02*
X19682500Y-3423000D01*
X19739600Y-3556500D02*
X19739600Y-3645500D01*
X19695100Y-3601000D02*
X19784100Y-3601000D01*
X19841200Y-3378500D02*
X19841200Y-3467500D01*
X19796700Y-3423000D02*
X19885700Y-3423000D01*
X19942800Y-3556500D02*
X19942800Y-3645500D01*
X19898300Y-3601000D02*
X19987300Y-3601000D01*
X20044400Y-3378500D02*
X20044400Y-3467500D01*
X19999900Y-3423000D02*
X20088900Y-3423000D01*
X20146000Y-3556500D02*
X20146000Y-3645500D01*
X20101500Y-3601000D02*
X20190500Y-3601000D01*
X20247600Y-3378500D02*
X20247600Y-3467500D01*
X20203100Y-3423000D02*
X20292100Y-3423000D01*
X20349200Y-3556500D02*
X20349200Y-3645500D01*
X20304700Y-3601000D02*
X20393700Y-3601000D01*
X20451000Y-4038500D02*
X20451000Y-4127500D01*
X20406500Y-4083000D02*
X20495500Y-4083000D01*
X20680000Y-4038500D02*
X20680000Y-4127500D01*
X20635500Y-4083000D02*
X20724500Y-4083000D01*
X21266600Y-4038500D02*
X21266600Y-4127500D01*
X21222100Y-4083000D02*
X21311100Y-4083000D01*
X21495600Y-4038500D02*
X21495600Y-4127500D01*
X21451100Y-4083000D02*
X21540100Y-4083000D01*
X21596600Y-3378500D02*
X21596600Y-3467500D01*
X21552100Y-3423000D02*
X21641100Y-3423000D01*
X21698200Y-3556500D02*
X21698200Y-3645500D01*
X21653700Y-3601000D02*
X21742700Y-3601000D01*
X21799800Y-3378500D02*
X21799800Y-3467500D01*
X21755300Y-3423000D02*
X21844300Y-3423000D01*
X21901400Y-3556500D02*
X21901400Y-3645500D01*
X21856900Y-3601000D02*
X21945900Y-3601000D01*
X22003000Y-3378500D02*
X22003000Y-3467500D01*
X21958500Y-3423000D02*
X22047500Y-3423000D01*
X22104600Y-3556500D02*
X22104600Y-3645500D01*
X22060100Y-3601000D02*
X22149100Y-3601000D01*
X22206200Y-3378500D02*
X22206200Y-3467500D01*
X22161700Y-3423000D02*
X22250700Y-3423000D01*
X22307800Y-3556500D02*
X22307800Y-3645500D01*
X22263300Y-3601000D02*
X22352300Y-3601000D01*
X22409600Y-4038500D02*
X22409600Y-4127500D01*
X22365100Y-4083000D02*
X22454100Y-4083000D01*
X22638600Y-4038500D02*
X22638600Y-4127500D01*
X22594100Y-4083000D02*
X22683100Y-4083000D01*
X23224000Y-4038500D02*
X23224000Y-4127500D01*
X23179500Y-4083000D02*
X23268500Y-4083000D01*
X23453000Y-4038500D02*
X23453000Y-4127500D01*
X23408500Y-4083000D02*
X23497500Y-4083000D01*
X23554000Y-3378500D02*
X23554000Y-3467500D01*
X23509500Y-3423000D02*
X23598500Y-3423000D01*
X23655600Y-3556500D02*
X23655600Y-3645500D01*
X23611100Y-3601000D02*
X23700100Y-3601000D01*
X23757200Y-3378500D02*
X23757200Y-3467500D01*
X23712700Y-3423000D02*
X23801700Y-3423000D01*
X23858800Y-3556500D02*
X23858800Y-3645500D01*
X23814300Y-3601000D02*
X23903300Y-3601000D01*
X23960400Y-3378500D02*
X23960400Y-3467500D01*
X23915900Y-3423000D02*
X24004900Y-3423000D01*
X24062000Y-3556500D02*
X24062000Y-3645500D01*
X24017500Y-3601000D02*
X24106500Y-3601000D01*
X24163600Y-3378500D02*
X24163600Y-3467500D01*
X24119100Y-3423000D02*
X24208100Y-3423000D01*
X24265200Y-3556500D02*
X24265200Y-3645500D01*
X24220700Y-3601000D02*
X24309700Y-3601000D01*
X24367000Y-4038500D02*
X24367000Y-4127500D01*
X24322500Y-4083000D02*
X24411500Y-4083000D01*
X24596000Y-4038500D02*
X24596000Y-4127500D01*
X24551500Y-4083000D02*
X24640500Y-4083000D01*
D10*
X16379256Y-9543636D02*
X16379256Y-9472924D01*
X16308544Y-9472924D01*
X16308544Y-9543636D01*
X16379256Y-9543636D01*
X16633256Y-9543636D02*
X16633256Y-9472924D01*
X16562544Y-9472924D01*
X16562544Y-9543636D01*
X16633256Y-9543636D01*
X16887256Y-9543636D02*
X16887256Y-9472924D01*
X16816544Y-9472924D01*
X16816544Y-9543636D01*
X16887256Y-9543636D01*
X17141256Y-9543636D02*
X17141256Y-9472924D01*
X17070544Y-9472924D01*
X17070544Y-9543636D01*
X17141256Y-9543636D01*
X18551956Y-9530936D02*
X18551956Y-9460224D01*
X18481244Y-9460224D01*
X18481244Y-9530936D01*
X18551956Y-9530936D01*
X18805956Y-9530936D02*
X18805956Y-9460224D01*
X18735244Y-9460224D01*
X18735244Y-9530936D01*
X18805956Y-9530936D01*
X19059956Y-9530936D02*
X19059956Y-9460224D01*
X18989244Y-9460224D01*
X18989244Y-9530936D01*
X19059956Y-9530936D01*
X19313956Y-9530936D02*
X19313956Y-9460224D01*
X19243244Y-9460224D01*
X19243244Y-9530936D01*
X19313956Y-9530936D01*
X23022356Y-9001556D02*
X23022356Y-8930844D01*
X22951644Y-8930844D01*
X22951644Y-9001556D01*
X23022356Y-9001556D01*
D11*
X22887000Y-9016200D02*
X23087000Y-9016200D01*
X23087000Y-9016200D02*
G75*
G03*
X23087000Y-8916200I0J50000D01*
G01*
X23087000Y-8916200D02*
X22887000Y-8916200D01*
X22887000Y-8916200D02*
G75*
G03*
X22887000Y-9016200I0J-50000D01*
G01*
D10*
X23022356Y-9621556D02*
X23022356Y-9550844D01*
X22951644Y-9550844D01*
X22951644Y-9621556D01*
X23022356Y-9621556D01*
D11*
X22887000Y-9636200D02*
X23087000Y-9636200D01*
X23087000Y-9636200D02*
G75*
G03*
X23087000Y-9536200I0J50000D01*
G01*
X23087000Y-9536200D02*
X22887000Y-9536200D01*
X22887000Y-9536200D02*
G75*
G03*
X22887000Y-9636200I0J-50000D01*
G01*
D10*
X23492356Y-9301556D02*
X23492356Y-9230844D01*
X23421644Y-9230844D01*
X23421644Y-9301556D01*
X23492356Y-9301556D01*
D11*
X23507000Y-9366200D02*
X23507000Y-9166200D01*
X23507000Y-9166200D02*
G75*
G03*
X23407000Y-9166200I-50000J0D01*
G01*
X23407000Y-9166200D02*
X23407000Y-9366200D01*
X23407000Y-9366200D02*
G75*
G03*
X23507000Y-9366200I50000J0D01*
G01*
D15*
X15262400Y-3590500D02*
X15340900Y-3512000D01*
X15262400Y-3433500D01*
X15183900Y-3512000D01*
X15262400Y-3590500D01*
X16888400Y-3590500D02*
X16966900Y-3512000D01*
X16888400Y-3433500D01*
X16809900Y-3512000D01*
X16888400Y-3590500D01*
X17221200Y-3590500D02*
X17299700Y-3512000D01*
X17221200Y-3433500D01*
X17142700Y-3512000D01*
X17221200Y-3590500D01*
X18847200Y-3590500D02*
X18925700Y-3512000D01*
X18847200Y-3433500D01*
X18768700Y-3512000D01*
X18847200Y-3590500D01*
X19181000Y-3590500D02*
X19259500Y-3512000D01*
X19181000Y-3433500D01*
X19102500Y-3512000D01*
X19181000Y-3590500D01*
X20807000Y-3590500D02*
X20885500Y-3512000D01*
X20807000Y-3433500D01*
X20728500Y-3512000D01*
X20807000Y-3590500D01*
X21139600Y-3590500D02*
X21218100Y-3512000D01*
X21139600Y-3433500D01*
X21061100Y-3512000D01*
X21139600Y-3590500D01*
X22765600Y-3590500D02*
X22844100Y-3512000D01*
X22765600Y-3433500D01*
X22687100Y-3512000D01*
X22765600Y-3590500D01*
X23097000Y-3590500D02*
X23175500Y-3512000D01*
X23097000Y-3433500D01*
X23018500Y-3512000D01*
X23097000Y-3590500D01*
X24723000Y-3590500D02*
X24801500Y-3512000D01*
X24723000Y-3433500D01*
X24644500Y-3512000D01*
X24723000Y-3590500D01*
D16*
X15357500Y-9280000D02*
X15627500Y-9550000D01*
X15627500Y-9280000D02*
X15357500Y-9550000D01*
X15627500Y-9415000D02*
G75*
G03*
X15627500Y-9415000I-135000J0D01*
G01*
X20858189Y-5236811D02*
X21128189Y-5506811D01*
X21128189Y-5236811D02*
X20858189Y-5506811D01*
X21128189Y-5371811D02*
G75*
G03*
X21128189Y-5371811I-135000J0D01*
G01*
X24471811Y-7271811D02*
X24741811Y-7541811D01*
X24741811Y-7271811D02*
X24471811Y-7541811D01*
X24741811Y-7406811D02*
G75*
G03*
X24741811Y-7406811I-135000J0D01*
G01*
D11*
X15242619Y-10298476D02*
X15242619Y-10098476D01*
X15242619Y-10098476D02*
X15290238Y-10098476D01*
X15290238Y-10098476D02*
X15318809Y-10108000D01*
X15318809Y-10108000D02*
X15337857Y-10127048D01*
X15337857Y-10127048D02*
X15347381Y-10146095D01*
X15347381Y-10146095D02*
X15356905Y-10184190D01*
X15356905Y-10184190D02*
X15356905Y-10212762D01*
X15356905Y-10212762D02*
X15347381Y-10250857D01*
X15347381Y-10250857D02*
X15337857Y-10269905D01*
X15337857Y-10269905D02*
X15318809Y-10288952D01*
X15318809Y-10288952D02*
X15290238Y-10298476D01*
X15290238Y-10298476D02*
X15242619Y-10298476D01*
X15442619Y-10298476D02*
X15442619Y-10165143D01*
X15442619Y-10203238D02*
X15452143Y-10184190D01*
X15452143Y-10184190D02*
X15461667Y-10174667D01*
X15461667Y-10174667D02*
X15480714Y-10165143D01*
X15480714Y-10165143D02*
X15499762Y-10165143D01*
X15566428Y-10298476D02*
X15566428Y-10165143D01*
X15566428Y-10098476D02*
X15556905Y-10108000D01*
X15556905Y-10108000D02*
X15566428Y-10117524D01*
X15566428Y-10117524D02*
X15575952Y-10108000D01*
X15575952Y-10108000D02*
X15566428Y-10098476D01*
X15566428Y-10098476D02*
X15566428Y-10117524D01*
X15690238Y-10298476D02*
X15671190Y-10288952D01*
X15671190Y-10288952D02*
X15661667Y-10269905D01*
X15661667Y-10269905D02*
X15661667Y-10098476D01*
X15795000Y-10298476D02*
X15775952Y-10288952D01*
X15775952Y-10288952D02*
X15766428Y-10269905D01*
X15766428Y-10269905D02*
X15766428Y-10098476D01*
X15991190Y-10298476D02*
X15991190Y-10098476D01*
X15991190Y-10098476D02*
X16057857Y-10241333D01*
X16057857Y-10241333D02*
X16124524Y-10098476D01*
X16124524Y-10098476D02*
X16124524Y-10298476D01*
X16305476Y-10298476D02*
X16305476Y-10193714D01*
X16305476Y-10193714D02*
X16295952Y-10174667D01*
X16295952Y-10174667D02*
X16276905Y-10165143D01*
X16276905Y-10165143D02*
X16238809Y-10165143D01*
X16238809Y-10165143D02*
X16219762Y-10174667D01*
X16305476Y-10288952D02*
X16286428Y-10298476D01*
X16286428Y-10298476D02*
X16238809Y-10298476D01*
X16238809Y-10298476D02*
X16219762Y-10288952D01*
X16219762Y-10288952D02*
X16210238Y-10269905D01*
X16210238Y-10269905D02*
X16210238Y-10250857D01*
X16210238Y-10250857D02*
X16219762Y-10231810D01*
X16219762Y-10231810D02*
X16238809Y-10222286D01*
X16238809Y-10222286D02*
X16286428Y-10222286D01*
X16286428Y-10222286D02*
X16305476Y-10212762D01*
X16400714Y-10165143D02*
X16400714Y-10365143D01*
X16400714Y-10174667D02*
X16419762Y-10165143D01*
X16419762Y-10165143D02*
X16457857Y-10165143D01*
X16457857Y-10165143D02*
X16476905Y-10174667D01*
X16476905Y-10174667D02*
X16486428Y-10184190D01*
X16486428Y-10184190D02*
X16495952Y-10203238D01*
X16495952Y-10203238D02*
X16495952Y-10260381D01*
X16495952Y-10260381D02*
X16486428Y-10279429D01*
X16486428Y-10279429D02*
X16476905Y-10288952D01*
X16476905Y-10288952D02*
X16457857Y-10298476D01*
X16457857Y-10298476D02*
X16419762Y-10298476D01*
X16419762Y-10298476D02*
X16400714Y-10288952D01*
X16581667Y-10279429D02*
X16591190Y-10288952D01*
X16591190Y-10288952D02*
X16581667Y-10298476D01*
X16581667Y-10298476D02*
X16572143Y-10288952D01*
X16572143Y-10288952D02*
X16581667Y-10279429D01*
X16581667Y-10279429D02*
X16581667Y-10298476D01*
X16581667Y-10174667D02*
X16591190Y-10184190D01*
X16591190Y-10184190D02*
X16581667Y-10193714D01*
X16581667Y-10193714D02*
X16572143Y-10184190D01*
X16572143Y-10184190D02*
X16581667Y-10174667D01*
X16581667Y-10174667D02*
X16581667Y-10193714D01*
D12*
X14975000Y-10635000D02*
X14995000Y-10655000D01*
X14995000Y-10635000D02*
X14975000Y-10655000D01*
D11*
X15280714Y-10518476D02*
X15299762Y-10518476D01*
X15299762Y-10518476D02*
X15318809Y-10528000D01*
X15318809Y-10528000D02*
X15328333Y-10537524D01*
X15328333Y-10537524D02*
X15337857Y-10556571D01*
X15337857Y-10556571D02*
X15347381Y-10594667D01*
X15347381Y-10594667D02*
X15347381Y-10642286D01*
X15347381Y-10642286D02*
X15337857Y-10680381D01*
X15337857Y-10680381D02*
X15328333Y-10699429D01*
X15328333Y-10699429D02*
X15318809Y-10708952D01*
X15318809Y-10708952D02*
X15299762Y-10718476D01*
X15299762Y-10718476D02*
X15280714Y-10718476D01*
X15280714Y-10718476D02*
X15261667Y-10708952D01*
X15261667Y-10708952D02*
X15252143Y-10699429D01*
X15252143Y-10699429D02*
X15242619Y-10680381D01*
X15242619Y-10680381D02*
X15233095Y-10642286D01*
X15233095Y-10642286D02*
X15233095Y-10594667D01*
X15233095Y-10594667D02*
X15242619Y-10556571D01*
X15242619Y-10556571D02*
X15252143Y-10537524D01*
X15252143Y-10537524D02*
X15261667Y-10528000D01*
X15261667Y-10528000D02*
X15280714Y-10518476D01*
X15433095Y-10699429D02*
X15442619Y-10708952D01*
X15442619Y-10708952D02*
X15433095Y-10718476D01*
X15433095Y-10718476D02*
X15423571Y-10708952D01*
X15423571Y-10708952D02*
X15433095Y-10699429D01*
X15433095Y-10699429D02*
X15433095Y-10718476D01*
X15518809Y-10537524D02*
X15528333Y-10528000D01*
X15528333Y-10528000D02*
X15547381Y-10518476D01*
X15547381Y-10518476D02*
X15595000Y-10518476D01*
X15595000Y-10518476D02*
X15614048Y-10528000D01*
X15614048Y-10528000D02*
X15623571Y-10537524D01*
X15623571Y-10537524D02*
X15633095Y-10556571D01*
X15633095Y-10556571D02*
X15633095Y-10575619D01*
X15633095Y-10575619D02*
X15623571Y-10604190D01*
X15623571Y-10604190D02*
X15509286Y-10718476D01*
X15509286Y-10718476D02*
X15633095Y-10718476D01*
X15756905Y-10518476D02*
X15775952Y-10518476D01*
X15775952Y-10518476D02*
X15795000Y-10528000D01*
X15795000Y-10528000D02*
X15804524Y-10537524D01*
X15804524Y-10537524D02*
X15814048Y-10556571D01*
X15814048Y-10556571D02*
X15823571Y-10594667D01*
X15823571Y-10594667D02*
X15823571Y-10642286D01*
X15823571Y-10642286D02*
X15814048Y-10680381D01*
X15814048Y-10680381D02*
X15804524Y-10699429D01*
X15804524Y-10699429D02*
X15795000Y-10708952D01*
X15795000Y-10708952D02*
X15775952Y-10718476D01*
X15775952Y-10718476D02*
X15756905Y-10718476D01*
X15756905Y-10718476D02*
X15737857Y-10708952D01*
X15737857Y-10708952D02*
X15728333Y-10699429D01*
X15728333Y-10699429D02*
X15718809Y-10680381D01*
X15718809Y-10680381D02*
X15709286Y-10642286D01*
X15709286Y-10642286D02*
X15709286Y-10594667D01*
X15709286Y-10594667D02*
X15718809Y-10556571D01*
X15718809Y-10556571D02*
X15728333Y-10537524D01*
X15728333Y-10537524D02*
X15737857Y-10528000D01*
X15737857Y-10528000D02*
X15756905Y-10518476D01*
X15947381Y-10518476D02*
X15966429Y-10518476D01*
X15966429Y-10518476D02*
X15985476Y-10528000D01*
X15985476Y-10528000D02*
X15995000Y-10537524D01*
X15995000Y-10537524D02*
X16004524Y-10556571D01*
X16004524Y-10556571D02*
X16014048Y-10594667D01*
X16014048Y-10594667D02*
X16014048Y-10642286D01*
X16014048Y-10642286D02*
X16004524Y-10680381D01*
X16004524Y-10680381D02*
X15995000Y-10699429D01*
X15995000Y-10699429D02*
X15985476Y-10708952D01*
X15985476Y-10708952D02*
X15966429Y-10718476D01*
X15966429Y-10718476D02*
X15947381Y-10718476D01*
X15947381Y-10718476D02*
X15928333Y-10708952D01*
X15928333Y-10708952D02*
X15918809Y-10699429D01*
X15918809Y-10699429D02*
X15909286Y-10680381D01*
X15909286Y-10680381D02*
X15899762Y-10642286D01*
X15899762Y-10642286D02*
X15899762Y-10594667D01*
X15899762Y-10594667D02*
X15909286Y-10556571D01*
X15909286Y-10556571D02*
X15918809Y-10537524D01*
X15918809Y-10537524D02*
X15928333Y-10528000D01*
X15928333Y-10528000D02*
X15947381Y-10518476D01*
X16099762Y-10718476D02*
X16099762Y-10585143D01*
X16099762Y-10604190D02*
X16109286Y-10594667D01*
X16109286Y-10594667D02*
X16128333Y-10585143D01*
X16128333Y-10585143D02*
X16156905Y-10585143D01*
X16156905Y-10585143D02*
X16175952Y-10594667D01*
X16175952Y-10594667D02*
X16185476Y-10613714D01*
X16185476Y-10613714D02*
X16185476Y-10718476D01*
X16185476Y-10613714D02*
X16195000Y-10594667D01*
X16195000Y-10594667D02*
X16214048Y-10585143D01*
X16214048Y-10585143D02*
X16242619Y-10585143D01*
X16242619Y-10585143D02*
X16261667Y-10594667D01*
X16261667Y-10594667D02*
X16271190Y-10613714D01*
X16271190Y-10613714D02*
X16271190Y-10718476D01*
X16366429Y-10718476D02*
X16366429Y-10585143D01*
X16366429Y-10604190D02*
X16375952Y-10594667D01*
X16375952Y-10594667D02*
X16395000Y-10585143D01*
X16395000Y-10585143D02*
X16423571Y-10585143D01*
X16423571Y-10585143D02*
X16442619Y-10594667D01*
X16442619Y-10594667D02*
X16452143Y-10613714D01*
X16452143Y-10613714D02*
X16452143Y-10718476D01*
X16452143Y-10613714D02*
X16461667Y-10594667D01*
X16461667Y-10594667D02*
X16480714Y-10585143D01*
X16480714Y-10585143D02*
X16509286Y-10585143D01*
X16509286Y-10585143D02*
X16528333Y-10594667D01*
X16528333Y-10594667D02*
X16537857Y-10613714D01*
X16537857Y-10613714D02*
X16537857Y-10718476D01*
X16895952Y-10508952D02*
X16724524Y-10766095D01*
X17120714Y-10518476D02*
X17139762Y-10518476D01*
X17139762Y-10518476D02*
X17158810Y-10528000D01*
X17158810Y-10528000D02*
X17168333Y-10537524D01*
X17168333Y-10537524D02*
X17177857Y-10556571D01*
X17177857Y-10556571D02*
X17187381Y-10594667D01*
X17187381Y-10594667D02*
X17187381Y-10642286D01*
X17187381Y-10642286D02*
X17177857Y-10680381D01*
X17177857Y-10680381D02*
X17168333Y-10699429D01*
X17168333Y-10699429D02*
X17158810Y-10708952D01*
X17158810Y-10708952D02*
X17139762Y-10718476D01*
X17139762Y-10718476D02*
X17120714Y-10718476D01*
X17120714Y-10718476D02*
X17101667Y-10708952D01*
X17101667Y-10708952D02*
X17092143Y-10699429D01*
X17092143Y-10699429D02*
X17082619Y-10680381D01*
X17082619Y-10680381D02*
X17073095Y-10642286D01*
X17073095Y-10642286D02*
X17073095Y-10594667D01*
X17073095Y-10594667D02*
X17082619Y-10556571D01*
X17082619Y-10556571D02*
X17092143Y-10537524D01*
X17092143Y-10537524D02*
X17101667Y-10528000D01*
X17101667Y-10528000D02*
X17120714Y-10518476D01*
X17273095Y-10699429D02*
X17282619Y-10708952D01*
X17282619Y-10708952D02*
X17273095Y-10718476D01*
X17273095Y-10718476D02*
X17263572Y-10708952D01*
X17263572Y-10708952D02*
X17273095Y-10699429D01*
X17273095Y-10699429D02*
X17273095Y-10718476D01*
X17406429Y-10518476D02*
X17425476Y-10518476D01*
X17425476Y-10518476D02*
X17444524Y-10528000D01*
X17444524Y-10528000D02*
X17454048Y-10537524D01*
X17454048Y-10537524D02*
X17463572Y-10556571D01*
X17463572Y-10556571D02*
X17473095Y-10594667D01*
X17473095Y-10594667D02*
X17473095Y-10642286D01*
X17473095Y-10642286D02*
X17463572Y-10680381D01*
X17463572Y-10680381D02*
X17454048Y-10699429D01*
X17454048Y-10699429D02*
X17444524Y-10708952D01*
X17444524Y-10708952D02*
X17425476Y-10718476D01*
X17425476Y-10718476D02*
X17406429Y-10718476D01*
X17406429Y-10718476D02*
X17387381Y-10708952D01*
X17387381Y-10708952D02*
X17377857Y-10699429D01*
X17377857Y-10699429D02*
X17368333Y-10680381D01*
X17368333Y-10680381D02*
X17358810Y-10642286D01*
X17358810Y-10642286D02*
X17358810Y-10594667D01*
X17358810Y-10594667D02*
X17368333Y-10556571D01*
X17368333Y-10556571D02*
X17377857Y-10537524D01*
X17377857Y-10537524D02*
X17387381Y-10528000D01*
X17387381Y-10528000D02*
X17406429Y-10518476D01*
X17596905Y-10518476D02*
X17615953Y-10518476D01*
X17615953Y-10518476D02*
X17635000Y-10528000D01*
X17635000Y-10528000D02*
X17644524Y-10537524D01*
X17644524Y-10537524D02*
X17654048Y-10556571D01*
X17654048Y-10556571D02*
X17663572Y-10594667D01*
X17663572Y-10594667D02*
X17663572Y-10642286D01*
X17663572Y-10642286D02*
X17654048Y-10680381D01*
X17654048Y-10680381D02*
X17644524Y-10699429D01*
X17644524Y-10699429D02*
X17635000Y-10708952D01*
X17635000Y-10708952D02*
X17615953Y-10718476D01*
X17615953Y-10718476D02*
X17596905Y-10718476D01*
X17596905Y-10718476D02*
X17577857Y-10708952D01*
X17577857Y-10708952D02*
X17568333Y-10699429D01*
X17568333Y-10699429D02*
X17558810Y-10680381D01*
X17558810Y-10680381D02*
X17549286Y-10642286D01*
X17549286Y-10642286D02*
X17549286Y-10594667D01*
X17549286Y-10594667D02*
X17558810Y-10556571D01*
X17558810Y-10556571D02*
X17568333Y-10537524D01*
X17568333Y-10537524D02*
X17577857Y-10528000D01*
X17577857Y-10528000D02*
X17596905Y-10518476D01*
X17730238Y-10518476D02*
X17863572Y-10518476D01*
X17863572Y-10518476D02*
X17777857Y-10718476D01*
X17949286Y-10718476D02*
X17987381Y-10718476D01*
X17987381Y-10718476D02*
X18006429Y-10708952D01*
X18006429Y-10708952D02*
X18015953Y-10699429D01*
X18015953Y-10699429D02*
X18035000Y-10670857D01*
X18035000Y-10670857D02*
X18044524Y-10632762D01*
X18044524Y-10632762D02*
X18044524Y-10556571D01*
X18044524Y-10556571D02*
X18035000Y-10537524D01*
X18035000Y-10537524D02*
X18025476Y-10528000D01*
X18025476Y-10528000D02*
X18006429Y-10518476D01*
X18006429Y-10518476D02*
X17968333Y-10518476D01*
X17968333Y-10518476D02*
X17949286Y-10528000D01*
X17949286Y-10528000D02*
X17939762Y-10537524D01*
X17939762Y-10537524D02*
X17930238Y-10556571D01*
X17930238Y-10556571D02*
X17930238Y-10604190D01*
X17930238Y-10604190D02*
X17939762Y-10623238D01*
X17939762Y-10623238D02*
X17949286Y-10632762D01*
X17949286Y-10632762D02*
X17968333Y-10642286D01*
X17968333Y-10642286D02*
X18006429Y-10642286D01*
X18006429Y-10642286D02*
X18025476Y-10632762D01*
X18025476Y-10632762D02*
X18035000Y-10623238D01*
X18035000Y-10623238D02*
X18044524Y-10604190D01*
X18120714Y-10518476D02*
X18120714Y-10556571D01*
X18196905Y-10518476D02*
X18196905Y-10556571D01*
X18459762Y-10794667D02*
X18450238Y-10785143D01*
X18450238Y-10785143D02*
X18431191Y-10756571D01*
X18431191Y-10756571D02*
X18421667Y-10737524D01*
X18421667Y-10737524D02*
X18412143Y-10708952D01*
X18412143Y-10708952D02*
X18402619Y-10661333D01*
X18402619Y-10661333D02*
X18402619Y-10623238D01*
X18402619Y-10623238D02*
X18412143Y-10575619D01*
X18412143Y-10575619D02*
X18421667Y-10547048D01*
X18421667Y-10547048D02*
X18431191Y-10528000D01*
X18431191Y-10528000D02*
X18450238Y-10499429D01*
X18450238Y-10499429D02*
X18459762Y-10489905D01*
X18516905Y-10518476D02*
X18640714Y-10518476D01*
X18640714Y-10518476D02*
X18574048Y-10594667D01*
X18574048Y-10594667D02*
X18602619Y-10594667D01*
X18602619Y-10594667D02*
X18621667Y-10604190D01*
X18621667Y-10604190D02*
X18631191Y-10613714D01*
X18631191Y-10613714D02*
X18640714Y-10632762D01*
X18640714Y-10632762D02*
X18640714Y-10680381D01*
X18640714Y-10680381D02*
X18631191Y-10699429D01*
X18631191Y-10699429D02*
X18621667Y-10708952D01*
X18621667Y-10708952D02*
X18602619Y-10718476D01*
X18602619Y-10718476D02*
X18545476Y-10718476D01*
X18545476Y-10718476D02*
X18526429Y-10708952D01*
X18526429Y-10708952D02*
X18516905Y-10699429D01*
X18716905Y-10537524D02*
X18726429Y-10528000D01*
X18726429Y-10528000D02*
X18745476Y-10518476D01*
X18745476Y-10518476D02*
X18793095Y-10518476D01*
X18793095Y-10518476D02*
X18812143Y-10528000D01*
X18812143Y-10528000D02*
X18821667Y-10537524D01*
X18821667Y-10537524D02*
X18831191Y-10556571D01*
X18831191Y-10556571D02*
X18831191Y-10575619D01*
X18831191Y-10575619D02*
X18821667Y-10604190D01*
X18821667Y-10604190D02*
X18707381Y-10718476D01*
X18707381Y-10718476D02*
X18831191Y-10718476D01*
X18897857Y-10518476D02*
X19031191Y-10518476D01*
X19031191Y-10518476D02*
X18945476Y-10718476D01*
X19227381Y-10718476D02*
X19227381Y-10518476D01*
X19313095Y-10718476D02*
X19313095Y-10613714D01*
X19313095Y-10613714D02*
X19303572Y-10594667D01*
X19303572Y-10594667D02*
X19284524Y-10585143D01*
X19284524Y-10585143D02*
X19255953Y-10585143D01*
X19255953Y-10585143D02*
X19236905Y-10594667D01*
X19236905Y-10594667D02*
X19227381Y-10604190D01*
X19436905Y-10718476D02*
X19417857Y-10708952D01*
X19417857Y-10708952D02*
X19408334Y-10699429D01*
X19408334Y-10699429D02*
X19398810Y-10680381D01*
X19398810Y-10680381D02*
X19398810Y-10623238D01*
X19398810Y-10623238D02*
X19408334Y-10604190D01*
X19408334Y-10604190D02*
X19417857Y-10594667D01*
X19417857Y-10594667D02*
X19436905Y-10585143D01*
X19436905Y-10585143D02*
X19465476Y-10585143D01*
X19465476Y-10585143D02*
X19484524Y-10594667D01*
X19484524Y-10594667D02*
X19494048Y-10604190D01*
X19494048Y-10604190D02*
X19503572Y-10623238D01*
X19503572Y-10623238D02*
X19503572Y-10680381D01*
X19503572Y-10680381D02*
X19494048Y-10699429D01*
X19494048Y-10699429D02*
X19484524Y-10708952D01*
X19484524Y-10708952D02*
X19465476Y-10718476D01*
X19465476Y-10718476D02*
X19436905Y-10718476D01*
X19617857Y-10718476D02*
X19598810Y-10708952D01*
X19598810Y-10708952D02*
X19589286Y-10689905D01*
X19589286Y-10689905D02*
X19589286Y-10518476D01*
X19770238Y-10708952D02*
X19751191Y-10718476D01*
X19751191Y-10718476D02*
X19713095Y-10718476D01*
X19713095Y-10718476D02*
X19694048Y-10708952D01*
X19694048Y-10708952D02*
X19684524Y-10689905D01*
X19684524Y-10689905D02*
X19684524Y-10613714D01*
X19684524Y-10613714D02*
X19694048Y-10594667D01*
X19694048Y-10594667D02*
X19713095Y-10585143D01*
X19713095Y-10585143D02*
X19751191Y-10585143D01*
X19751191Y-10585143D02*
X19770238Y-10594667D01*
X19770238Y-10594667D02*
X19779762Y-10613714D01*
X19779762Y-10613714D02*
X19779762Y-10632762D01*
X19779762Y-10632762D02*
X19684524Y-10651810D01*
X19855953Y-10708952D02*
X19875000Y-10718476D01*
X19875000Y-10718476D02*
X19913095Y-10718476D01*
X19913095Y-10718476D02*
X19932143Y-10708952D01*
X19932143Y-10708952D02*
X19941667Y-10689905D01*
X19941667Y-10689905D02*
X19941667Y-10680381D01*
X19941667Y-10680381D02*
X19932143Y-10661333D01*
X19932143Y-10661333D02*
X19913095Y-10651810D01*
X19913095Y-10651810D02*
X19884524Y-10651810D01*
X19884524Y-10651810D02*
X19865476Y-10642286D01*
X19865476Y-10642286D02*
X19855953Y-10623238D01*
X19855953Y-10623238D02*
X19855953Y-10613714D01*
X19855953Y-10613714D02*
X19865476Y-10594667D01*
X19865476Y-10594667D02*
X19884524Y-10585143D01*
X19884524Y-10585143D02*
X19913095Y-10585143D01*
X19913095Y-10585143D02*
X19932143Y-10594667D01*
X20008334Y-10794667D02*
X20017857Y-10785143D01*
X20017857Y-10785143D02*
X20036905Y-10756571D01*
X20036905Y-10756571D02*
X20046429Y-10737524D01*
X20046429Y-10737524D02*
X20055953Y-10708952D01*
X20055953Y-10708952D02*
X20065476Y-10661333D01*
X20065476Y-10661333D02*
X20065476Y-10623238D01*
X20065476Y-10623238D02*
X20055953Y-10575619D01*
X20055953Y-10575619D02*
X20046429Y-10547048D01*
X20046429Y-10547048D02*
X20036905Y-10528000D01*
X20036905Y-10528000D02*
X20017857Y-10499429D01*
X20017857Y-10499429D02*
X20008334Y-10489905D01*
D13*
X14995000Y-10909000D02*
G75*
G03*
X14995000Y-10909000I-25000J0D01*
G01*
D11*
X15280714Y-10782476D02*
X15299762Y-10782476D01*
X15299762Y-10782476D02*
X15318809Y-10792000D01*
X15318809Y-10792000D02*
X15328333Y-10801524D01*
X15328333Y-10801524D02*
X15337857Y-10820571D01*
X15337857Y-10820571D02*
X15347381Y-10858667D01*
X15347381Y-10858667D02*
X15347381Y-10906286D01*
X15347381Y-10906286D02*
X15337857Y-10944381D01*
X15337857Y-10944381D02*
X15328333Y-10963429D01*
X15328333Y-10963429D02*
X15318809Y-10972952D01*
X15318809Y-10972952D02*
X15299762Y-10982476D01*
X15299762Y-10982476D02*
X15280714Y-10982476D01*
X15280714Y-10982476D02*
X15261667Y-10972952D01*
X15261667Y-10972952D02*
X15252143Y-10963429D01*
X15252143Y-10963429D02*
X15242619Y-10944381D01*
X15242619Y-10944381D02*
X15233095Y-10906286D01*
X15233095Y-10906286D02*
X15233095Y-10858667D01*
X15233095Y-10858667D02*
X15242619Y-10820571D01*
X15242619Y-10820571D02*
X15252143Y-10801524D01*
X15252143Y-10801524D02*
X15261667Y-10792000D01*
X15261667Y-10792000D02*
X15280714Y-10782476D01*
X15433095Y-10963429D02*
X15442619Y-10972952D01*
X15442619Y-10972952D02*
X15433095Y-10982476D01*
X15433095Y-10982476D02*
X15423571Y-10972952D01*
X15423571Y-10972952D02*
X15433095Y-10963429D01*
X15433095Y-10963429D02*
X15433095Y-10982476D01*
X15623571Y-10782476D02*
X15528333Y-10782476D01*
X15528333Y-10782476D02*
X15518809Y-10877714D01*
X15518809Y-10877714D02*
X15528333Y-10868190D01*
X15528333Y-10868190D02*
X15547381Y-10858667D01*
X15547381Y-10858667D02*
X15595000Y-10858667D01*
X15595000Y-10858667D02*
X15614048Y-10868190D01*
X15614048Y-10868190D02*
X15623571Y-10877714D01*
X15623571Y-10877714D02*
X15633095Y-10896762D01*
X15633095Y-10896762D02*
X15633095Y-10944381D01*
X15633095Y-10944381D02*
X15623571Y-10963429D01*
X15623571Y-10963429D02*
X15614048Y-10972952D01*
X15614048Y-10972952D02*
X15595000Y-10982476D01*
X15595000Y-10982476D02*
X15547381Y-10982476D01*
X15547381Y-10982476D02*
X15528333Y-10972952D01*
X15528333Y-10972952D02*
X15518809Y-10963429D01*
X15756905Y-10782476D02*
X15775952Y-10782476D01*
X15775952Y-10782476D02*
X15795000Y-10792000D01*
X15795000Y-10792000D02*
X15804524Y-10801524D01*
X15804524Y-10801524D02*
X15814048Y-10820571D01*
X15814048Y-10820571D02*
X15823571Y-10858667D01*
X15823571Y-10858667D02*
X15823571Y-10906286D01*
X15823571Y-10906286D02*
X15814048Y-10944381D01*
X15814048Y-10944381D02*
X15804524Y-10963429D01*
X15804524Y-10963429D02*
X15795000Y-10972952D01*
X15795000Y-10972952D02*
X15775952Y-10982476D01*
X15775952Y-10982476D02*
X15756905Y-10982476D01*
X15756905Y-10982476D02*
X15737857Y-10972952D01*
X15737857Y-10972952D02*
X15728333Y-10963429D01*
X15728333Y-10963429D02*
X15718809Y-10944381D01*
X15718809Y-10944381D02*
X15709286Y-10906286D01*
X15709286Y-10906286D02*
X15709286Y-10858667D01*
X15709286Y-10858667D02*
X15718809Y-10820571D01*
X15718809Y-10820571D02*
X15728333Y-10801524D01*
X15728333Y-10801524D02*
X15737857Y-10792000D01*
X15737857Y-10792000D02*
X15756905Y-10782476D01*
X15947381Y-10782476D02*
X15966429Y-10782476D01*
X15966429Y-10782476D02*
X15985476Y-10792000D01*
X15985476Y-10792000D02*
X15995000Y-10801524D01*
X15995000Y-10801524D02*
X16004524Y-10820571D01*
X16004524Y-10820571D02*
X16014048Y-10858667D01*
X16014048Y-10858667D02*
X16014048Y-10906286D01*
X16014048Y-10906286D02*
X16004524Y-10944381D01*
X16004524Y-10944381D02*
X15995000Y-10963429D01*
X15995000Y-10963429D02*
X15985476Y-10972952D01*
X15985476Y-10972952D02*
X15966429Y-10982476D01*
X15966429Y-10982476D02*
X15947381Y-10982476D01*
X15947381Y-10982476D02*
X15928333Y-10972952D01*
X15928333Y-10972952D02*
X15918809Y-10963429D01*
X15918809Y-10963429D02*
X15909286Y-10944381D01*
X15909286Y-10944381D02*
X15899762Y-10906286D01*
X15899762Y-10906286D02*
X15899762Y-10858667D01*
X15899762Y-10858667D02*
X15909286Y-10820571D01*
X15909286Y-10820571D02*
X15918809Y-10801524D01*
X15918809Y-10801524D02*
X15928333Y-10792000D01*
X15928333Y-10792000D02*
X15947381Y-10782476D01*
X16099762Y-10982476D02*
X16099762Y-10849143D01*
X16099762Y-10868190D02*
X16109286Y-10858667D01*
X16109286Y-10858667D02*
X16128333Y-10849143D01*
X16128333Y-10849143D02*
X16156905Y-10849143D01*
X16156905Y-10849143D02*
X16175952Y-10858667D01*
X16175952Y-10858667D02*
X16185476Y-10877714D01*
X16185476Y-10877714D02*
X16185476Y-10982476D01*
X16185476Y-10877714D02*
X16195000Y-10858667D01*
X16195000Y-10858667D02*
X16214048Y-10849143D01*
X16214048Y-10849143D02*
X16242619Y-10849143D01*
X16242619Y-10849143D02*
X16261667Y-10858667D01*
X16261667Y-10858667D02*
X16271190Y-10877714D01*
X16271190Y-10877714D02*
X16271190Y-10982476D01*
X16366429Y-10982476D02*
X16366429Y-10849143D01*
X16366429Y-10868190D02*
X16375952Y-10858667D01*
X16375952Y-10858667D02*
X16395000Y-10849143D01*
X16395000Y-10849143D02*
X16423571Y-10849143D01*
X16423571Y-10849143D02*
X16442619Y-10858667D01*
X16442619Y-10858667D02*
X16452143Y-10877714D01*
X16452143Y-10877714D02*
X16452143Y-10982476D01*
X16452143Y-10877714D02*
X16461667Y-10858667D01*
X16461667Y-10858667D02*
X16480714Y-10849143D01*
X16480714Y-10849143D02*
X16509286Y-10849143D01*
X16509286Y-10849143D02*
X16528333Y-10858667D01*
X16528333Y-10858667D02*
X16537857Y-10877714D01*
X16537857Y-10877714D02*
X16537857Y-10982476D01*
X16895952Y-10772952D02*
X16724524Y-11030095D01*
X17120714Y-10782476D02*
X17139762Y-10782476D01*
X17139762Y-10782476D02*
X17158810Y-10792000D01*
X17158810Y-10792000D02*
X17168333Y-10801524D01*
X17168333Y-10801524D02*
X17177857Y-10820571D01*
X17177857Y-10820571D02*
X17187381Y-10858667D01*
X17187381Y-10858667D02*
X17187381Y-10906286D01*
X17187381Y-10906286D02*
X17177857Y-10944381D01*
X17177857Y-10944381D02*
X17168333Y-10963429D01*
X17168333Y-10963429D02*
X17158810Y-10972952D01*
X17158810Y-10972952D02*
X17139762Y-10982476D01*
X17139762Y-10982476D02*
X17120714Y-10982476D01*
X17120714Y-10982476D02*
X17101667Y-10972952D01*
X17101667Y-10972952D02*
X17092143Y-10963429D01*
X17092143Y-10963429D02*
X17082619Y-10944381D01*
X17082619Y-10944381D02*
X17073095Y-10906286D01*
X17073095Y-10906286D02*
X17073095Y-10858667D01*
X17073095Y-10858667D02*
X17082619Y-10820571D01*
X17082619Y-10820571D02*
X17092143Y-10801524D01*
X17092143Y-10801524D02*
X17101667Y-10792000D01*
X17101667Y-10792000D02*
X17120714Y-10782476D01*
X17273095Y-10963429D02*
X17282619Y-10972952D01*
X17282619Y-10972952D02*
X17273095Y-10982476D01*
X17273095Y-10982476D02*
X17263572Y-10972952D01*
X17263572Y-10972952D02*
X17273095Y-10963429D01*
X17273095Y-10963429D02*
X17273095Y-10982476D01*
X17406429Y-10782476D02*
X17425476Y-10782476D01*
X17425476Y-10782476D02*
X17444524Y-10792000D01*
X17444524Y-10792000D02*
X17454048Y-10801524D01*
X17454048Y-10801524D02*
X17463572Y-10820571D01*
X17463572Y-10820571D02*
X17473095Y-10858667D01*
X17473095Y-10858667D02*
X17473095Y-10906286D01*
X17473095Y-10906286D02*
X17463572Y-10944381D01*
X17463572Y-10944381D02*
X17454048Y-10963429D01*
X17454048Y-10963429D02*
X17444524Y-10972952D01*
X17444524Y-10972952D02*
X17425476Y-10982476D01*
X17425476Y-10982476D02*
X17406429Y-10982476D01*
X17406429Y-10982476D02*
X17387381Y-10972952D01*
X17387381Y-10972952D02*
X17377857Y-10963429D01*
X17377857Y-10963429D02*
X17368333Y-10944381D01*
X17368333Y-10944381D02*
X17358810Y-10906286D01*
X17358810Y-10906286D02*
X17358810Y-10858667D01*
X17358810Y-10858667D02*
X17368333Y-10820571D01*
X17368333Y-10820571D02*
X17377857Y-10801524D01*
X17377857Y-10801524D02*
X17387381Y-10792000D01*
X17387381Y-10792000D02*
X17406429Y-10782476D01*
X17663572Y-10982476D02*
X17549286Y-10982476D01*
X17606429Y-10982476D02*
X17606429Y-10782476D01*
X17606429Y-10782476D02*
X17587381Y-10811048D01*
X17587381Y-10811048D02*
X17568333Y-10830095D01*
X17568333Y-10830095D02*
X17549286Y-10839619D01*
X17758810Y-10982476D02*
X17796905Y-10982476D01*
X17796905Y-10982476D02*
X17815953Y-10972952D01*
X17815953Y-10972952D02*
X17825476Y-10963429D01*
X17825476Y-10963429D02*
X17844524Y-10934857D01*
X17844524Y-10934857D02*
X17854048Y-10896762D01*
X17854048Y-10896762D02*
X17854048Y-10820571D01*
X17854048Y-10820571D02*
X17844524Y-10801524D01*
X17844524Y-10801524D02*
X17835000Y-10792000D01*
X17835000Y-10792000D02*
X17815953Y-10782476D01*
X17815953Y-10782476D02*
X17777857Y-10782476D01*
X17777857Y-10782476D02*
X17758810Y-10792000D01*
X17758810Y-10792000D02*
X17749286Y-10801524D01*
X17749286Y-10801524D02*
X17739762Y-10820571D01*
X17739762Y-10820571D02*
X17739762Y-10868190D01*
X17739762Y-10868190D02*
X17749286Y-10887238D01*
X17749286Y-10887238D02*
X17758810Y-10896762D01*
X17758810Y-10896762D02*
X17777857Y-10906286D01*
X17777857Y-10906286D02*
X17815953Y-10906286D01*
X17815953Y-10906286D02*
X17835000Y-10896762D01*
X17835000Y-10896762D02*
X17844524Y-10887238D01*
X17844524Y-10887238D02*
X17854048Y-10868190D01*
X17920714Y-10782476D02*
X18054048Y-10782476D01*
X18054048Y-10782476D02*
X17968333Y-10982476D01*
X18120714Y-10782476D02*
X18120714Y-10820571D01*
X18196905Y-10782476D02*
X18196905Y-10820571D01*
X18459762Y-11058667D02*
X18450238Y-11049143D01*
X18450238Y-11049143D02*
X18431191Y-11020571D01*
X18431191Y-11020571D02*
X18421667Y-11001524D01*
X18421667Y-11001524D02*
X18412143Y-10972952D01*
X18412143Y-10972952D02*
X18402619Y-10925333D01*
X18402619Y-10925333D02*
X18402619Y-10887238D01*
X18402619Y-10887238D02*
X18412143Y-10839619D01*
X18412143Y-10839619D02*
X18421667Y-10811048D01*
X18421667Y-10811048D02*
X18431191Y-10792000D01*
X18431191Y-10792000D02*
X18450238Y-10763429D01*
X18450238Y-10763429D02*
X18459762Y-10753905D01*
X18526429Y-10801524D02*
X18535953Y-10792000D01*
X18535953Y-10792000D02*
X18555000Y-10782476D01*
X18555000Y-10782476D02*
X18602619Y-10782476D01*
X18602619Y-10782476D02*
X18621667Y-10792000D01*
X18621667Y-10792000D02*
X18631191Y-10801524D01*
X18631191Y-10801524D02*
X18640714Y-10820571D01*
X18640714Y-10820571D02*
X18640714Y-10839619D01*
X18640714Y-10839619D02*
X18631191Y-10868190D01*
X18631191Y-10868190D02*
X18516905Y-10982476D01*
X18516905Y-10982476D02*
X18640714Y-10982476D01*
X18812143Y-10849143D02*
X18812143Y-10982476D01*
X18764524Y-10772952D02*
X18716905Y-10915810D01*
X18716905Y-10915810D02*
X18840714Y-10915810D01*
X19036905Y-10982476D02*
X19036905Y-10782476D01*
X19122619Y-10982476D02*
X19122619Y-10877714D01*
X19122619Y-10877714D02*
X19113095Y-10858667D01*
X19113095Y-10858667D02*
X19094048Y-10849143D01*
X19094048Y-10849143D02*
X19065476Y-10849143D01*
X19065476Y-10849143D02*
X19046429Y-10858667D01*
X19046429Y-10858667D02*
X19036905Y-10868190D01*
X19246429Y-10982476D02*
X19227381Y-10972952D01*
X19227381Y-10972952D02*
X19217857Y-10963429D01*
X19217857Y-10963429D02*
X19208334Y-10944381D01*
X19208334Y-10944381D02*
X19208334Y-10887238D01*
X19208334Y-10887238D02*
X19217857Y-10868190D01*
X19217857Y-10868190D02*
X19227381Y-10858667D01*
X19227381Y-10858667D02*
X19246429Y-10849143D01*
X19246429Y-10849143D02*
X19275000Y-10849143D01*
X19275000Y-10849143D02*
X19294048Y-10858667D01*
X19294048Y-10858667D02*
X19303572Y-10868190D01*
X19303572Y-10868190D02*
X19313095Y-10887238D01*
X19313095Y-10887238D02*
X19313095Y-10944381D01*
X19313095Y-10944381D02*
X19303572Y-10963429D01*
X19303572Y-10963429D02*
X19294048Y-10972952D01*
X19294048Y-10972952D02*
X19275000Y-10982476D01*
X19275000Y-10982476D02*
X19246429Y-10982476D01*
X19427381Y-10982476D02*
X19408334Y-10972952D01*
X19408334Y-10972952D02*
X19398810Y-10953905D01*
X19398810Y-10953905D02*
X19398810Y-10782476D01*
X19579762Y-10972952D02*
X19560715Y-10982476D01*
X19560715Y-10982476D02*
X19522619Y-10982476D01*
X19522619Y-10982476D02*
X19503572Y-10972952D01*
X19503572Y-10972952D02*
X19494048Y-10953905D01*
X19494048Y-10953905D02*
X19494048Y-10877714D01*
X19494048Y-10877714D02*
X19503572Y-10858667D01*
X19503572Y-10858667D02*
X19522619Y-10849143D01*
X19522619Y-10849143D02*
X19560715Y-10849143D01*
X19560715Y-10849143D02*
X19579762Y-10858667D01*
X19579762Y-10858667D02*
X19589286Y-10877714D01*
X19589286Y-10877714D02*
X19589286Y-10896762D01*
X19589286Y-10896762D02*
X19494048Y-10915810D01*
X19665476Y-10972952D02*
X19684524Y-10982476D01*
X19684524Y-10982476D02*
X19722619Y-10982476D01*
X19722619Y-10982476D02*
X19741667Y-10972952D01*
X19741667Y-10972952D02*
X19751191Y-10953905D01*
X19751191Y-10953905D02*
X19751191Y-10944381D01*
X19751191Y-10944381D02*
X19741667Y-10925333D01*
X19741667Y-10925333D02*
X19722619Y-10915810D01*
X19722619Y-10915810D02*
X19694048Y-10915810D01*
X19694048Y-10915810D02*
X19675000Y-10906286D01*
X19675000Y-10906286D02*
X19665476Y-10887238D01*
X19665476Y-10887238D02*
X19665476Y-10877714D01*
X19665476Y-10877714D02*
X19675000Y-10858667D01*
X19675000Y-10858667D02*
X19694048Y-10849143D01*
X19694048Y-10849143D02*
X19722619Y-10849143D01*
X19722619Y-10849143D02*
X19741667Y-10858667D01*
X19817857Y-11058667D02*
X19827381Y-11049143D01*
X19827381Y-11049143D02*
X19846429Y-11020571D01*
X19846429Y-11020571D02*
X19855953Y-11001524D01*
X19855953Y-11001524D02*
X19865476Y-10972952D01*
X19865476Y-10972952D02*
X19875000Y-10925333D01*
X19875000Y-10925333D02*
X19875000Y-10887238D01*
X19875000Y-10887238D02*
X19865476Y-10839619D01*
X19865476Y-10839619D02*
X19855953Y-10811048D01*
X19855953Y-10811048D02*
X19846429Y-10792000D01*
X19846429Y-10792000D02*
X19827381Y-10763429D01*
X19827381Y-10763429D02*
X19817857Y-10753905D01*
D14*
X14950500Y-11128500D02*
X14950500Y-11217500D01*
X14906000Y-11173000D02*
X14995000Y-11173000D01*
D11*
X15280714Y-11046476D02*
X15299762Y-11046476D01*
X15299762Y-11046476D02*
X15318809Y-11056000D01*
X15318809Y-11056000D02*
X15328333Y-11065524D01*
X15328333Y-11065524D02*
X15337857Y-11084571D01*
X15337857Y-11084571D02*
X15347381Y-11122667D01*
X15347381Y-11122667D02*
X15347381Y-11170286D01*
X15347381Y-11170286D02*
X15337857Y-11208381D01*
X15337857Y-11208381D02*
X15328333Y-11227428D01*
X15328333Y-11227428D02*
X15318809Y-11236952D01*
X15318809Y-11236952D02*
X15299762Y-11246476D01*
X15299762Y-11246476D02*
X15280714Y-11246476D01*
X15280714Y-11246476D02*
X15261667Y-11236952D01*
X15261667Y-11236952D02*
X15252143Y-11227428D01*
X15252143Y-11227428D02*
X15242619Y-11208381D01*
X15242619Y-11208381D02*
X15233095Y-11170286D01*
X15233095Y-11170286D02*
X15233095Y-11122667D01*
X15233095Y-11122667D02*
X15242619Y-11084571D01*
X15242619Y-11084571D02*
X15252143Y-11065524D01*
X15252143Y-11065524D02*
X15261667Y-11056000D01*
X15261667Y-11056000D02*
X15280714Y-11046476D01*
X15433095Y-11227428D02*
X15442619Y-11236952D01*
X15442619Y-11236952D02*
X15433095Y-11246476D01*
X15433095Y-11246476D02*
X15423571Y-11236952D01*
X15423571Y-11236952D02*
X15433095Y-11227428D01*
X15433095Y-11227428D02*
X15433095Y-11246476D01*
X15556905Y-11132190D02*
X15537857Y-11122667D01*
X15537857Y-11122667D02*
X15528333Y-11113143D01*
X15528333Y-11113143D02*
X15518809Y-11094095D01*
X15518809Y-11094095D02*
X15518809Y-11084571D01*
X15518809Y-11084571D02*
X15528333Y-11065524D01*
X15528333Y-11065524D02*
X15537857Y-11056000D01*
X15537857Y-11056000D02*
X15556905Y-11046476D01*
X15556905Y-11046476D02*
X15595000Y-11046476D01*
X15595000Y-11046476D02*
X15614048Y-11056000D01*
X15614048Y-11056000D02*
X15623571Y-11065524D01*
X15623571Y-11065524D02*
X15633095Y-11084571D01*
X15633095Y-11084571D02*
X15633095Y-11094095D01*
X15633095Y-11094095D02*
X15623571Y-11113143D01*
X15623571Y-11113143D02*
X15614048Y-11122667D01*
X15614048Y-11122667D02*
X15595000Y-11132190D01*
X15595000Y-11132190D02*
X15556905Y-11132190D01*
X15556905Y-11132190D02*
X15537857Y-11141714D01*
X15537857Y-11141714D02*
X15528333Y-11151238D01*
X15528333Y-11151238D02*
X15518809Y-11170286D01*
X15518809Y-11170286D02*
X15518809Y-11208381D01*
X15518809Y-11208381D02*
X15528333Y-11227428D01*
X15528333Y-11227428D02*
X15537857Y-11236952D01*
X15537857Y-11236952D02*
X15556905Y-11246476D01*
X15556905Y-11246476D02*
X15595000Y-11246476D01*
X15595000Y-11246476D02*
X15614048Y-11236952D01*
X15614048Y-11236952D02*
X15623571Y-11227428D01*
X15623571Y-11227428D02*
X15633095Y-11208381D01*
X15633095Y-11208381D02*
X15633095Y-11170286D01*
X15633095Y-11170286D02*
X15623571Y-11151238D01*
X15623571Y-11151238D02*
X15614048Y-11141714D01*
X15614048Y-11141714D02*
X15595000Y-11132190D01*
X15728333Y-11246476D02*
X15766428Y-11246476D01*
X15766428Y-11246476D02*
X15785476Y-11236952D01*
X15785476Y-11236952D02*
X15795000Y-11227428D01*
X15795000Y-11227428D02*
X15814048Y-11198857D01*
X15814048Y-11198857D02*
X15823571Y-11160762D01*
X15823571Y-11160762D02*
X15823571Y-11084571D01*
X15823571Y-11084571D02*
X15814048Y-11065524D01*
X15814048Y-11065524D02*
X15804524Y-11056000D01*
X15804524Y-11056000D02*
X15785476Y-11046476D01*
X15785476Y-11046476D02*
X15747381Y-11046476D01*
X15747381Y-11046476D02*
X15728333Y-11056000D01*
X15728333Y-11056000D02*
X15718809Y-11065524D01*
X15718809Y-11065524D02*
X15709286Y-11084571D01*
X15709286Y-11084571D02*
X15709286Y-11132190D01*
X15709286Y-11132190D02*
X15718809Y-11151238D01*
X15718809Y-11151238D02*
X15728333Y-11160762D01*
X15728333Y-11160762D02*
X15747381Y-11170286D01*
X15747381Y-11170286D02*
X15785476Y-11170286D01*
X15785476Y-11170286D02*
X15804524Y-11160762D01*
X15804524Y-11160762D02*
X15814048Y-11151238D01*
X15814048Y-11151238D02*
X15823571Y-11132190D01*
X15947381Y-11046476D02*
X15966429Y-11046476D01*
X15966429Y-11046476D02*
X15985476Y-11056000D01*
X15985476Y-11056000D02*
X15995000Y-11065524D01*
X15995000Y-11065524D02*
X16004524Y-11084571D01*
X16004524Y-11084571D02*
X16014048Y-11122667D01*
X16014048Y-11122667D02*
X16014048Y-11170286D01*
X16014048Y-11170286D02*
X16004524Y-11208381D01*
X16004524Y-11208381D02*
X15995000Y-11227428D01*
X15995000Y-11227428D02*
X15985476Y-11236952D01*
X15985476Y-11236952D02*
X15966429Y-11246476D01*
X15966429Y-11246476D02*
X15947381Y-11246476D01*
X15947381Y-11246476D02*
X15928333Y-11236952D01*
X15928333Y-11236952D02*
X15918809Y-11227428D01*
X15918809Y-11227428D02*
X15909286Y-11208381D01*
X15909286Y-11208381D02*
X15899762Y-11170286D01*
X15899762Y-11170286D02*
X15899762Y-11122667D01*
X15899762Y-11122667D02*
X15909286Y-11084571D01*
X15909286Y-11084571D02*
X15918809Y-11065524D01*
X15918809Y-11065524D02*
X15928333Y-11056000D01*
X15928333Y-11056000D02*
X15947381Y-11046476D01*
X16099762Y-11246476D02*
X16099762Y-11113143D01*
X16099762Y-11132190D02*
X16109286Y-11122667D01*
X16109286Y-11122667D02*
X16128333Y-11113143D01*
X16128333Y-11113143D02*
X16156905Y-11113143D01*
X16156905Y-11113143D02*
X16175952Y-11122667D01*
X16175952Y-11122667D02*
X16185476Y-11141714D01*
X16185476Y-11141714D02*
X16185476Y-11246476D01*
X16185476Y-11141714D02*
X16195000Y-11122667D01*
X16195000Y-11122667D02*
X16214048Y-11113143D01*
X16214048Y-11113143D02*
X16242619Y-11113143D01*
X16242619Y-11113143D02*
X16261667Y-11122667D01*
X16261667Y-11122667D02*
X16271190Y-11141714D01*
X16271190Y-11141714D02*
X16271190Y-11246476D01*
X16366429Y-11246476D02*
X16366429Y-11113143D01*
X16366429Y-11132190D02*
X16375952Y-11122667D01*
X16375952Y-11122667D02*
X16395000Y-11113143D01*
X16395000Y-11113143D02*
X16423571Y-11113143D01*
X16423571Y-11113143D02*
X16442619Y-11122667D01*
X16442619Y-11122667D02*
X16452143Y-11141714D01*
X16452143Y-11141714D02*
X16452143Y-11246476D01*
X16452143Y-11141714D02*
X16461667Y-11122667D01*
X16461667Y-11122667D02*
X16480714Y-11113143D01*
X16480714Y-11113143D02*
X16509286Y-11113143D01*
X16509286Y-11113143D02*
X16528333Y-11122667D01*
X16528333Y-11122667D02*
X16537857Y-11141714D01*
X16537857Y-11141714D02*
X16537857Y-11246476D01*
X16895952Y-11036952D02*
X16724524Y-11294095D01*
X17120714Y-11046476D02*
X17139762Y-11046476D01*
X17139762Y-11046476D02*
X17158810Y-11056000D01*
X17158810Y-11056000D02*
X17168333Y-11065524D01*
X17168333Y-11065524D02*
X17177857Y-11084571D01*
X17177857Y-11084571D02*
X17187381Y-11122667D01*
X17187381Y-11122667D02*
X17187381Y-11170286D01*
X17187381Y-11170286D02*
X17177857Y-11208381D01*
X17177857Y-11208381D02*
X17168333Y-11227428D01*
X17168333Y-11227428D02*
X17158810Y-11236952D01*
X17158810Y-11236952D02*
X17139762Y-11246476D01*
X17139762Y-11246476D02*
X17120714Y-11246476D01*
X17120714Y-11246476D02*
X17101667Y-11236952D01*
X17101667Y-11236952D02*
X17092143Y-11227428D01*
X17092143Y-11227428D02*
X17082619Y-11208381D01*
X17082619Y-11208381D02*
X17073095Y-11170286D01*
X17073095Y-11170286D02*
X17073095Y-11122667D01*
X17073095Y-11122667D02*
X17082619Y-11084571D01*
X17082619Y-11084571D02*
X17092143Y-11065524D01*
X17092143Y-11065524D02*
X17101667Y-11056000D01*
X17101667Y-11056000D02*
X17120714Y-11046476D01*
X17273095Y-11227428D02*
X17282619Y-11236952D01*
X17282619Y-11236952D02*
X17273095Y-11246476D01*
X17273095Y-11246476D02*
X17263572Y-11236952D01*
X17263572Y-11236952D02*
X17273095Y-11227428D01*
X17273095Y-11227428D02*
X17273095Y-11246476D01*
X17406429Y-11046476D02*
X17425476Y-11046476D01*
X17425476Y-11046476D02*
X17444524Y-11056000D01*
X17444524Y-11056000D02*
X17454048Y-11065524D01*
X17454048Y-11065524D02*
X17463572Y-11084571D01*
X17463572Y-11084571D02*
X17473095Y-11122667D01*
X17473095Y-11122667D02*
X17473095Y-11170286D01*
X17473095Y-11170286D02*
X17463572Y-11208381D01*
X17463572Y-11208381D02*
X17454048Y-11227428D01*
X17454048Y-11227428D02*
X17444524Y-11236952D01*
X17444524Y-11236952D02*
X17425476Y-11246476D01*
X17425476Y-11246476D02*
X17406429Y-11246476D01*
X17406429Y-11246476D02*
X17387381Y-11236952D01*
X17387381Y-11236952D02*
X17377857Y-11227428D01*
X17377857Y-11227428D02*
X17368333Y-11208381D01*
X17368333Y-11208381D02*
X17358810Y-11170286D01*
X17358810Y-11170286D02*
X17358810Y-11122667D01*
X17358810Y-11122667D02*
X17368333Y-11084571D01*
X17368333Y-11084571D02*
X17377857Y-11065524D01*
X17377857Y-11065524D02*
X17387381Y-11056000D01*
X17387381Y-11056000D02*
X17406429Y-11046476D01*
X17539762Y-11046476D02*
X17663572Y-11046476D01*
X17663572Y-11046476D02*
X17596905Y-11122667D01*
X17596905Y-11122667D02*
X17625476Y-11122667D01*
X17625476Y-11122667D02*
X17644524Y-11132190D01*
X17644524Y-11132190D02*
X17654048Y-11141714D01*
X17654048Y-11141714D02*
X17663572Y-11160762D01*
X17663572Y-11160762D02*
X17663572Y-11208381D01*
X17663572Y-11208381D02*
X17654048Y-11227428D01*
X17654048Y-11227428D02*
X17644524Y-11236952D01*
X17644524Y-11236952D02*
X17625476Y-11246476D01*
X17625476Y-11246476D02*
X17568333Y-11246476D01*
X17568333Y-11246476D02*
X17549286Y-11236952D01*
X17549286Y-11236952D02*
X17539762Y-11227428D01*
X17844524Y-11046476D02*
X17749286Y-11046476D01*
X17749286Y-11046476D02*
X17739762Y-11141714D01*
X17739762Y-11141714D02*
X17749286Y-11132190D01*
X17749286Y-11132190D02*
X17768333Y-11122667D01*
X17768333Y-11122667D02*
X17815953Y-11122667D01*
X17815953Y-11122667D02*
X17835000Y-11132190D01*
X17835000Y-11132190D02*
X17844524Y-11141714D01*
X17844524Y-11141714D02*
X17854048Y-11160762D01*
X17854048Y-11160762D02*
X17854048Y-11208381D01*
X17854048Y-11208381D02*
X17844524Y-11227428D01*
X17844524Y-11227428D02*
X17835000Y-11236952D01*
X17835000Y-11236952D02*
X17815953Y-11246476D01*
X17815953Y-11246476D02*
X17768333Y-11246476D01*
X17768333Y-11246476D02*
X17749286Y-11236952D01*
X17749286Y-11236952D02*
X17739762Y-11227428D01*
X17977857Y-11046476D02*
X17996905Y-11046476D01*
X17996905Y-11046476D02*
X18015953Y-11056000D01*
X18015953Y-11056000D02*
X18025476Y-11065524D01*
X18025476Y-11065524D02*
X18035000Y-11084571D01*
X18035000Y-11084571D02*
X18044524Y-11122667D01*
X18044524Y-11122667D02*
X18044524Y-11170286D01*
X18044524Y-11170286D02*
X18035000Y-11208381D01*
X18035000Y-11208381D02*
X18025476Y-11227428D01*
X18025476Y-11227428D02*
X18015953Y-11236952D01*
X18015953Y-11236952D02*
X17996905Y-11246476D01*
X17996905Y-11246476D02*
X17977857Y-11246476D01*
X17977857Y-11246476D02*
X17958810Y-11236952D01*
X17958810Y-11236952D02*
X17949286Y-11227428D01*
X17949286Y-11227428D02*
X17939762Y-11208381D01*
X17939762Y-11208381D02*
X17930238Y-11170286D01*
X17930238Y-11170286D02*
X17930238Y-11122667D01*
X17930238Y-11122667D02*
X17939762Y-11084571D01*
X17939762Y-11084571D02*
X17949286Y-11065524D01*
X17949286Y-11065524D02*
X17958810Y-11056000D01*
X17958810Y-11056000D02*
X17977857Y-11046476D01*
X18120714Y-11046476D02*
X18120714Y-11084571D01*
X18196905Y-11046476D02*
X18196905Y-11084571D01*
X18459762Y-11322667D02*
X18450238Y-11313143D01*
X18450238Y-11313143D02*
X18431191Y-11284571D01*
X18431191Y-11284571D02*
X18421667Y-11265524D01*
X18421667Y-11265524D02*
X18412143Y-11236952D01*
X18412143Y-11236952D02*
X18402619Y-11189333D01*
X18402619Y-11189333D02*
X18402619Y-11151238D01*
X18402619Y-11151238D02*
X18412143Y-11103619D01*
X18412143Y-11103619D02*
X18421667Y-11075048D01*
X18421667Y-11075048D02*
X18431191Y-11056000D01*
X18431191Y-11056000D02*
X18450238Y-11027429D01*
X18450238Y-11027429D02*
X18459762Y-11017905D01*
X18621667Y-11046476D02*
X18583572Y-11046476D01*
X18583572Y-11046476D02*
X18564524Y-11056000D01*
X18564524Y-11056000D02*
X18555000Y-11065524D01*
X18555000Y-11065524D02*
X18535953Y-11094095D01*
X18535953Y-11094095D02*
X18526429Y-11132190D01*
X18526429Y-11132190D02*
X18526429Y-11208381D01*
X18526429Y-11208381D02*
X18535953Y-11227428D01*
X18535953Y-11227428D02*
X18545476Y-11236952D01*
X18545476Y-11236952D02*
X18564524Y-11246476D01*
X18564524Y-11246476D02*
X18602619Y-11246476D01*
X18602619Y-11246476D02*
X18621667Y-11236952D01*
X18621667Y-11236952D02*
X18631191Y-11227428D01*
X18631191Y-11227428D02*
X18640714Y-11208381D01*
X18640714Y-11208381D02*
X18640714Y-11160762D01*
X18640714Y-11160762D02*
X18631191Y-11141714D01*
X18631191Y-11141714D02*
X18621667Y-11132190D01*
X18621667Y-11132190D02*
X18602619Y-11122667D01*
X18602619Y-11122667D02*
X18564524Y-11122667D01*
X18564524Y-11122667D02*
X18545476Y-11132190D01*
X18545476Y-11132190D02*
X18535953Y-11141714D01*
X18535953Y-11141714D02*
X18526429Y-11160762D01*
X18764524Y-11046476D02*
X18783572Y-11046476D01*
X18783572Y-11046476D02*
X18802619Y-11056000D01*
X18802619Y-11056000D02*
X18812143Y-11065524D01*
X18812143Y-11065524D02*
X18821667Y-11084571D01*
X18821667Y-11084571D02*
X18831191Y-11122667D01*
X18831191Y-11122667D02*
X18831191Y-11170286D01*
X18831191Y-11170286D02*
X18821667Y-11208381D01*
X18821667Y-11208381D02*
X18812143Y-11227428D01*
X18812143Y-11227428D02*
X18802619Y-11236952D01*
X18802619Y-11236952D02*
X18783572Y-11246476D01*
X18783572Y-11246476D02*
X18764524Y-11246476D01*
X18764524Y-11246476D02*
X18745476Y-11236952D01*
X18745476Y-11236952D02*
X18735953Y-11227428D01*
X18735953Y-11227428D02*
X18726429Y-11208381D01*
X18726429Y-11208381D02*
X18716905Y-11170286D01*
X18716905Y-11170286D02*
X18716905Y-11122667D01*
X18716905Y-11122667D02*
X18726429Y-11084571D01*
X18726429Y-11084571D02*
X18735953Y-11065524D01*
X18735953Y-11065524D02*
X18745476Y-11056000D01*
X18745476Y-11056000D02*
X18764524Y-11046476D01*
X19036905Y-11246476D02*
X19036905Y-11046476D01*
X19122619Y-11246476D02*
X19122619Y-11141714D01*
X19122619Y-11141714D02*
X19113095Y-11122667D01*
X19113095Y-11122667D02*
X19094048Y-11113143D01*
X19094048Y-11113143D02*
X19065476Y-11113143D01*
X19065476Y-11113143D02*
X19046429Y-11122667D01*
X19046429Y-11122667D02*
X19036905Y-11132190D01*
X19246429Y-11246476D02*
X19227381Y-11236952D01*
X19227381Y-11236952D02*
X19217857Y-11227428D01*
X19217857Y-11227428D02*
X19208334Y-11208381D01*
X19208334Y-11208381D02*
X19208334Y-11151238D01*
X19208334Y-11151238D02*
X19217857Y-11132190D01*
X19217857Y-11132190D02*
X19227381Y-11122667D01*
X19227381Y-11122667D02*
X19246429Y-11113143D01*
X19246429Y-11113143D02*
X19275000Y-11113143D01*
X19275000Y-11113143D02*
X19294048Y-11122667D01*
X19294048Y-11122667D02*
X19303572Y-11132190D01*
X19303572Y-11132190D02*
X19313095Y-11151238D01*
X19313095Y-11151238D02*
X19313095Y-11208381D01*
X19313095Y-11208381D02*
X19303572Y-11227428D01*
X19303572Y-11227428D02*
X19294048Y-11236952D01*
X19294048Y-11236952D02*
X19275000Y-11246476D01*
X19275000Y-11246476D02*
X19246429Y-11246476D01*
X19427381Y-11246476D02*
X19408334Y-11236952D01*
X19408334Y-11236952D02*
X19398810Y-11217905D01*
X19398810Y-11217905D02*
X19398810Y-11046476D01*
X19579762Y-11236952D02*
X19560715Y-11246476D01*
X19560715Y-11246476D02*
X19522619Y-11246476D01*
X19522619Y-11246476D02*
X19503572Y-11236952D01*
X19503572Y-11236952D02*
X19494048Y-11217905D01*
X19494048Y-11217905D02*
X19494048Y-11141714D01*
X19494048Y-11141714D02*
X19503572Y-11122667D01*
X19503572Y-11122667D02*
X19522619Y-11113143D01*
X19522619Y-11113143D02*
X19560715Y-11113143D01*
X19560715Y-11113143D02*
X19579762Y-11122667D01*
X19579762Y-11122667D02*
X19589286Y-11141714D01*
X19589286Y-11141714D02*
X19589286Y-11160762D01*
X19589286Y-11160762D02*
X19494048Y-11179810D01*
X19665476Y-11236952D02*
X19684524Y-11246476D01*
X19684524Y-11246476D02*
X19722619Y-11246476D01*
X19722619Y-11246476D02*
X19741667Y-11236952D01*
X19741667Y-11236952D02*
X19751191Y-11217905D01*
X19751191Y-11217905D02*
X19751191Y-11208381D01*
X19751191Y-11208381D02*
X19741667Y-11189333D01*
X19741667Y-11189333D02*
X19722619Y-11179810D01*
X19722619Y-11179810D02*
X19694048Y-11179810D01*
X19694048Y-11179810D02*
X19675000Y-11170286D01*
X19675000Y-11170286D02*
X19665476Y-11151238D01*
X19665476Y-11151238D02*
X19665476Y-11141714D01*
X19665476Y-11141714D02*
X19675000Y-11122667D01*
X19675000Y-11122667D02*
X19694048Y-11113143D01*
X19694048Y-11113143D02*
X19722619Y-11113143D01*
X19722619Y-11113143D02*
X19741667Y-11122667D01*
X19817857Y-11322667D02*
X19827381Y-11313143D01*
X19827381Y-11313143D02*
X19846429Y-11284571D01*
X19846429Y-11284571D02*
X19855953Y-11265524D01*
X19855953Y-11265524D02*
X19865476Y-11236952D01*
X19865476Y-11236952D02*
X19875000Y-11189333D01*
X19875000Y-11189333D02*
X19875000Y-11151238D01*
X19875000Y-11151238D02*
X19865476Y-11103619D01*
X19865476Y-11103619D02*
X19855953Y-11075048D01*
X19855953Y-11075048D02*
X19846429Y-11056000D01*
X19846429Y-11056000D02*
X19827381Y-11027429D01*
X19827381Y-11027429D02*
X19817857Y-11017905D01*
D10*
X14980356Y-11472356D02*
X14980356Y-11401644D01*
X14909644Y-11401644D01*
X14909644Y-11472356D01*
X14980356Y-11472356D01*
D11*
X15347381Y-11510476D02*
X15233095Y-11510476D01*
X15290238Y-11510476D02*
X15290238Y-11310476D01*
X15290238Y-11310476D02*
X15271190Y-11339048D01*
X15271190Y-11339048D02*
X15252143Y-11358095D01*
X15252143Y-11358095D02*
X15233095Y-11367619D01*
X15433095Y-11491428D02*
X15442619Y-11500952D01*
X15442619Y-11500952D02*
X15433095Y-11510476D01*
X15433095Y-11510476D02*
X15423571Y-11500952D01*
X15423571Y-11500952D02*
X15433095Y-11491428D01*
X15433095Y-11491428D02*
X15433095Y-11510476D01*
X15566428Y-11310476D02*
X15585476Y-11310476D01*
X15585476Y-11310476D02*
X15604524Y-11320000D01*
X15604524Y-11320000D02*
X15614048Y-11329524D01*
X15614048Y-11329524D02*
X15623571Y-11348571D01*
X15623571Y-11348571D02*
X15633095Y-11386667D01*
X15633095Y-11386667D02*
X15633095Y-11434286D01*
X15633095Y-11434286D02*
X15623571Y-11472381D01*
X15623571Y-11472381D02*
X15614048Y-11491428D01*
X15614048Y-11491428D02*
X15604524Y-11500952D01*
X15604524Y-11500952D02*
X15585476Y-11510476D01*
X15585476Y-11510476D02*
X15566428Y-11510476D01*
X15566428Y-11510476D02*
X15547381Y-11500952D01*
X15547381Y-11500952D02*
X15537857Y-11491428D01*
X15537857Y-11491428D02*
X15528333Y-11472381D01*
X15528333Y-11472381D02*
X15518809Y-11434286D01*
X15518809Y-11434286D02*
X15518809Y-11386667D01*
X15518809Y-11386667D02*
X15528333Y-11348571D01*
X15528333Y-11348571D02*
X15537857Y-11329524D01*
X15537857Y-11329524D02*
X15547381Y-11320000D01*
X15547381Y-11320000D02*
X15566428Y-11310476D01*
X15756905Y-11310476D02*
X15775952Y-11310476D01*
X15775952Y-11310476D02*
X15795000Y-11320000D01*
X15795000Y-11320000D02*
X15804524Y-11329524D01*
X15804524Y-11329524D02*
X15814048Y-11348571D01*
X15814048Y-11348571D02*
X15823571Y-11386667D01*
X15823571Y-11386667D02*
X15823571Y-11434286D01*
X15823571Y-11434286D02*
X15814048Y-11472381D01*
X15814048Y-11472381D02*
X15804524Y-11491428D01*
X15804524Y-11491428D02*
X15795000Y-11500952D01*
X15795000Y-11500952D02*
X15775952Y-11510476D01*
X15775952Y-11510476D02*
X15756905Y-11510476D01*
X15756905Y-11510476D02*
X15737857Y-11500952D01*
X15737857Y-11500952D02*
X15728333Y-11491428D01*
X15728333Y-11491428D02*
X15718809Y-11472381D01*
X15718809Y-11472381D02*
X15709286Y-11434286D01*
X15709286Y-11434286D02*
X15709286Y-11386667D01*
X15709286Y-11386667D02*
X15718809Y-11348571D01*
X15718809Y-11348571D02*
X15728333Y-11329524D01*
X15728333Y-11329524D02*
X15737857Y-11320000D01*
X15737857Y-11320000D02*
X15756905Y-11310476D01*
X15947381Y-11310476D02*
X15966429Y-11310476D01*
X15966429Y-11310476D02*
X15985476Y-11320000D01*
X15985476Y-11320000D02*
X15995000Y-11329524D01*
X15995000Y-11329524D02*
X16004524Y-11348571D01*
X16004524Y-11348571D02*
X16014048Y-11386667D01*
X16014048Y-11386667D02*
X16014048Y-11434286D01*
X16014048Y-11434286D02*
X16004524Y-11472381D01*
X16004524Y-11472381D02*
X15995000Y-11491428D01*
X15995000Y-11491428D02*
X15985476Y-11500952D01*
X15985476Y-11500952D02*
X15966429Y-11510476D01*
X15966429Y-11510476D02*
X15947381Y-11510476D01*
X15947381Y-11510476D02*
X15928333Y-11500952D01*
X15928333Y-11500952D02*
X15918809Y-11491428D01*
X15918809Y-11491428D02*
X15909286Y-11472381D01*
X15909286Y-11472381D02*
X15899762Y-11434286D01*
X15899762Y-11434286D02*
X15899762Y-11386667D01*
X15899762Y-11386667D02*
X15909286Y-11348571D01*
X15909286Y-11348571D02*
X15918809Y-11329524D01*
X15918809Y-11329524D02*
X15928333Y-11320000D01*
X15928333Y-11320000D02*
X15947381Y-11310476D01*
X16099762Y-11510476D02*
X16099762Y-11377143D01*
X16099762Y-11396190D02*
X16109286Y-11386667D01*
X16109286Y-11386667D02*
X16128333Y-11377143D01*
X16128333Y-11377143D02*
X16156905Y-11377143D01*
X16156905Y-11377143D02*
X16175952Y-11386667D01*
X16175952Y-11386667D02*
X16185476Y-11405714D01*
X16185476Y-11405714D02*
X16185476Y-11510476D01*
X16185476Y-11405714D02*
X16195000Y-11386667D01*
X16195000Y-11386667D02*
X16214048Y-11377143D01*
X16214048Y-11377143D02*
X16242619Y-11377143D01*
X16242619Y-11377143D02*
X16261667Y-11386667D01*
X16261667Y-11386667D02*
X16271190Y-11405714D01*
X16271190Y-11405714D02*
X16271190Y-11510476D01*
X16366429Y-11510476D02*
X16366429Y-11377143D01*
X16366429Y-11396190D02*
X16375952Y-11386667D01*
X16375952Y-11386667D02*
X16395000Y-11377143D01*
X16395000Y-11377143D02*
X16423571Y-11377143D01*
X16423571Y-11377143D02*
X16442619Y-11386667D01*
X16442619Y-11386667D02*
X16452143Y-11405714D01*
X16452143Y-11405714D02*
X16452143Y-11510476D01*
X16452143Y-11405714D02*
X16461667Y-11386667D01*
X16461667Y-11386667D02*
X16480714Y-11377143D01*
X16480714Y-11377143D02*
X16509286Y-11377143D01*
X16509286Y-11377143D02*
X16528333Y-11386667D01*
X16528333Y-11386667D02*
X16537857Y-11405714D01*
X16537857Y-11405714D02*
X16537857Y-11510476D01*
X16895952Y-11300952D02*
X16724524Y-11558095D01*
X17120714Y-11310476D02*
X17139762Y-11310476D01*
X17139762Y-11310476D02*
X17158810Y-11320000D01*
X17158810Y-11320000D02*
X17168333Y-11329524D01*
X17168333Y-11329524D02*
X17177857Y-11348571D01*
X17177857Y-11348571D02*
X17187381Y-11386667D01*
X17187381Y-11386667D02*
X17187381Y-11434286D01*
X17187381Y-11434286D02*
X17177857Y-11472381D01*
X17177857Y-11472381D02*
X17168333Y-11491428D01*
X17168333Y-11491428D02*
X17158810Y-11500952D01*
X17158810Y-11500952D02*
X17139762Y-11510476D01*
X17139762Y-11510476D02*
X17120714Y-11510476D01*
X17120714Y-11510476D02*
X17101667Y-11500952D01*
X17101667Y-11500952D02*
X17092143Y-11491428D01*
X17092143Y-11491428D02*
X17082619Y-11472381D01*
X17082619Y-11472381D02*
X17073095Y-11434286D01*
X17073095Y-11434286D02*
X17073095Y-11386667D01*
X17073095Y-11386667D02*
X17082619Y-11348571D01*
X17082619Y-11348571D02*
X17092143Y-11329524D01*
X17092143Y-11329524D02*
X17101667Y-11320000D01*
X17101667Y-11320000D02*
X17120714Y-11310476D01*
X17273095Y-11491428D02*
X17282619Y-11500952D01*
X17282619Y-11500952D02*
X17273095Y-11510476D01*
X17273095Y-11510476D02*
X17263572Y-11500952D01*
X17263572Y-11500952D02*
X17273095Y-11491428D01*
X17273095Y-11491428D02*
X17273095Y-11510476D01*
X17406429Y-11310476D02*
X17425476Y-11310476D01*
X17425476Y-11310476D02*
X17444524Y-11320000D01*
X17444524Y-11320000D02*
X17454048Y-11329524D01*
X17454048Y-11329524D02*
X17463572Y-11348571D01*
X17463572Y-11348571D02*
X17473095Y-11386667D01*
X17473095Y-11386667D02*
X17473095Y-11434286D01*
X17473095Y-11434286D02*
X17463572Y-11472381D01*
X17463572Y-11472381D02*
X17454048Y-11491428D01*
X17454048Y-11491428D02*
X17444524Y-11500952D01*
X17444524Y-11500952D02*
X17425476Y-11510476D01*
X17425476Y-11510476D02*
X17406429Y-11510476D01*
X17406429Y-11510476D02*
X17387381Y-11500952D01*
X17387381Y-11500952D02*
X17377857Y-11491428D01*
X17377857Y-11491428D02*
X17368333Y-11472381D01*
X17368333Y-11472381D02*
X17358810Y-11434286D01*
X17358810Y-11434286D02*
X17358810Y-11386667D01*
X17358810Y-11386667D02*
X17368333Y-11348571D01*
X17368333Y-11348571D02*
X17377857Y-11329524D01*
X17377857Y-11329524D02*
X17387381Y-11320000D01*
X17387381Y-11320000D02*
X17406429Y-11310476D01*
X17539762Y-11310476D02*
X17663572Y-11310476D01*
X17663572Y-11310476D02*
X17596905Y-11386667D01*
X17596905Y-11386667D02*
X17625476Y-11386667D01*
X17625476Y-11386667D02*
X17644524Y-11396190D01*
X17644524Y-11396190D02*
X17654048Y-11405714D01*
X17654048Y-11405714D02*
X17663572Y-11424762D01*
X17663572Y-11424762D02*
X17663572Y-11472381D01*
X17663572Y-11472381D02*
X17654048Y-11491428D01*
X17654048Y-11491428D02*
X17644524Y-11500952D01*
X17644524Y-11500952D02*
X17625476Y-11510476D01*
X17625476Y-11510476D02*
X17568333Y-11510476D01*
X17568333Y-11510476D02*
X17549286Y-11500952D01*
X17549286Y-11500952D02*
X17539762Y-11491428D01*
X17758810Y-11510476D02*
X17796905Y-11510476D01*
X17796905Y-11510476D02*
X17815953Y-11500952D01*
X17815953Y-11500952D02*
X17825476Y-11491428D01*
X17825476Y-11491428D02*
X17844524Y-11462857D01*
X17844524Y-11462857D02*
X17854048Y-11424762D01*
X17854048Y-11424762D02*
X17854048Y-11348571D01*
X17854048Y-11348571D02*
X17844524Y-11329524D01*
X17844524Y-11329524D02*
X17835000Y-11320000D01*
X17835000Y-11320000D02*
X17815953Y-11310476D01*
X17815953Y-11310476D02*
X17777857Y-11310476D01*
X17777857Y-11310476D02*
X17758810Y-11320000D01*
X17758810Y-11320000D02*
X17749286Y-11329524D01*
X17749286Y-11329524D02*
X17739762Y-11348571D01*
X17739762Y-11348571D02*
X17739762Y-11396190D01*
X17739762Y-11396190D02*
X17749286Y-11415238D01*
X17749286Y-11415238D02*
X17758810Y-11424762D01*
X17758810Y-11424762D02*
X17777857Y-11434286D01*
X17777857Y-11434286D02*
X17815953Y-11434286D01*
X17815953Y-11434286D02*
X17835000Y-11424762D01*
X17835000Y-11424762D02*
X17844524Y-11415238D01*
X17844524Y-11415238D02*
X17854048Y-11396190D01*
X18025476Y-11377143D02*
X18025476Y-11510476D01*
X17977857Y-11300952D02*
X17930238Y-11443809D01*
X17930238Y-11443809D02*
X18054048Y-11443809D01*
X18120714Y-11310476D02*
X18120714Y-11348571D01*
X18196905Y-11310476D02*
X18196905Y-11348571D01*
X18459762Y-11586667D02*
X18450238Y-11577143D01*
X18450238Y-11577143D02*
X18431191Y-11548571D01*
X18431191Y-11548571D02*
X18421667Y-11529524D01*
X18421667Y-11529524D02*
X18412143Y-11500952D01*
X18412143Y-11500952D02*
X18402619Y-11453333D01*
X18402619Y-11453333D02*
X18402619Y-11415238D01*
X18402619Y-11415238D02*
X18412143Y-11367619D01*
X18412143Y-11367619D02*
X18421667Y-11339048D01*
X18421667Y-11339048D02*
X18431191Y-11320000D01*
X18431191Y-11320000D02*
X18450238Y-11291428D01*
X18450238Y-11291428D02*
X18459762Y-11281905D01*
X18564524Y-11396190D02*
X18545476Y-11386667D01*
X18545476Y-11386667D02*
X18535953Y-11377143D01*
X18535953Y-11377143D02*
X18526429Y-11358095D01*
X18526429Y-11358095D02*
X18526429Y-11348571D01*
X18526429Y-11348571D02*
X18535953Y-11329524D01*
X18535953Y-11329524D02*
X18545476Y-11320000D01*
X18545476Y-11320000D02*
X18564524Y-11310476D01*
X18564524Y-11310476D02*
X18602619Y-11310476D01*
X18602619Y-11310476D02*
X18621667Y-11320000D01*
X18621667Y-11320000D02*
X18631191Y-11329524D01*
X18631191Y-11329524D02*
X18640714Y-11348571D01*
X18640714Y-11348571D02*
X18640714Y-11358095D01*
X18640714Y-11358095D02*
X18631191Y-11377143D01*
X18631191Y-11377143D02*
X18621667Y-11386667D01*
X18621667Y-11386667D02*
X18602619Y-11396190D01*
X18602619Y-11396190D02*
X18564524Y-11396190D01*
X18564524Y-11396190D02*
X18545476Y-11405714D01*
X18545476Y-11405714D02*
X18535953Y-11415238D01*
X18535953Y-11415238D02*
X18526429Y-11434286D01*
X18526429Y-11434286D02*
X18526429Y-11472381D01*
X18526429Y-11472381D02*
X18535953Y-11491428D01*
X18535953Y-11491428D02*
X18545476Y-11500952D01*
X18545476Y-11500952D02*
X18564524Y-11510476D01*
X18564524Y-11510476D02*
X18602619Y-11510476D01*
X18602619Y-11510476D02*
X18621667Y-11500952D01*
X18621667Y-11500952D02*
X18631191Y-11491428D01*
X18631191Y-11491428D02*
X18640714Y-11472381D01*
X18640714Y-11472381D02*
X18640714Y-11434286D01*
X18640714Y-11434286D02*
X18631191Y-11415238D01*
X18631191Y-11415238D02*
X18621667Y-11405714D01*
X18621667Y-11405714D02*
X18602619Y-11396190D01*
X18846429Y-11510476D02*
X18846429Y-11310476D01*
X18932143Y-11510476D02*
X18932143Y-11405714D01*
X18932143Y-11405714D02*
X18922619Y-11386667D01*
X18922619Y-11386667D02*
X18903572Y-11377143D01*
X18903572Y-11377143D02*
X18875000Y-11377143D01*
X18875000Y-11377143D02*
X18855953Y-11386667D01*
X18855953Y-11386667D02*
X18846429Y-11396190D01*
X19055953Y-11510476D02*
X19036905Y-11500952D01*
X19036905Y-11500952D02*
X19027381Y-11491428D01*
X19027381Y-11491428D02*
X19017857Y-11472381D01*
X19017857Y-11472381D02*
X19017857Y-11415238D01*
X19017857Y-11415238D02*
X19027381Y-11396190D01*
X19027381Y-11396190D02*
X19036905Y-11386667D01*
X19036905Y-11386667D02*
X19055953Y-11377143D01*
X19055953Y-11377143D02*
X19084524Y-11377143D01*
X19084524Y-11377143D02*
X19103572Y-11386667D01*
X19103572Y-11386667D02*
X19113095Y-11396190D01*
X19113095Y-11396190D02*
X19122619Y-11415238D01*
X19122619Y-11415238D02*
X19122619Y-11472381D01*
X19122619Y-11472381D02*
X19113095Y-11491428D01*
X19113095Y-11491428D02*
X19103572Y-11500952D01*
X19103572Y-11500952D02*
X19084524Y-11510476D01*
X19084524Y-11510476D02*
X19055953Y-11510476D01*
X19236905Y-11510476D02*
X19217857Y-11500952D01*
X19217857Y-11500952D02*
X19208334Y-11481905D01*
X19208334Y-11481905D02*
X19208334Y-11310476D01*
X19389286Y-11500952D02*
X19370238Y-11510476D01*
X19370238Y-11510476D02*
X19332143Y-11510476D01*
X19332143Y-11510476D02*
X19313095Y-11500952D01*
X19313095Y-11500952D02*
X19303572Y-11481905D01*
X19303572Y-11481905D02*
X19303572Y-11405714D01*
X19303572Y-11405714D02*
X19313095Y-11386667D01*
X19313095Y-11386667D02*
X19332143Y-11377143D01*
X19332143Y-11377143D02*
X19370238Y-11377143D01*
X19370238Y-11377143D02*
X19389286Y-11386667D01*
X19389286Y-11386667D02*
X19398810Y-11405714D01*
X19398810Y-11405714D02*
X19398810Y-11424762D01*
X19398810Y-11424762D02*
X19303572Y-11443809D01*
X19475000Y-11500952D02*
X19494048Y-11510476D01*
X19494048Y-11510476D02*
X19532143Y-11510476D01*
X19532143Y-11510476D02*
X19551191Y-11500952D01*
X19551191Y-11500952D02*
X19560715Y-11481905D01*
X19560715Y-11481905D02*
X19560715Y-11472381D01*
X19560715Y-11472381D02*
X19551191Y-11453333D01*
X19551191Y-11453333D02*
X19532143Y-11443809D01*
X19532143Y-11443809D02*
X19503572Y-11443809D01*
X19503572Y-11443809D02*
X19484524Y-11434286D01*
X19484524Y-11434286D02*
X19475000Y-11415238D01*
X19475000Y-11415238D02*
X19475000Y-11405714D01*
X19475000Y-11405714D02*
X19484524Y-11386667D01*
X19484524Y-11386667D02*
X19503572Y-11377143D01*
X19503572Y-11377143D02*
X19532143Y-11377143D01*
X19532143Y-11377143D02*
X19551191Y-11386667D01*
X19766429Y-11434286D02*
X19918810Y-11434286D01*
X19842619Y-11510476D02*
X19842619Y-11358095D01*
X20115000Y-11310476D02*
X20238810Y-11310476D01*
X20238810Y-11310476D02*
X20172143Y-11386667D01*
X20172143Y-11386667D02*
X20200715Y-11386667D01*
X20200715Y-11386667D02*
X20219762Y-11396190D01*
X20219762Y-11396190D02*
X20229286Y-11405714D01*
X20229286Y-11405714D02*
X20238810Y-11424762D01*
X20238810Y-11424762D02*
X20238810Y-11472381D01*
X20238810Y-11472381D02*
X20229286Y-11491428D01*
X20229286Y-11491428D02*
X20219762Y-11500952D01*
X20219762Y-11500952D02*
X20200715Y-11510476D01*
X20200715Y-11510476D02*
X20143572Y-11510476D01*
X20143572Y-11510476D02*
X20124524Y-11500952D01*
X20124524Y-11500952D02*
X20115000Y-11491428D01*
X20435000Y-11500952D02*
X20454048Y-11510476D01*
X20454048Y-11510476D02*
X20492143Y-11510476D01*
X20492143Y-11510476D02*
X20511191Y-11500952D01*
X20511191Y-11500952D02*
X20520715Y-11481905D01*
X20520715Y-11481905D02*
X20520715Y-11472381D01*
X20520715Y-11472381D02*
X20511191Y-11453333D01*
X20511191Y-11453333D02*
X20492143Y-11443809D01*
X20492143Y-11443809D02*
X20463572Y-11443809D01*
X20463572Y-11443809D02*
X20444524Y-11434286D01*
X20444524Y-11434286D02*
X20435000Y-11415238D01*
X20435000Y-11415238D02*
X20435000Y-11405714D01*
X20435000Y-11405714D02*
X20444524Y-11386667D01*
X20444524Y-11386667D02*
X20463572Y-11377143D01*
X20463572Y-11377143D02*
X20492143Y-11377143D01*
X20492143Y-11377143D02*
X20511191Y-11386667D01*
X20635000Y-11510476D02*
X20615953Y-11500952D01*
X20615953Y-11500952D02*
X20606429Y-11481905D01*
X20606429Y-11481905D02*
X20606429Y-11310476D01*
X20739762Y-11510476D02*
X20720715Y-11500952D01*
X20720715Y-11500952D02*
X20711191Y-11491428D01*
X20711191Y-11491428D02*
X20701667Y-11472381D01*
X20701667Y-11472381D02*
X20701667Y-11415238D01*
X20701667Y-11415238D02*
X20711191Y-11396190D01*
X20711191Y-11396190D02*
X20720715Y-11386667D01*
X20720715Y-11386667D02*
X20739762Y-11377143D01*
X20739762Y-11377143D02*
X20768334Y-11377143D01*
X20768334Y-11377143D02*
X20787381Y-11386667D01*
X20787381Y-11386667D02*
X20796905Y-11396190D01*
X20796905Y-11396190D02*
X20806429Y-11415238D01*
X20806429Y-11415238D02*
X20806429Y-11472381D01*
X20806429Y-11472381D02*
X20796905Y-11491428D01*
X20796905Y-11491428D02*
X20787381Y-11500952D01*
X20787381Y-11500952D02*
X20768334Y-11510476D01*
X20768334Y-11510476D02*
X20739762Y-11510476D01*
X20863572Y-11377143D02*
X20939762Y-11377143D01*
X20892143Y-11310476D02*
X20892143Y-11481905D01*
X20892143Y-11481905D02*
X20901667Y-11500952D01*
X20901667Y-11500952D02*
X20920715Y-11510476D01*
X20920715Y-11510476D02*
X20939762Y-11510476D01*
X20996905Y-11500952D02*
X21015953Y-11510476D01*
X21015953Y-11510476D02*
X21054048Y-11510476D01*
X21054048Y-11510476D02*
X21073096Y-11500952D01*
X21073096Y-11500952D02*
X21082619Y-11481905D01*
X21082619Y-11481905D02*
X21082619Y-11472381D01*
X21082619Y-11472381D02*
X21073096Y-11453333D01*
X21073096Y-11453333D02*
X21054048Y-11443809D01*
X21054048Y-11443809D02*
X21025476Y-11443809D01*
X21025476Y-11443809D02*
X21006429Y-11434286D01*
X21006429Y-11434286D02*
X20996905Y-11415238D01*
X20996905Y-11415238D02*
X20996905Y-11405714D01*
X20996905Y-11405714D02*
X21006429Y-11386667D01*
X21006429Y-11386667D02*
X21025476Y-11377143D01*
X21025476Y-11377143D02*
X21054048Y-11377143D01*
X21054048Y-11377143D02*
X21073096Y-11386667D01*
X21149286Y-11586667D02*
X21158810Y-11577143D01*
X21158810Y-11577143D02*
X21177857Y-11548571D01*
X21177857Y-11548571D02*
X21187381Y-11529524D01*
X21187381Y-11529524D02*
X21196905Y-11500952D01*
X21196905Y-11500952D02*
X21206429Y-11453333D01*
X21206429Y-11453333D02*
X21206429Y-11415238D01*
X21206429Y-11415238D02*
X21196905Y-11367619D01*
X21196905Y-11367619D02*
X21187381Y-11339048D01*
X21187381Y-11339048D02*
X21177857Y-11320000D01*
X21177857Y-11320000D02*
X21158810Y-11291428D01*
X21158810Y-11291428D02*
X21149286Y-11281905D01*
D15*
X14916500Y-11779500D02*
X14995000Y-11701000D01*
X14916500Y-11622500D01*
X14838000Y-11701000D01*
X14916500Y-11779500D01*
D11*
X15347381Y-11774476D02*
X15233095Y-11774476D01*
X15290238Y-11774476D02*
X15290238Y-11574476D01*
X15290238Y-11574476D02*
X15271190Y-11603048D01*
X15271190Y-11603048D02*
X15252143Y-11622095D01*
X15252143Y-11622095D02*
X15233095Y-11631619D01*
X15433095Y-11755428D02*
X15442619Y-11764952D01*
X15442619Y-11764952D02*
X15433095Y-11774476D01*
X15433095Y-11774476D02*
X15423571Y-11764952D01*
X15423571Y-11764952D02*
X15433095Y-11755428D01*
X15433095Y-11755428D02*
X15433095Y-11774476D01*
X15623571Y-11574476D02*
X15528333Y-11574476D01*
X15528333Y-11574476D02*
X15518809Y-11669714D01*
X15518809Y-11669714D02*
X15528333Y-11660190D01*
X15528333Y-11660190D02*
X15547381Y-11650667D01*
X15547381Y-11650667D02*
X15595000Y-11650667D01*
X15595000Y-11650667D02*
X15614048Y-11660190D01*
X15614048Y-11660190D02*
X15623571Y-11669714D01*
X15623571Y-11669714D02*
X15633095Y-11688762D01*
X15633095Y-11688762D02*
X15633095Y-11736381D01*
X15633095Y-11736381D02*
X15623571Y-11755428D01*
X15623571Y-11755428D02*
X15614048Y-11764952D01*
X15614048Y-11764952D02*
X15595000Y-11774476D01*
X15595000Y-11774476D02*
X15547381Y-11774476D01*
X15547381Y-11774476D02*
X15528333Y-11764952D01*
X15528333Y-11764952D02*
X15518809Y-11755428D01*
X15699762Y-11574476D02*
X15833095Y-11574476D01*
X15833095Y-11574476D02*
X15747381Y-11774476D01*
X15947381Y-11574476D02*
X15966429Y-11574476D01*
X15966429Y-11574476D02*
X15985476Y-11584000D01*
X15985476Y-11584000D02*
X15995000Y-11593524D01*
X15995000Y-11593524D02*
X16004524Y-11612571D01*
X16004524Y-11612571D02*
X16014048Y-11650667D01*
X16014048Y-11650667D02*
X16014048Y-11698286D01*
X16014048Y-11698286D02*
X16004524Y-11736381D01*
X16004524Y-11736381D02*
X15995000Y-11755428D01*
X15995000Y-11755428D02*
X15985476Y-11764952D01*
X15985476Y-11764952D02*
X15966429Y-11774476D01*
X15966429Y-11774476D02*
X15947381Y-11774476D01*
X15947381Y-11774476D02*
X15928333Y-11764952D01*
X15928333Y-11764952D02*
X15918809Y-11755428D01*
X15918809Y-11755428D02*
X15909286Y-11736381D01*
X15909286Y-11736381D02*
X15899762Y-11698286D01*
X15899762Y-11698286D02*
X15899762Y-11650667D01*
X15899762Y-11650667D02*
X15909286Y-11612571D01*
X15909286Y-11612571D02*
X15918809Y-11593524D01*
X15918809Y-11593524D02*
X15928333Y-11584000D01*
X15928333Y-11584000D02*
X15947381Y-11574476D01*
X16099762Y-11774476D02*
X16099762Y-11641143D01*
X16099762Y-11660190D02*
X16109286Y-11650667D01*
X16109286Y-11650667D02*
X16128333Y-11641143D01*
X16128333Y-11641143D02*
X16156905Y-11641143D01*
X16156905Y-11641143D02*
X16175952Y-11650667D01*
X16175952Y-11650667D02*
X16185476Y-11669714D01*
X16185476Y-11669714D02*
X16185476Y-11774476D01*
X16185476Y-11669714D02*
X16195000Y-11650667D01*
X16195000Y-11650667D02*
X16214048Y-11641143D01*
X16214048Y-11641143D02*
X16242619Y-11641143D01*
X16242619Y-11641143D02*
X16261667Y-11650667D01*
X16261667Y-11650667D02*
X16271190Y-11669714D01*
X16271190Y-11669714D02*
X16271190Y-11774476D01*
X16366429Y-11774476D02*
X16366429Y-11641143D01*
X16366429Y-11660190D02*
X16375952Y-11650667D01*
X16375952Y-11650667D02*
X16395000Y-11641143D01*
X16395000Y-11641143D02*
X16423571Y-11641143D01*
X16423571Y-11641143D02*
X16442619Y-11650667D01*
X16442619Y-11650667D02*
X16452143Y-11669714D01*
X16452143Y-11669714D02*
X16452143Y-11774476D01*
X16452143Y-11669714D02*
X16461667Y-11650667D01*
X16461667Y-11650667D02*
X16480714Y-11641143D01*
X16480714Y-11641143D02*
X16509286Y-11641143D01*
X16509286Y-11641143D02*
X16528333Y-11650667D01*
X16528333Y-11650667D02*
X16537857Y-11669714D01*
X16537857Y-11669714D02*
X16537857Y-11774476D01*
X16895952Y-11564952D02*
X16724524Y-11822095D01*
X17120714Y-11574476D02*
X17139762Y-11574476D01*
X17139762Y-11574476D02*
X17158810Y-11584000D01*
X17158810Y-11584000D02*
X17168333Y-11593524D01*
X17168333Y-11593524D02*
X17177857Y-11612571D01*
X17177857Y-11612571D02*
X17187381Y-11650667D01*
X17187381Y-11650667D02*
X17187381Y-11698286D01*
X17187381Y-11698286D02*
X17177857Y-11736381D01*
X17177857Y-11736381D02*
X17168333Y-11755428D01*
X17168333Y-11755428D02*
X17158810Y-11764952D01*
X17158810Y-11764952D02*
X17139762Y-11774476D01*
X17139762Y-11774476D02*
X17120714Y-11774476D01*
X17120714Y-11774476D02*
X17101667Y-11764952D01*
X17101667Y-11764952D02*
X17092143Y-11755428D01*
X17092143Y-11755428D02*
X17082619Y-11736381D01*
X17082619Y-11736381D02*
X17073095Y-11698286D01*
X17073095Y-11698286D02*
X17073095Y-11650667D01*
X17073095Y-11650667D02*
X17082619Y-11612571D01*
X17082619Y-11612571D02*
X17092143Y-11593524D01*
X17092143Y-11593524D02*
X17101667Y-11584000D01*
X17101667Y-11584000D02*
X17120714Y-11574476D01*
X17273095Y-11755428D02*
X17282619Y-11764952D01*
X17282619Y-11764952D02*
X17273095Y-11774476D01*
X17273095Y-11774476D02*
X17263572Y-11764952D01*
X17263572Y-11764952D02*
X17273095Y-11755428D01*
X17273095Y-11755428D02*
X17273095Y-11774476D01*
X17406429Y-11574476D02*
X17425476Y-11574476D01*
X17425476Y-11574476D02*
X17444524Y-11584000D01*
X17444524Y-11584000D02*
X17454048Y-11593524D01*
X17454048Y-11593524D02*
X17463572Y-11612571D01*
X17463572Y-11612571D02*
X17473095Y-11650667D01*
X17473095Y-11650667D02*
X17473095Y-11698286D01*
X17473095Y-11698286D02*
X17463572Y-11736381D01*
X17463572Y-11736381D02*
X17454048Y-11755428D01*
X17454048Y-11755428D02*
X17444524Y-11764952D01*
X17444524Y-11764952D02*
X17425476Y-11774476D01*
X17425476Y-11774476D02*
X17406429Y-11774476D01*
X17406429Y-11774476D02*
X17387381Y-11764952D01*
X17387381Y-11764952D02*
X17377857Y-11755428D01*
X17377857Y-11755428D02*
X17368333Y-11736381D01*
X17368333Y-11736381D02*
X17358810Y-11698286D01*
X17358810Y-11698286D02*
X17358810Y-11650667D01*
X17358810Y-11650667D02*
X17368333Y-11612571D01*
X17368333Y-11612571D02*
X17377857Y-11593524D01*
X17377857Y-11593524D02*
X17387381Y-11584000D01*
X17387381Y-11584000D02*
X17406429Y-11574476D01*
X17644524Y-11574476D02*
X17606429Y-11574476D01*
X17606429Y-11574476D02*
X17587381Y-11584000D01*
X17587381Y-11584000D02*
X17577857Y-11593524D01*
X17577857Y-11593524D02*
X17558810Y-11622095D01*
X17558810Y-11622095D02*
X17549286Y-11660190D01*
X17549286Y-11660190D02*
X17549286Y-11736381D01*
X17549286Y-11736381D02*
X17558810Y-11755428D01*
X17558810Y-11755428D02*
X17568333Y-11764952D01*
X17568333Y-11764952D02*
X17587381Y-11774476D01*
X17587381Y-11774476D02*
X17625476Y-11774476D01*
X17625476Y-11774476D02*
X17644524Y-11764952D01*
X17644524Y-11764952D02*
X17654048Y-11755428D01*
X17654048Y-11755428D02*
X17663572Y-11736381D01*
X17663572Y-11736381D02*
X17663572Y-11688762D01*
X17663572Y-11688762D02*
X17654048Y-11669714D01*
X17654048Y-11669714D02*
X17644524Y-11660190D01*
X17644524Y-11660190D02*
X17625476Y-11650667D01*
X17625476Y-11650667D02*
X17587381Y-11650667D01*
X17587381Y-11650667D02*
X17568333Y-11660190D01*
X17568333Y-11660190D02*
X17558810Y-11669714D01*
X17558810Y-11669714D02*
X17549286Y-11688762D01*
X17854048Y-11774476D02*
X17739762Y-11774476D01*
X17796905Y-11774476D02*
X17796905Y-11574476D01*
X17796905Y-11574476D02*
X17777857Y-11603048D01*
X17777857Y-11603048D02*
X17758810Y-11622095D01*
X17758810Y-11622095D02*
X17739762Y-11631619D01*
X17968333Y-11660190D02*
X17949286Y-11650667D01*
X17949286Y-11650667D02*
X17939762Y-11641143D01*
X17939762Y-11641143D02*
X17930238Y-11622095D01*
X17930238Y-11622095D02*
X17930238Y-11612571D01*
X17930238Y-11612571D02*
X17939762Y-11593524D01*
X17939762Y-11593524D02*
X17949286Y-11584000D01*
X17949286Y-11584000D02*
X17968333Y-11574476D01*
X17968333Y-11574476D02*
X18006429Y-11574476D01*
X18006429Y-11574476D02*
X18025476Y-11584000D01*
X18025476Y-11584000D02*
X18035000Y-11593524D01*
X18035000Y-11593524D02*
X18044524Y-11612571D01*
X18044524Y-11612571D02*
X18044524Y-11622095D01*
X18044524Y-11622095D02*
X18035000Y-11641143D01*
X18035000Y-11641143D02*
X18025476Y-11650667D01*
X18025476Y-11650667D02*
X18006429Y-11660190D01*
X18006429Y-11660190D02*
X17968333Y-11660190D01*
X17968333Y-11660190D02*
X17949286Y-11669714D01*
X17949286Y-11669714D02*
X17939762Y-11679238D01*
X17939762Y-11679238D02*
X17930238Y-11698286D01*
X17930238Y-11698286D02*
X17930238Y-11736381D01*
X17930238Y-11736381D02*
X17939762Y-11755428D01*
X17939762Y-11755428D02*
X17949286Y-11764952D01*
X17949286Y-11764952D02*
X17968333Y-11774476D01*
X17968333Y-11774476D02*
X18006429Y-11774476D01*
X18006429Y-11774476D02*
X18025476Y-11764952D01*
X18025476Y-11764952D02*
X18035000Y-11755428D01*
X18035000Y-11755428D02*
X18044524Y-11736381D01*
X18044524Y-11736381D02*
X18044524Y-11698286D01*
X18044524Y-11698286D02*
X18035000Y-11679238D01*
X18035000Y-11679238D02*
X18025476Y-11669714D01*
X18025476Y-11669714D02*
X18006429Y-11660190D01*
X18120714Y-11574476D02*
X18120714Y-11612571D01*
X18196905Y-11574476D02*
X18196905Y-11612571D01*
X18459762Y-11850667D02*
X18450238Y-11841143D01*
X18450238Y-11841143D02*
X18431191Y-11812571D01*
X18431191Y-11812571D02*
X18421667Y-11793524D01*
X18421667Y-11793524D02*
X18412143Y-11764952D01*
X18412143Y-11764952D02*
X18402619Y-11717333D01*
X18402619Y-11717333D02*
X18402619Y-11679238D01*
X18402619Y-11679238D02*
X18412143Y-11631619D01*
X18412143Y-11631619D02*
X18421667Y-11603048D01*
X18421667Y-11603048D02*
X18431191Y-11584000D01*
X18431191Y-11584000D02*
X18450238Y-11555428D01*
X18450238Y-11555428D02*
X18459762Y-11545905D01*
X18640714Y-11774476D02*
X18526429Y-11774476D01*
X18583572Y-11774476D02*
X18583572Y-11574476D01*
X18583572Y-11574476D02*
X18564524Y-11603048D01*
X18564524Y-11603048D02*
X18545476Y-11622095D01*
X18545476Y-11622095D02*
X18526429Y-11631619D01*
X18764524Y-11574476D02*
X18783572Y-11574476D01*
X18783572Y-11574476D02*
X18802619Y-11584000D01*
X18802619Y-11584000D02*
X18812143Y-11593524D01*
X18812143Y-11593524D02*
X18821667Y-11612571D01*
X18821667Y-11612571D02*
X18831191Y-11650667D01*
X18831191Y-11650667D02*
X18831191Y-11698286D01*
X18831191Y-11698286D02*
X18821667Y-11736381D01*
X18821667Y-11736381D02*
X18812143Y-11755428D01*
X18812143Y-11755428D02*
X18802619Y-11764952D01*
X18802619Y-11764952D02*
X18783572Y-11774476D01*
X18783572Y-11774476D02*
X18764524Y-11774476D01*
X18764524Y-11774476D02*
X18745476Y-11764952D01*
X18745476Y-11764952D02*
X18735953Y-11755428D01*
X18735953Y-11755428D02*
X18726429Y-11736381D01*
X18726429Y-11736381D02*
X18716905Y-11698286D01*
X18716905Y-11698286D02*
X18716905Y-11650667D01*
X18716905Y-11650667D02*
X18726429Y-11612571D01*
X18726429Y-11612571D02*
X18735953Y-11593524D01*
X18735953Y-11593524D02*
X18745476Y-11584000D01*
X18745476Y-11584000D02*
X18764524Y-11574476D01*
X19036905Y-11774476D02*
X19036905Y-11574476D01*
X19122619Y-11774476D02*
X19122619Y-11669714D01*
X19122619Y-11669714D02*
X19113095Y-11650667D01*
X19113095Y-11650667D02*
X19094048Y-11641143D01*
X19094048Y-11641143D02*
X19065476Y-11641143D01*
X19065476Y-11641143D02*
X19046429Y-11650667D01*
X19046429Y-11650667D02*
X19036905Y-11660190D01*
X19246429Y-11774476D02*
X19227381Y-11764952D01*
X19227381Y-11764952D02*
X19217857Y-11755428D01*
X19217857Y-11755428D02*
X19208334Y-11736381D01*
X19208334Y-11736381D02*
X19208334Y-11679238D01*
X19208334Y-11679238D02*
X19217857Y-11660190D01*
X19217857Y-11660190D02*
X19227381Y-11650667D01*
X19227381Y-11650667D02*
X19246429Y-11641143D01*
X19246429Y-11641143D02*
X19275000Y-11641143D01*
X19275000Y-11641143D02*
X19294048Y-11650667D01*
X19294048Y-11650667D02*
X19303572Y-11660190D01*
X19303572Y-11660190D02*
X19313095Y-11679238D01*
X19313095Y-11679238D02*
X19313095Y-11736381D01*
X19313095Y-11736381D02*
X19303572Y-11755428D01*
X19303572Y-11755428D02*
X19294048Y-11764952D01*
X19294048Y-11764952D02*
X19275000Y-11774476D01*
X19275000Y-11774476D02*
X19246429Y-11774476D01*
X19427381Y-11774476D02*
X19408334Y-11764952D01*
X19408334Y-11764952D02*
X19398810Y-11745905D01*
X19398810Y-11745905D02*
X19398810Y-11574476D01*
X19579762Y-11764952D02*
X19560715Y-11774476D01*
X19560715Y-11774476D02*
X19522619Y-11774476D01*
X19522619Y-11774476D02*
X19503572Y-11764952D01*
X19503572Y-11764952D02*
X19494048Y-11745905D01*
X19494048Y-11745905D02*
X19494048Y-11669714D01*
X19494048Y-11669714D02*
X19503572Y-11650667D01*
X19503572Y-11650667D02*
X19522619Y-11641143D01*
X19522619Y-11641143D02*
X19560715Y-11641143D01*
X19560715Y-11641143D02*
X19579762Y-11650667D01*
X19579762Y-11650667D02*
X19589286Y-11669714D01*
X19589286Y-11669714D02*
X19589286Y-11688762D01*
X19589286Y-11688762D02*
X19494048Y-11707809D01*
X19665476Y-11764952D02*
X19684524Y-11774476D01*
X19684524Y-11774476D02*
X19722619Y-11774476D01*
X19722619Y-11774476D02*
X19741667Y-11764952D01*
X19741667Y-11764952D02*
X19751191Y-11745905D01*
X19751191Y-11745905D02*
X19751191Y-11736381D01*
X19751191Y-11736381D02*
X19741667Y-11717333D01*
X19741667Y-11717333D02*
X19722619Y-11707809D01*
X19722619Y-11707809D02*
X19694048Y-11707809D01*
X19694048Y-11707809D02*
X19675000Y-11698286D01*
X19675000Y-11698286D02*
X19665476Y-11679238D01*
X19665476Y-11679238D02*
X19665476Y-11669714D01*
X19665476Y-11669714D02*
X19675000Y-11650667D01*
X19675000Y-11650667D02*
X19694048Y-11641143D01*
X19694048Y-11641143D02*
X19722619Y-11641143D01*
X19722619Y-11641143D02*
X19741667Y-11650667D01*
X19817857Y-11850667D02*
X19827381Y-11841143D01*
X19827381Y-11841143D02*
X19846429Y-11812571D01*
X19846429Y-11812571D02*
X19855953Y-11793524D01*
X19855953Y-11793524D02*
X19865476Y-11764952D01*
X19865476Y-11764952D02*
X19875000Y-11717333D01*
X19875000Y-11717333D02*
X19875000Y-11679238D01*
X19875000Y-11679238D02*
X19865476Y-11631619D01*
X19865476Y-11631619D02*
X19855953Y-11603048D01*
X19855953Y-11603048D02*
X19846429Y-11584000D01*
X19846429Y-11584000D02*
X19827381Y-11555428D01*
X19827381Y-11555428D02*
X19817857Y-11545905D01*
X14795000Y-11878000D02*
X14995000Y-12078000D01*
X14995000Y-11878000D02*
X14795000Y-12078000D01*
X14995000Y-11978000D02*
G75*
G03*
X14995000Y-11978000I-100000J0D01*
G01*
X15233095Y-11870524D02*
X15242619Y-11861000D01*
X15242619Y-11861000D02*
X15261667Y-11851476D01*
X15261667Y-11851476D02*
X15309286Y-11851476D01*
X15309286Y-11851476D02*
X15328333Y-11861000D01*
X15328333Y-11861000D02*
X15337857Y-11870524D01*
X15337857Y-11870524D02*
X15347381Y-11889571D01*
X15347381Y-11889571D02*
X15347381Y-11908619D01*
X15347381Y-11908619D02*
X15337857Y-11937190D01*
X15337857Y-11937190D02*
X15223571Y-12051476D01*
X15223571Y-12051476D02*
X15347381Y-12051476D01*
X15433095Y-12032428D02*
X15442619Y-12041952D01*
X15442619Y-12041952D02*
X15433095Y-12051476D01*
X15433095Y-12051476D02*
X15423571Y-12041952D01*
X15423571Y-12041952D02*
X15433095Y-12032428D01*
X15433095Y-12032428D02*
X15433095Y-12051476D01*
X15509286Y-11851476D02*
X15642619Y-11851476D01*
X15642619Y-11851476D02*
X15556905Y-12051476D01*
X15756905Y-11851476D02*
X15775952Y-11851476D01*
X15775952Y-11851476D02*
X15795000Y-11861000D01*
X15795000Y-11861000D02*
X15804524Y-11870524D01*
X15804524Y-11870524D02*
X15814048Y-11889571D01*
X15814048Y-11889571D02*
X15823571Y-11927667D01*
X15823571Y-11927667D02*
X15823571Y-11975286D01*
X15823571Y-11975286D02*
X15814048Y-12013381D01*
X15814048Y-12013381D02*
X15804524Y-12032428D01*
X15804524Y-12032428D02*
X15795000Y-12041952D01*
X15795000Y-12041952D02*
X15775952Y-12051476D01*
X15775952Y-12051476D02*
X15756905Y-12051476D01*
X15756905Y-12051476D02*
X15737857Y-12041952D01*
X15737857Y-12041952D02*
X15728333Y-12032428D01*
X15728333Y-12032428D02*
X15718809Y-12013381D01*
X15718809Y-12013381D02*
X15709286Y-11975286D01*
X15709286Y-11975286D02*
X15709286Y-11927667D01*
X15709286Y-11927667D02*
X15718809Y-11889571D01*
X15718809Y-11889571D02*
X15728333Y-11870524D01*
X15728333Y-11870524D02*
X15737857Y-11861000D01*
X15737857Y-11861000D02*
X15756905Y-11851476D01*
X15947381Y-11851476D02*
X15966429Y-11851476D01*
X15966429Y-11851476D02*
X15985476Y-11861000D01*
X15985476Y-11861000D02*
X15995000Y-11870524D01*
X15995000Y-11870524D02*
X16004524Y-11889571D01*
X16004524Y-11889571D02*
X16014048Y-11927667D01*
X16014048Y-11927667D02*
X16014048Y-11975286D01*
X16014048Y-11975286D02*
X16004524Y-12013381D01*
X16004524Y-12013381D02*
X15995000Y-12032428D01*
X15995000Y-12032428D02*
X15985476Y-12041952D01*
X15985476Y-12041952D02*
X15966429Y-12051476D01*
X15966429Y-12051476D02*
X15947381Y-12051476D01*
X15947381Y-12051476D02*
X15928333Y-12041952D01*
X15928333Y-12041952D02*
X15918809Y-12032428D01*
X15918809Y-12032428D02*
X15909286Y-12013381D01*
X15909286Y-12013381D02*
X15899762Y-11975286D01*
X15899762Y-11975286D02*
X15899762Y-11927667D01*
X15899762Y-11927667D02*
X15909286Y-11889571D01*
X15909286Y-11889571D02*
X15918809Y-11870524D01*
X15918809Y-11870524D02*
X15928333Y-11861000D01*
X15928333Y-11861000D02*
X15947381Y-11851476D01*
X16099762Y-12051476D02*
X16099762Y-11918143D01*
X16099762Y-11937190D02*
X16109286Y-11927667D01*
X16109286Y-11927667D02*
X16128333Y-11918143D01*
X16128333Y-11918143D02*
X16156905Y-11918143D01*
X16156905Y-11918143D02*
X16175952Y-11927667D01*
X16175952Y-11927667D02*
X16185476Y-11946714D01*
X16185476Y-11946714D02*
X16185476Y-12051476D01*
X16185476Y-11946714D02*
X16195000Y-11927667D01*
X16195000Y-11927667D02*
X16214048Y-11918143D01*
X16214048Y-11918143D02*
X16242619Y-11918143D01*
X16242619Y-11918143D02*
X16261667Y-11927667D01*
X16261667Y-11927667D02*
X16271190Y-11946714D01*
X16271190Y-11946714D02*
X16271190Y-12051476D01*
X16366429Y-12051476D02*
X16366429Y-11918143D01*
X16366429Y-11937190D02*
X16375952Y-11927667D01*
X16375952Y-11927667D02*
X16395000Y-11918143D01*
X16395000Y-11918143D02*
X16423571Y-11918143D01*
X16423571Y-11918143D02*
X16442619Y-11927667D01*
X16442619Y-11927667D02*
X16452143Y-11946714D01*
X16452143Y-11946714D02*
X16452143Y-12051476D01*
X16452143Y-11946714D02*
X16461667Y-11927667D01*
X16461667Y-11927667D02*
X16480714Y-11918143D01*
X16480714Y-11918143D02*
X16509286Y-11918143D01*
X16509286Y-11918143D02*
X16528333Y-11927667D01*
X16528333Y-11927667D02*
X16537857Y-11946714D01*
X16537857Y-11946714D02*
X16537857Y-12051476D01*
X16895952Y-11841952D02*
X16724524Y-12099095D01*
X17120714Y-11851476D02*
X17139762Y-11851476D01*
X17139762Y-11851476D02*
X17158810Y-11861000D01*
X17158810Y-11861000D02*
X17168333Y-11870524D01*
X17168333Y-11870524D02*
X17177857Y-11889571D01*
X17177857Y-11889571D02*
X17187381Y-11927667D01*
X17187381Y-11927667D02*
X17187381Y-11975286D01*
X17187381Y-11975286D02*
X17177857Y-12013381D01*
X17177857Y-12013381D02*
X17168333Y-12032428D01*
X17168333Y-12032428D02*
X17158810Y-12041952D01*
X17158810Y-12041952D02*
X17139762Y-12051476D01*
X17139762Y-12051476D02*
X17120714Y-12051476D01*
X17120714Y-12051476D02*
X17101667Y-12041952D01*
X17101667Y-12041952D02*
X17092143Y-12032428D01*
X17092143Y-12032428D02*
X17082619Y-12013381D01*
X17082619Y-12013381D02*
X17073095Y-11975286D01*
X17073095Y-11975286D02*
X17073095Y-11927667D01*
X17073095Y-11927667D02*
X17082619Y-11889571D01*
X17082619Y-11889571D02*
X17092143Y-11870524D01*
X17092143Y-11870524D02*
X17101667Y-11861000D01*
X17101667Y-11861000D02*
X17120714Y-11851476D01*
X17273095Y-12032428D02*
X17282619Y-12041952D01*
X17282619Y-12041952D02*
X17273095Y-12051476D01*
X17273095Y-12051476D02*
X17263572Y-12041952D01*
X17263572Y-12041952D02*
X17273095Y-12032428D01*
X17273095Y-12032428D02*
X17273095Y-12051476D01*
X17473095Y-12051476D02*
X17358810Y-12051476D01*
X17415952Y-12051476D02*
X17415952Y-11851476D01*
X17415952Y-11851476D02*
X17396905Y-11880048D01*
X17396905Y-11880048D02*
X17377857Y-11899095D01*
X17377857Y-11899095D02*
X17358810Y-11908619D01*
X17596905Y-11851476D02*
X17615953Y-11851476D01*
X17615953Y-11851476D02*
X17635000Y-11861000D01*
X17635000Y-11861000D02*
X17644524Y-11870524D01*
X17644524Y-11870524D02*
X17654048Y-11889571D01*
X17654048Y-11889571D02*
X17663572Y-11927667D01*
X17663572Y-11927667D02*
X17663572Y-11975286D01*
X17663572Y-11975286D02*
X17654048Y-12013381D01*
X17654048Y-12013381D02*
X17644524Y-12032428D01*
X17644524Y-12032428D02*
X17635000Y-12041952D01*
X17635000Y-12041952D02*
X17615953Y-12051476D01*
X17615953Y-12051476D02*
X17596905Y-12051476D01*
X17596905Y-12051476D02*
X17577857Y-12041952D01*
X17577857Y-12041952D02*
X17568333Y-12032428D01*
X17568333Y-12032428D02*
X17558810Y-12013381D01*
X17558810Y-12013381D02*
X17549286Y-11975286D01*
X17549286Y-11975286D02*
X17549286Y-11927667D01*
X17549286Y-11927667D02*
X17558810Y-11889571D01*
X17558810Y-11889571D02*
X17568333Y-11870524D01*
X17568333Y-11870524D02*
X17577857Y-11861000D01*
X17577857Y-11861000D02*
X17596905Y-11851476D01*
X17835000Y-11851476D02*
X17796905Y-11851476D01*
X17796905Y-11851476D02*
X17777857Y-11861000D01*
X17777857Y-11861000D02*
X17768333Y-11870524D01*
X17768333Y-11870524D02*
X17749286Y-11899095D01*
X17749286Y-11899095D02*
X17739762Y-11937190D01*
X17739762Y-11937190D02*
X17739762Y-12013381D01*
X17739762Y-12013381D02*
X17749286Y-12032428D01*
X17749286Y-12032428D02*
X17758810Y-12041952D01*
X17758810Y-12041952D02*
X17777857Y-12051476D01*
X17777857Y-12051476D02*
X17815953Y-12051476D01*
X17815953Y-12051476D02*
X17835000Y-12041952D01*
X17835000Y-12041952D02*
X17844524Y-12032428D01*
X17844524Y-12032428D02*
X17854048Y-12013381D01*
X17854048Y-12013381D02*
X17854048Y-11965762D01*
X17854048Y-11965762D02*
X17844524Y-11946714D01*
X17844524Y-11946714D02*
X17835000Y-11937190D01*
X17835000Y-11937190D02*
X17815953Y-11927667D01*
X17815953Y-11927667D02*
X17777857Y-11927667D01*
X17777857Y-11927667D02*
X17758810Y-11937190D01*
X17758810Y-11937190D02*
X17749286Y-11946714D01*
X17749286Y-11946714D02*
X17739762Y-11965762D01*
X17920714Y-11851476D02*
X18044524Y-11851476D01*
X18044524Y-11851476D02*
X17977857Y-11927667D01*
X17977857Y-11927667D02*
X18006429Y-11927667D01*
X18006429Y-11927667D02*
X18025476Y-11937190D01*
X18025476Y-11937190D02*
X18035000Y-11946714D01*
X18035000Y-11946714D02*
X18044524Y-11965762D01*
X18044524Y-11965762D02*
X18044524Y-12013381D01*
X18044524Y-12013381D02*
X18035000Y-12032428D01*
X18035000Y-12032428D02*
X18025476Y-12041952D01*
X18025476Y-12041952D02*
X18006429Y-12051476D01*
X18006429Y-12051476D02*
X17949286Y-12051476D01*
X17949286Y-12051476D02*
X17930238Y-12041952D01*
X17930238Y-12041952D02*
X17920714Y-12032428D01*
X18120714Y-11851476D02*
X18120714Y-11889571D01*
X18196905Y-11851476D02*
X18196905Y-11889571D01*
X18459762Y-12127667D02*
X18450238Y-12118143D01*
X18450238Y-12118143D02*
X18431191Y-12089571D01*
X18431191Y-12089571D02*
X18421667Y-12070524D01*
X18421667Y-12070524D02*
X18412143Y-12041952D01*
X18412143Y-12041952D02*
X18402619Y-11994333D01*
X18402619Y-11994333D02*
X18402619Y-11956238D01*
X18402619Y-11956238D02*
X18412143Y-11908619D01*
X18412143Y-11908619D02*
X18421667Y-11880048D01*
X18421667Y-11880048D02*
X18431191Y-11861000D01*
X18431191Y-11861000D02*
X18450238Y-11832428D01*
X18450238Y-11832428D02*
X18459762Y-11822905D01*
X18516905Y-11851476D02*
X18640714Y-11851476D01*
X18640714Y-11851476D02*
X18574048Y-11927667D01*
X18574048Y-11927667D02*
X18602619Y-11927667D01*
X18602619Y-11927667D02*
X18621667Y-11937190D01*
X18621667Y-11937190D02*
X18631191Y-11946714D01*
X18631191Y-11946714D02*
X18640714Y-11965762D01*
X18640714Y-11965762D02*
X18640714Y-12013381D01*
X18640714Y-12013381D02*
X18631191Y-12032428D01*
X18631191Y-12032428D02*
X18621667Y-12041952D01*
X18621667Y-12041952D02*
X18602619Y-12051476D01*
X18602619Y-12051476D02*
X18545476Y-12051476D01*
X18545476Y-12051476D02*
X18526429Y-12041952D01*
X18526429Y-12041952D02*
X18516905Y-12032428D01*
X18846429Y-12051476D02*
X18846429Y-11851476D01*
X18932143Y-12051476D02*
X18932143Y-11946714D01*
X18932143Y-11946714D02*
X18922619Y-11927667D01*
X18922619Y-11927667D02*
X18903572Y-11918143D01*
X18903572Y-11918143D02*
X18875000Y-11918143D01*
X18875000Y-11918143D02*
X18855953Y-11927667D01*
X18855953Y-11927667D02*
X18846429Y-11937190D01*
X19055953Y-12051476D02*
X19036905Y-12041952D01*
X19036905Y-12041952D02*
X19027381Y-12032428D01*
X19027381Y-12032428D02*
X19017857Y-12013381D01*
X19017857Y-12013381D02*
X19017857Y-11956238D01*
X19017857Y-11956238D02*
X19027381Y-11937190D01*
X19027381Y-11937190D02*
X19036905Y-11927667D01*
X19036905Y-11927667D02*
X19055953Y-11918143D01*
X19055953Y-11918143D02*
X19084524Y-11918143D01*
X19084524Y-11918143D02*
X19103572Y-11927667D01*
X19103572Y-11927667D02*
X19113095Y-11937190D01*
X19113095Y-11937190D02*
X19122619Y-11956238D01*
X19122619Y-11956238D02*
X19122619Y-12013381D01*
X19122619Y-12013381D02*
X19113095Y-12032428D01*
X19113095Y-12032428D02*
X19103572Y-12041952D01*
X19103572Y-12041952D02*
X19084524Y-12051476D01*
X19084524Y-12051476D02*
X19055953Y-12051476D01*
X19236905Y-12051476D02*
X19217857Y-12041952D01*
X19217857Y-12041952D02*
X19208334Y-12022905D01*
X19208334Y-12022905D02*
X19208334Y-11851476D01*
X19389286Y-12041952D02*
X19370238Y-12051476D01*
X19370238Y-12051476D02*
X19332143Y-12051476D01*
X19332143Y-12051476D02*
X19313095Y-12041952D01*
X19313095Y-12041952D02*
X19303572Y-12022905D01*
X19303572Y-12022905D02*
X19303572Y-11946714D01*
X19303572Y-11946714D02*
X19313095Y-11927667D01*
X19313095Y-11927667D02*
X19332143Y-11918143D01*
X19332143Y-11918143D02*
X19370238Y-11918143D01*
X19370238Y-11918143D02*
X19389286Y-11927667D01*
X19389286Y-11927667D02*
X19398810Y-11946714D01*
X19398810Y-11946714D02*
X19398810Y-11965762D01*
X19398810Y-11965762D02*
X19303572Y-11984809D01*
X19475000Y-12041952D02*
X19494048Y-12051476D01*
X19494048Y-12051476D02*
X19532143Y-12051476D01*
X19532143Y-12051476D02*
X19551191Y-12041952D01*
X19551191Y-12041952D02*
X19560715Y-12022905D01*
X19560715Y-12022905D02*
X19560715Y-12013381D01*
X19560715Y-12013381D02*
X19551191Y-11994333D01*
X19551191Y-11994333D02*
X19532143Y-11984809D01*
X19532143Y-11984809D02*
X19503572Y-11984809D01*
X19503572Y-11984809D02*
X19484524Y-11975286D01*
X19484524Y-11975286D02*
X19475000Y-11956238D01*
X19475000Y-11956238D02*
X19475000Y-11946714D01*
X19475000Y-11946714D02*
X19484524Y-11927667D01*
X19484524Y-11927667D02*
X19503572Y-11918143D01*
X19503572Y-11918143D02*
X19532143Y-11918143D01*
X19532143Y-11918143D02*
X19551191Y-11927667D01*
X19627381Y-12127667D02*
X19636905Y-12118143D01*
X19636905Y-12118143D02*
X19655953Y-12089571D01*
X19655953Y-12089571D02*
X19665476Y-12070524D01*
X19665476Y-12070524D02*
X19675000Y-12041952D01*
X19675000Y-12041952D02*
X19684524Y-11994333D01*
X19684524Y-11994333D02*
X19684524Y-11956238D01*
X19684524Y-11956238D02*
X19675000Y-11908619D01*
X19675000Y-11908619D02*
X19665476Y-11880048D01*
X19665476Y-11880048D02*
X19655953Y-11861000D01*
X19655953Y-11861000D02*
X19636905Y-11832428D01*
X19636905Y-11832428D02*
X19627381Y-11822905D01*
M02*
