G04 #@! TF.GenerationSoftware,KiCad,Pcbnew,(7.0.0)*
G04 #@! TF.CreationDate,2023-06-14T17:50:15+02:00*
G04 #@! TF.ProjectId,Switch ETHERNET,53776974-6368-4204-9554-4845524e4554,rev?*
G04 #@! TF.SameCoordinates,Original*
G04 #@! TF.FileFunction,Soldermask,Top*
G04 #@! TF.FilePolarity,Negative*
%FSLAX46Y46*%
G04 Gerber Fmt 4.6, Leading zero omitted, Abs format (unit mm)*
G04 Created by KiCad (PCBNEW (7.0.0)) date 2023-06-14 17:50:15*
%MOMM*%
%LPD*%
G01*
G04 APERTURE LIST*
G04 Aperture macros list*
%AMRoundRect*
0 Rectangle with rounded corners*
0 $1 Rounding radius*
0 $2 $3 $4 $5 $6 $7 $8 $9 X,Y pos of 4 corners*
0 Add a 4 corners polygon primitive as box body*
4,1,4,$2,$3,$4,$5,$6,$7,$8,$9,$2,$3,0*
0 Add four circle primitives for the rounded corners*
1,1,$1+$1,$2,$3*
1,1,$1+$1,$4,$5*
1,1,$1+$1,$6,$7*
1,1,$1+$1,$8,$9*
0 Add four rect primitives between the rounded corners*
20,1,$1+$1,$2,$3,$4,$5,0*
20,1,$1+$1,$4,$5,$6,$7,0*
20,1,$1+$1,$6,$7,$8,$9,0*
20,1,$1+$1,$8,$9,$2,$3,0*%
%AMRotRect*
0 Rectangle, with rotation*
0 The origin of the aperture is its center*
0 $1 length*
0 $2 width*
0 $3 Rotation angle, in degrees counterclockwise*
0 Add horizontal line*
21,1,$1,$2,0,0,$3*%
G04 Aperture macros list end*
%ADD10R,1.000000X1.000000*%
%ADD11RoundRect,0.140000X0.170000X-0.140000X0.170000X0.140000X-0.170000X0.140000X-0.170000X-0.140000X0*%
%ADD12RoundRect,0.225000X-0.225000X-0.250000X0.225000X-0.250000X0.225000X0.250000X-0.225000X0.250000X0*%
%ADD13RoundRect,0.150000X-0.587500X-0.150000X0.587500X-0.150000X0.587500X0.150000X-0.587500X0.150000X0*%
%ADD14RoundRect,0.135000X0.185000X-0.135000X0.185000X0.135000X-0.185000X0.135000X-0.185000X-0.135000X0*%
%ADD15RoundRect,0.200000X-0.275000X0.200000X-0.275000X-0.200000X0.275000X-0.200000X0.275000X0.200000X0*%
%ADD16RoundRect,0.225000X0.250000X-0.225000X0.250000X0.225000X-0.250000X0.225000X-0.250000X-0.225000X0*%
%ADD17C,0.800000*%
%ADD18C,5.400000*%
%ADD19R,1.700000X1.700000*%
%ADD20O,1.700000X1.700000*%
%ADD21RoundRect,0.140000X-0.021213X0.219203X-0.219203X0.021213X0.021213X-0.219203X0.219203X-0.021213X0*%
%ADD22RoundRect,0.200000X0.275000X-0.200000X0.275000X0.200000X-0.275000X0.200000X-0.275000X-0.200000X0*%
%ADD23RoundRect,0.006600X0.219203X0.365433X-0.365433X-0.219203X-0.219203X-0.365433X0.365433X0.219203X0*%
%ADD24RoundRect,0.022000X-0.219203X0.343654X-0.343654X0.219203X0.219203X-0.343654X0.343654X-0.219203X0*%
%ADD25RotRect,6.900000X6.900000X225.000000*%
%ADD26RoundRect,0.140000X-0.140000X-0.170000X0.140000X-0.170000X0.140000X0.170000X-0.140000X0.170000X0*%
%ADD27C,3.250000*%
%ADD28R,1.500000X1.500000*%
%ADD29C,1.500000*%
%ADD30C,2.300000*%
%ADD31RoundRect,0.135000X-0.135000X-0.185000X0.135000X-0.185000X0.135000X0.185000X-0.135000X0.185000X0*%
%ADD32RoundRect,0.250000X-0.250000X-0.475000X0.250000X-0.475000X0.250000X0.475000X-0.250000X0.475000X0*%
%ADD33RoundRect,0.190000X0.190000X-0.765000X0.190000X0.765000X-0.190000X0.765000X-0.190000X-0.765000X0*%
%ADD34R,3.500000X3.500000*%
%ADD35RoundRect,0.750000X1.000000X-0.750000X1.000000X0.750000X-1.000000X0.750000X-1.000000X-0.750000X0*%
%ADD36RoundRect,0.875000X0.875000X-0.875000X0.875000X0.875000X-0.875000X0.875000X-0.875000X-0.875000X0*%
%ADD37RoundRect,0.140000X0.219203X0.021213X0.021213X0.219203X-0.219203X-0.021213X-0.021213X-0.219203X0*%
%ADD38R,0.630000X1.700000*%
%ADD39R,1.400000X1.200000*%
%ADD40R,2.800000X1.000000*%
%ADD41RoundRect,0.140000X-0.219203X-0.021213X-0.021213X-0.219203X0.219203X0.021213X0.021213X0.219203X0*%
%ADD42RoundRect,0.140000X0.140000X0.170000X-0.140000X0.170000X-0.140000X-0.170000X0.140000X-0.170000X0*%
%ADD43RoundRect,0.200000X-0.200000X-0.275000X0.200000X-0.275000X0.200000X0.275000X-0.200000X0.275000X0*%
%ADD44RoundRect,0.140000X-0.170000X0.140000X-0.170000X-0.140000X0.170000X-0.140000X0.170000X0.140000X0*%
%ADD45RoundRect,0.152174X0.197826X0.697826X-0.197826X0.697826X-0.197826X-0.697826X0.197826X-0.697826X0*%
%ADD46RoundRect,0.141304X0.183696X0.683696X-0.183696X0.683696X-0.183696X-0.683696X0.183696X-0.683696X0*%
%ADD47RoundRect,0.150000X-0.512500X-0.150000X0.512500X-0.150000X0.512500X0.150000X-0.512500X0.150000X0*%
%ADD48RoundRect,0.125000X0.125000X-0.125000X0.125000X0.125000X-0.125000X0.125000X-0.125000X-0.125000X0*%
%ADD49RoundRect,0.200000X0.200000X0.275000X-0.200000X0.275000X-0.200000X-0.275000X0.200000X-0.275000X0*%
%ADD50RoundRect,0.225000X0.225000X0.250000X-0.225000X0.250000X-0.225000X-0.250000X0.225000X-0.250000X0*%
%ADD51RoundRect,0.135000X0.135000X0.185000X-0.135000X0.185000X-0.135000X-0.185000X0.135000X-0.185000X0*%
G04 APERTURE END LIST*
D10*
X247849999Y-86649999D03*
D11*
X221400000Y-64080000D03*
X221400000Y-63120000D03*
D12*
X238603800Y-89593400D03*
X240153800Y-89593400D03*
D11*
X184200000Y-64100000D03*
X184200000Y-63140000D03*
D13*
X230902800Y-84839000D03*
X230902800Y-86739000D03*
X232777800Y-85789000D03*
D14*
X221400000Y-44452000D03*
X221400000Y-43432000D03*
D15*
X248123800Y-92568400D03*
X248123800Y-94218400D03*
D16*
X165540000Y-92200500D03*
X165540000Y-90650500D03*
D15*
X221635000Y-93051400D03*
X221635000Y-94701400D03*
D17*
X244043109Y-74068109D03*
X244636218Y-72636218D03*
X244636218Y-75500000D03*
X246068109Y-72043109D03*
D18*
X246068109Y-74068109D03*
D17*
X246068109Y-76093109D03*
X247500000Y-72636218D03*
X247500000Y-75500000D03*
X248093109Y-74068109D03*
D19*
X171058999Y-95082799D03*
D20*
X168518999Y-95082799D03*
X165978999Y-95082799D03*
X163438999Y-95082799D03*
D14*
X224500000Y-44452000D03*
X224500000Y-43432000D03*
D11*
X162180000Y-64140000D03*
X162180000Y-63180000D03*
D21*
X196402011Y-82017989D03*
X195723189Y-82696811D03*
D11*
X230650000Y-64080000D03*
X230650000Y-63120000D03*
D14*
X187290000Y-44325000D03*
X187290000Y-43305000D03*
D22*
X223385000Y-94776400D03*
X223385000Y-93126400D03*
X202031600Y-88072400D03*
X202031600Y-86422400D03*
D23*
X205745584Y-75647057D03*
X205462742Y-75364214D03*
X205179899Y-75081371D03*
X204897056Y-74798528D03*
X204614214Y-74515686D03*
X204331371Y-74232843D03*
X204048528Y-73950000D03*
X203765685Y-73667158D03*
X203482843Y-73384315D03*
X203200000Y-73101472D03*
X202917157Y-72818629D03*
X202634315Y-72535787D03*
X202351472Y-72252944D03*
X202068629Y-71970101D03*
X201785786Y-71687259D03*
X201502944Y-71404416D03*
X201220101Y-71121573D03*
X200937258Y-70838730D03*
X200654416Y-70555888D03*
X200371573Y-70273045D03*
X200088730Y-69990202D03*
X199805887Y-69707360D03*
D24*
X198766441Y-69707360D03*
X198483598Y-69990202D03*
X198200755Y-70273045D03*
X197917912Y-70555888D03*
X197635070Y-70838730D03*
X197352227Y-71121573D03*
X197069384Y-71404416D03*
X196786542Y-71687259D03*
X196503699Y-71970101D03*
X196220856Y-72252944D03*
X195938013Y-72535787D03*
X195655171Y-72818629D03*
X195372328Y-73101472D03*
X195089485Y-73384315D03*
X194806643Y-73667158D03*
X194523800Y-73950000D03*
X194240957Y-74232843D03*
X193958114Y-74515686D03*
X193675272Y-74798528D03*
X193392429Y-75081371D03*
X193109586Y-75364214D03*
X192826744Y-75647057D03*
D23*
X192826744Y-76686503D03*
X193109586Y-76969346D03*
X193392429Y-77252189D03*
X193675272Y-77535032D03*
X193958114Y-77817874D03*
X194240957Y-78100717D03*
X194523800Y-78383560D03*
X194806643Y-78666402D03*
X195089485Y-78949245D03*
X195372328Y-79232088D03*
X195655171Y-79514931D03*
X195938013Y-79797773D03*
X196220856Y-80080616D03*
X196503699Y-80363459D03*
X196786542Y-80646301D03*
X197069384Y-80929144D03*
X197352227Y-81211987D03*
X197635070Y-81494830D03*
X197917912Y-81777672D03*
X198200755Y-82060515D03*
X198483598Y-82343358D03*
X198766441Y-82626200D03*
D24*
X199805887Y-82626200D03*
X200088730Y-82343358D03*
X200371573Y-82060515D03*
X200654416Y-81777672D03*
X200937258Y-81494830D03*
X201220101Y-81211987D03*
X201502944Y-80929144D03*
X201785786Y-80646301D03*
X202068629Y-80363459D03*
X202351472Y-80080616D03*
X202634315Y-79797773D03*
X202917157Y-79514931D03*
X203200000Y-79232088D03*
X203482843Y-78949245D03*
X203765685Y-78666402D03*
X204048528Y-78383560D03*
X204331371Y-78100717D03*
X204614214Y-77817874D03*
X204897056Y-77535032D03*
X205179899Y-77252189D03*
X205462742Y-76969346D03*
X205745584Y-76686503D03*
D25*
X199286163Y-76166779D03*
D22*
X246373800Y-94218400D03*
X246373800Y-92568400D03*
D26*
X218155000Y-89201400D03*
X219115000Y-89201400D03*
D11*
X154570000Y-64140000D03*
X154570000Y-63180000D03*
X190300000Y-64100000D03*
X190300000Y-63140000D03*
D16*
X169418000Y-92200500D03*
X169418000Y-90650500D03*
D27*
X154404000Y-31690000D03*
X167104000Y-31690000D03*
D28*
X157193999Y-34229999D03*
D29*
X158210000Y-36010000D03*
X159226000Y-34230000D03*
X160242000Y-36010000D03*
X161258000Y-34230000D03*
X162274000Y-36010000D03*
X163290000Y-34230000D03*
X164306000Y-36010000D03*
X153894000Y-40830000D03*
X156184000Y-40830000D03*
X165324000Y-40830000D03*
X167614000Y-40830000D03*
D30*
X152624000Y-35120000D03*
X168884000Y-35120000D03*
D12*
X214025000Y-89701400D03*
X215575000Y-89701400D03*
D31*
X221865000Y-97851400D03*
X222885000Y-97851400D03*
D32*
X217735000Y-96701400D03*
X219635000Y-96701400D03*
D27*
X173992000Y-31690000D03*
X186692000Y-31690000D03*
D28*
X176781999Y-34229999D03*
D29*
X177798000Y-36010000D03*
X178814000Y-34230000D03*
X179830000Y-36010000D03*
X180846000Y-34230000D03*
X181862000Y-36010000D03*
X182878000Y-34230000D03*
X183894000Y-36010000D03*
X173482000Y-40830000D03*
X175772000Y-40830000D03*
X184912000Y-40830000D03*
X187202000Y-40830000D03*
D30*
X172212000Y-35120000D03*
X188472000Y-35120000D03*
D33*
X154580000Y-60740000D03*
X155850000Y-60740000D03*
X157120000Y-60740000D03*
X158390000Y-60740000D03*
X159660000Y-60740000D03*
X160930000Y-60740000D03*
X162200000Y-60740000D03*
X163470000Y-60740000D03*
X164740000Y-60740000D03*
X166010000Y-60740000D03*
X167280000Y-60740000D03*
X168550000Y-60740000D03*
X168550000Y-46140000D03*
X167280000Y-46140000D03*
X166010000Y-46140000D03*
X164740000Y-46140000D03*
X163470000Y-46140000D03*
X162200000Y-46140000D03*
X160930000Y-46140000D03*
X159660000Y-46140000D03*
X158390000Y-46140000D03*
X157120000Y-46140000D03*
X155850000Y-46140000D03*
X154580000Y-46140000D03*
D34*
X229869999Y-89661999D03*
D35*
X229870000Y-95862000D03*
D36*
X234570000Y-92662000D03*
D14*
X184200000Y-44325000D03*
X184200000Y-43305000D03*
X196500000Y-44325000D03*
X196500000Y-43305000D03*
D21*
X197340511Y-82922271D03*
X196661689Y-83601093D03*
D26*
X214370000Y-86500000D03*
X215330000Y-86500000D03*
D11*
X199500000Y-64080000D03*
X199500000Y-63120000D03*
D14*
X239700000Y-44452000D03*
X239700000Y-43432000D03*
X190280000Y-44325000D03*
X190280000Y-43305000D03*
D22*
X205919600Y-93726200D03*
X205919600Y-92076200D03*
D19*
X185165999Y-94955799D03*
D20*
X187705999Y-94955799D03*
X190245999Y-94955799D03*
X192785999Y-94955799D03*
D37*
X192093222Y-73765222D03*
X191414400Y-73086400D03*
D38*
X218339999Y-60108651D03*
X219359999Y-60108651D03*
X220379999Y-60108651D03*
X221399999Y-60108651D03*
X222419999Y-60108651D03*
X223439999Y-60108651D03*
X224459999Y-60108651D03*
X225479999Y-60108651D03*
X226499999Y-60108651D03*
X227519999Y-60108651D03*
X228539999Y-60108651D03*
X229559999Y-60108651D03*
X230579999Y-60108651D03*
X231599999Y-60108651D03*
X232619999Y-60108651D03*
X233639999Y-60108651D03*
X234659999Y-60108651D03*
X235679999Y-60108651D03*
X236699999Y-60108651D03*
X237719999Y-60108651D03*
X238739999Y-60108651D03*
X239759999Y-60108651D03*
X240779999Y-60108651D03*
X241799999Y-60108651D03*
X241799999Y-45908651D03*
X240779999Y-45908651D03*
X239759999Y-45908651D03*
X238739999Y-45908651D03*
X237719999Y-45908651D03*
X236699999Y-45908651D03*
X235679999Y-45908651D03*
X234659999Y-45908651D03*
X233639999Y-45908651D03*
X232619999Y-45908651D03*
X231599999Y-45908651D03*
X230579999Y-45908651D03*
X229559999Y-45908651D03*
X228539999Y-45908651D03*
X227519999Y-45908651D03*
X226499999Y-45908651D03*
X225479999Y-45908651D03*
X224459999Y-45908651D03*
X223439999Y-45908651D03*
X222419999Y-45908651D03*
X221399999Y-45908651D03*
X220379999Y-45908651D03*
X219359999Y-45908651D03*
X218339999Y-45908651D03*
D11*
X236700000Y-64080000D03*
X236700000Y-63120000D03*
X187300000Y-64100000D03*
X187300000Y-63140000D03*
X181200000Y-64100000D03*
X181200000Y-63140000D03*
D22*
X197612000Y-88072400D03*
X197612000Y-86422400D03*
X200558400Y-88072400D03*
X200558400Y-86422400D03*
D11*
X196500000Y-64100000D03*
X196500000Y-63140000D03*
D32*
X242453800Y-96583400D03*
X244353800Y-96583400D03*
D26*
X242903800Y-89083400D03*
X243863800Y-89083400D03*
D11*
X178100000Y-64100000D03*
X178100000Y-63140000D03*
D39*
X206011599Y-84451999D03*
X208211599Y-84451999D03*
X208211599Y-82751999D03*
X206011599Y-82751999D03*
D27*
X232750000Y-31690000D03*
X245450000Y-31690000D03*
D28*
X235539999Y-34229999D03*
D29*
X236556000Y-36010000D03*
X237572000Y-34230000D03*
X238588000Y-36010000D03*
X239604000Y-34230000D03*
X240620000Y-36010000D03*
X241636000Y-34230000D03*
X242652000Y-36010000D03*
X232240000Y-40830000D03*
X234530000Y-40830000D03*
X243670000Y-40830000D03*
X245960000Y-40830000D03*
D30*
X230970000Y-35120000D03*
X247230000Y-35120000D03*
D40*
X197369599Y-90976199D03*
X203169599Y-90976199D03*
X197369599Y-94976199D03*
X203169599Y-94976199D03*
D32*
X217735000Y-94451400D03*
X219635000Y-94451400D03*
D14*
X170916600Y-92024100D03*
X170916600Y-91004100D03*
D11*
X193400000Y-64080000D03*
X193400000Y-63120000D03*
D10*
X211999999Y-85799999D03*
D11*
X227550000Y-64080000D03*
X227550000Y-63120000D03*
D41*
X207178589Y-77115789D03*
X207857411Y-77794611D03*
D12*
X221685000Y-96451400D03*
X223235000Y-96451400D03*
D11*
X209804000Y-84084600D03*
X209804000Y-83124600D03*
D32*
X242453800Y-94333400D03*
X244353800Y-94333400D03*
D11*
X233650000Y-64080000D03*
X233650000Y-63120000D03*
D12*
X238603800Y-87833400D03*
X240153800Y-87833400D03*
D42*
X207538200Y-85913400D03*
X206578200Y-85913400D03*
D27*
X213176000Y-31690000D03*
X225876000Y-31690000D03*
D28*
X215965999Y-34229999D03*
D29*
X216982000Y-36010000D03*
X217998000Y-34230000D03*
X219014000Y-36010000D03*
X220030000Y-34230000D03*
X221046000Y-36010000D03*
X222062000Y-34230000D03*
X223078000Y-36010000D03*
X212666000Y-40830000D03*
X214956000Y-40830000D03*
X224096000Y-40830000D03*
X226386000Y-40830000D03*
D30*
X211396000Y-35120000D03*
X227656000Y-35120000D03*
D11*
X158380000Y-64140000D03*
X158380000Y-63180000D03*
D22*
X199085200Y-88072400D03*
X199085200Y-86422400D03*
D17*
X152900000Y-94150000D03*
X153493109Y-92718109D03*
X153493109Y-95581891D03*
X154925000Y-92125000D03*
D18*
X154925000Y-94150000D03*
D17*
X154925000Y-96175000D03*
X156356891Y-92718109D03*
X156356891Y-95581891D03*
X156950000Y-94150000D03*
D43*
X221810000Y-87951400D03*
X223460000Y-87951400D03*
D11*
X224500000Y-64080000D03*
X224500000Y-63120000D03*
X239750000Y-64080000D03*
X239750000Y-63120000D03*
D14*
X154580000Y-44325000D03*
X154580000Y-43305000D03*
X193400000Y-44325000D03*
X193400000Y-43305000D03*
D22*
X203504800Y-88072400D03*
X203504800Y-86422400D03*
D14*
X227457000Y-44452000D03*
X227457000Y-43432000D03*
D44*
X195150000Y-92266200D03*
X195150000Y-93226200D03*
D14*
X178100000Y-44325000D03*
X178100000Y-43305000D03*
D45*
X215600000Y-91900000D03*
X214210000Y-91900000D03*
D14*
X166010000Y-44325000D03*
X166010000Y-43305000D03*
D26*
X218440000Y-98350000D03*
X219400000Y-98350000D03*
D14*
X162190000Y-44325000D03*
X162190000Y-43305000D03*
D11*
X218310000Y-64080000D03*
X218310000Y-63120000D03*
D46*
X240400000Y-91750000D03*
X239120000Y-91750000D03*
D14*
X199500000Y-44325000D03*
X199500000Y-43305000D03*
D47*
X217610000Y-90551400D03*
X217610000Y-91501400D03*
X217610000Y-92451400D03*
X219885000Y-92451400D03*
X219885000Y-91501400D03*
X219885000Y-90551400D03*
D14*
X233600000Y-44452000D03*
X233600000Y-43432000D03*
D38*
X178069999Y-60108651D03*
X179089999Y-60108651D03*
X180109999Y-60108651D03*
X181129999Y-60108651D03*
X182149999Y-60108651D03*
X183169999Y-60108651D03*
X184189999Y-60108651D03*
X185209999Y-60108651D03*
X186229999Y-60108651D03*
X187249999Y-60108651D03*
X188269999Y-60108651D03*
X189289999Y-60108651D03*
X190309999Y-60108651D03*
X191329999Y-60108651D03*
X192349999Y-60108651D03*
X193369999Y-60108651D03*
X194389999Y-60108651D03*
X195409999Y-60108651D03*
X196429999Y-60108651D03*
X197449999Y-60108651D03*
X198469999Y-60108651D03*
X199489999Y-60108651D03*
X200509999Y-60108651D03*
X201529999Y-60108651D03*
X201529999Y-45908651D03*
X200509999Y-45908651D03*
X199489999Y-45908651D03*
X198469999Y-45908651D03*
X197449999Y-45908651D03*
X196429999Y-45908651D03*
X195409999Y-45908651D03*
X194389999Y-45908651D03*
X193369999Y-45908651D03*
X192349999Y-45908651D03*
X191329999Y-45908651D03*
X190309999Y-45908651D03*
X189289999Y-45908651D03*
X188269999Y-45908651D03*
X187249999Y-45908651D03*
X186229999Y-45908651D03*
X185209999Y-45908651D03*
X184189999Y-45908651D03*
X183169999Y-45908651D03*
X182149999Y-45908651D03*
X181129999Y-45908651D03*
X180109999Y-45908651D03*
X179089999Y-45908651D03*
X178069999Y-45908651D03*
D14*
X226935800Y-86043000D03*
X226935800Y-85023000D03*
D12*
X214025000Y-87950000D03*
X215575000Y-87950000D03*
D48*
X228713800Y-86889000D03*
X228713800Y-84689000D03*
D49*
X223460000Y-89701400D03*
X221810000Y-89701400D03*
D14*
X181100000Y-44325000D03*
X181100000Y-43305000D03*
D50*
X247923800Y-96300000D03*
X246373800Y-96300000D03*
D47*
X242266300Y-90633400D03*
X242266300Y-91583400D03*
X242266300Y-92533400D03*
X244541300Y-92533400D03*
X244541300Y-91583400D03*
X244541300Y-90633400D03*
D14*
X230505000Y-44452000D03*
X230505000Y-43432000D03*
D27*
X193590000Y-31690000D03*
X206290000Y-31690000D03*
D28*
X196379999Y-34229999D03*
D29*
X197396000Y-36010000D03*
X198412000Y-34230000D03*
X199428000Y-36010000D03*
X200444000Y-34230000D03*
X201460000Y-36010000D03*
X202476000Y-34230000D03*
X203492000Y-36010000D03*
X193080000Y-40830000D03*
X195370000Y-40830000D03*
X204510000Y-40830000D03*
X206800000Y-40830000D03*
D30*
X191810000Y-35120000D03*
X208070000Y-35120000D03*
D11*
X166000000Y-64140000D03*
X166000000Y-63180000D03*
D26*
X243001800Y-98105400D03*
X243961800Y-98105400D03*
D14*
X158400000Y-44325000D03*
X158400000Y-43305000D03*
D51*
X247573800Y-97750000D03*
X246553800Y-97750000D03*
D14*
X218304989Y-44452000D03*
X218304989Y-43432000D03*
X164140000Y-91935500D03*
X164140000Y-90915500D03*
X236700000Y-44452000D03*
X236700000Y-43432000D03*
D17*
X207906891Y-53718109D03*
X208500000Y-52286218D03*
X208500000Y-55150000D03*
X209931891Y-51693109D03*
D18*
X209931891Y-53718109D03*
D17*
X209931891Y-55743109D03*
X211363782Y-52286218D03*
X211363782Y-55150000D03*
X211956891Y-53718109D03*
D43*
X221735000Y-91451400D03*
X223385000Y-91451400D03*
M02*
