M48
; DRILL file {KiCad (7.0.0)} date Wed Jun 14 17:51:26 2023
; FORMAT={-:-/ absolute / metric / decimal}
; #@! TF.CreationDate,2023-06-14T17:51:26+02:00
; #@! TF.GenerationSoftware,Kicad,Pcbnew,(7.0.0)
; #@! TF.FileFunction,Plated,1,4,PTH
FMAT,2
METRIC
; #@! TA.AperFunction,Plated,PTH,ViaDrill
T1C0.200
; #@! TA.AperFunction,Plated,PTH,ComponentDrill
T2C0.500
; #@! TA.AperFunction,Plated,PTH,ComponentDrill
T3C0.890
; #@! TA.AperFunction,Plated,PTH,ComponentDrill
T4C1.000
; #@! TA.AperFunction,Plated,PTH,ComponentDrill
T5C1.570
; #@! TA.AperFunction,Plated,PTH,ComponentDrill
T6C2.700
%
G90
G05
T1
X152.4Y-28.23
X152.4Y-33.31
X152.4Y-48.55
X152.4Y-53.63
X152.4Y-58.71
X152.4Y-63.79
X152.4Y-68.87
X152.4Y-74.2
X152.4Y-79.03
X152.4Y-84.11
X152.4Y-89.19
X154.94Y-86.65
X155.346Y-43.572
X157.48Y-28.23
X157.48Y-79.03
X157.48Y-89.19
X157.5Y-84.25
X157.53Y-51.16
X157.53Y-58.78
X159.004Y-68.616
X159.156Y-43.546
X160.02Y-30.77
X160.02Y-76.49
X160.02Y-86.65
X160.02Y-91.73
X160.02Y-96.81
X161.417Y-43.495
X161.671Y-71.283
X162.56Y-28.23
X162.56Y-33.31
X162.56Y-79.03
X162.56Y-89.19
X162.61Y-51.16
X162.61Y-58.78
X164.465Y-73.95
X165.1Y-30.77
X165.1Y-68.87
X165.1Y-86.65
X165.1Y-96.81
X166.497Y-76.109
X166.751Y-43.546
X167.64Y-28.23
X167.64Y-71.41
X167.69Y-53.7
X167.69Y-58.78
X169.037Y-66.711
X170.18Y-73.95
X170.18Y-86.65
X170.18Y-96.81
X170.942Y-68.87
X171.9Y-40.05
X172.72Y-28.23
X172.72Y-46.264
X172.72Y-89.19
X174.498Y-72.045
X174.752Y-78.141
X174.879Y-81.153
X175.26Y-51.09
X175.26Y-56.17
X175.26Y-61.25
X175.26Y-86.65
X175.26Y-91.73
X175.26Y-96.81
X177.673Y-75.728
X177.8Y-28.23
X177.8Y-66.33
X177.8Y-89.19
X178.1Y-42.545
X179.959Y-81.026
X180.34Y-30.77
X180.34Y-68.87
X180.34Y-96.81
X180.39Y-51.16
X180.39Y-56.24
X180.8Y-42.545
X182.372Y-72.39
X182.4Y-67.45
X182.88Y-28.23
X182.88Y-84.11
X182.88Y-89.19
X182.88Y-94.27
X183.5Y-43.7
X183.7Y-39.7
X185.42Y-96.81
X185.47Y-51.16
X185.47Y-56.24
X185.95Y-71.0
X186.4Y-67.5
X187.7Y-65.3
X187.706Y-76.109
X187.96Y-28.23
X187.96Y-73.95
X187.96Y-89.19
X188.05Y-69.15
X189.4Y-78.55
X189.9Y-41.9
X190.5Y-96.81
X190.95Y-65.1
X191.75Y-78.4
X193.04Y-28.23
X193.09Y-51.16
X193.09Y-56.24
X193.9Y-42.6
X194.005Y-73.304
X194.107Y-75.779
X194.35Y-76.8
X194.4Y-38.9
X194.666Y-75.22
X194.8Y-65.8
X194.97Y-83.399
X194.996Y-84.897
X195.199Y-77.709
X195.415Y-74.483
X195.58Y-30.77
X195.58Y-96.81
X196.063Y-78.573
X196.469Y-73.518
X196.9Y-42.545
X197.034Y-85.329
X197.409Y-79.944
X197.46Y-72.578
X197.866Y-76.236
X197.866Y-79.284
X197.9Y-65.95
X197.9Y-83.55
X197.968Y-85.329
X198.034Y-80.587
X198.12Y-28.23
X198.12Y-89.19
X198.171Y-71.766
X198.628Y-75.474
X198.628Y-78.522
X198.78Y-81.224
X199.1Y-67.3
X199.39Y-74.712
X199.39Y-76.236
X199.39Y-79.284
X199.4Y-77.75
X199.441Y-70.597
X199.441Y-82.942
X199.593Y-81.418
X200.152Y-72.426
X200.152Y-73.188
X200.152Y-75.474
X200.152Y-78.522
X200.232Y-80.735
X200.273Y-83.596
X200.66Y-30.77
X200.66Y-79.284
X200.66Y-96.81
X200.71Y-51.16
X200.71Y-56.24
X200.914Y-76.236
X200.958Y-80.329
X201.2Y-41.7
X201.574Y-72.985
X201.676Y-75.474
X201.676Y-76.236
X202.051Y-79.214
X202.387Y-73.848
X202.438Y-74.712
X202.565Y-65.3
X202.59Y-67.158
X202.641Y-81.316
X202.647Y-82.073
X203.143Y-80.802
X203.2Y-28.23
X203.2Y-33.31
X203.773Y-77.542
X203.86Y-75.271
X204.343Y-62.901
X205.0Y-76.15
X205.359Y-50.328
X205.359Y-53.63
X205.359Y-58.71
X205.486Y-80.01
X205.74Y-96.81
X205.892Y-89.571
X207.15Y-93.75
X208.28Y-28.23
X208.28Y-33.31
X208.28Y-46.609
X208.28Y-58.71
X208.35Y-85.9
X209.042Y-66.838
X209.601Y-71.476
X209.601Y-73.457
X209.85Y-84.85
X210.0Y-89.55
X210.0Y-92.15
X210.0Y-94.55
X210.0Y-97.15
X211.2Y-88.15
X211.4Y-90.95
X211.4Y-93.35
X211.4Y-95.75
X211.4Y-98.55
X211.709Y-69.251
X211.709Y-77.724
X211.963Y-50.201
X212.4Y-87.15
X212.598Y-92.202
X212.6Y-89.55
X212.6Y-94.55
X212.6Y-97.15
X212.6Y-98.55
X213.36Y-28.23
X213.8Y-85.35
X214.249Y-80.01
X214.376Y-75.474
X214.63Y-63.373
X214.63Y-66.838
X215.9Y-30.77
X216.586Y-94.473
X216.586Y-95.21
X217.0Y-86.25
X217.0Y-87.25
X217.0Y-88.25
X217.0Y-89.495
X217.424Y-73.442
X217.551Y-69.342
X217.551Y-77.633
X218.4Y-84.05
X218.44Y-28.23
X219.0Y-43.6
X219.837Y-71.41
X219.964Y-75.347
X220.091Y-80.01
X220.574Y-87.844
X220.65Y-94.702
X220.65Y-96.607
X220.7Y-43.6
X220.98Y-30.77
X221.03Y-56.24
X222.25Y-77.633
X222.377Y-73.315
X222.6Y-92.15
X222.9Y-39.6
X223.52Y-28.23
X223.52Y-33.31
X223.52Y-84.11
X223.647Y-67.6
X224.1Y-49.25
X224.409Y-70.775
X224.79Y-75.347
X224.79Y-79.883
X224.841Y-94.854
X225.2Y-43.9
X226.0Y-85.75
X226.11Y-56.24
X226.949Y-72.172
X227.33Y-77.633
X227.457Y-67.981
X227.457Y-86.98
X227.6Y-42.4
X228.6Y-28.23
X228.6Y-33.31
X228.6Y-73.95
X228.854Y-70.394
X228.854Y-79.883
X229.7Y-43.6
X230.632Y-75.819
X230.759Y-67.854
X230.886Y-71.791
X231.19Y-56.24
X232.664Y-78.105
X232.918Y-73.533
X233.68Y-28.23
X233.68Y-68.87
X235.0Y-96.35
X235.331Y-70.993
X235.331Y-75.438
X236.15Y-84.1
X236.2Y-38.3
X236.2Y-40.0
X236.2Y-94.75
X236.22Y-30.77
X236.22Y-81.57
X236.22Y-97.663
X236.27Y-51.16
X236.27Y-56.24
X236.4Y-88.55
X237.4Y-42.8
X237.4Y-88.55
X237.4Y-93.15
X237.4Y-96.35
X237.617Y-73.061
X238.1Y-91.75
X238.4Y-93.15
X238.4Y-94.75
X238.76Y-28.23
X238.76Y-33.31
X238.76Y-79.03
X238.76Y-84.11
X239.776Y-67.6
X239.954Y-95.75
X239.979Y-97.42
X240.6Y-42.8
X241.2Y-94.95
X241.249Y-96.607
X241.249Y-98.004
X241.3Y-30.77
X241.3Y-76.49
X241.3Y-81.57
X241.35Y-51.16
X241.35Y-56.24
X241.5Y-87.75
X241.5Y-88.75
X241.5Y-89.75
X243.84Y-28.23
X243.84Y-48.55
X243.84Y-53.63
X243.84Y-58.71
X243.84Y-63.79
X243.84Y-68.87
X243.84Y-79.03
X245.5Y-95.25
X245.5Y-98.25
X245.8Y-91.55
X246.15Y-28.2
X246.38Y-56.134
X246.38Y-66.33
X246.38Y-81.57
X246.38Y-86.65
X246.4Y-95.15
X246.507Y-61.468
X248.412Y-88.138
T2
X152.9Y-94.15
X153.493Y-92.718
X153.493Y-95.582
X154.925Y-92.125
X154.925Y-96.175
X156.357Y-92.718
X156.357Y-95.582
X156.95Y-94.15
X207.907Y-53.718
X208.5Y-52.286
X208.5Y-55.15
X209.932Y-51.693
X209.932Y-55.743
X211.364Y-52.286
X211.364Y-55.15
X211.957Y-53.718
X244.043Y-74.068
X244.636Y-72.636
X244.636Y-75.5
X246.068Y-72.043
X246.068Y-76.093
X247.5Y-72.636
X247.5Y-75.5
X248.093Y-74.068
T3
X153.894Y-40.83
X156.184Y-40.83
X157.194Y-34.23
X158.21Y-36.01
X159.226Y-34.23
X160.242Y-36.01
X161.258Y-34.23
X162.274Y-36.01
X163.29Y-34.23
X164.306Y-36.01
X165.324Y-40.83
X167.614Y-40.83
X173.482Y-40.83
X175.772Y-40.83
X176.782Y-34.23
X177.798Y-36.01
X178.814Y-34.23
X179.83Y-36.01
X180.846Y-34.23
X181.862Y-36.01
X182.878Y-34.23
X183.894Y-36.01
X184.912Y-40.83
X187.202Y-40.83
X193.08Y-40.83
X195.37Y-40.83
X196.38Y-34.23
X197.396Y-36.01
X198.412Y-34.23
X199.428Y-36.01
X200.444Y-34.23
X201.46Y-36.01
X202.476Y-34.23
X203.492Y-36.01
X204.51Y-40.83
X206.8Y-40.83
X212.666Y-40.83
X214.956Y-40.83
X215.966Y-34.23
X216.982Y-36.01
X217.998Y-34.23
X219.014Y-36.01
X220.03Y-34.23
X221.046Y-36.01
X222.062Y-34.23
X223.078Y-36.01
X224.096Y-40.83
X226.386Y-40.83
X232.24Y-40.83
X234.53Y-40.83
X235.54Y-34.23
X236.556Y-36.01
X237.572Y-34.23
X238.588Y-36.01
X239.604Y-34.23
X240.62Y-36.01
X241.636Y-34.23
X242.652Y-36.01
X243.67Y-40.83
X245.96Y-40.83
T4
X163.439Y-95.083
X165.979Y-95.083
X168.519Y-95.083
X171.059Y-95.083
X185.166Y-94.956
X187.706Y-94.956
X190.246Y-94.956
X192.786Y-94.956
T5
X152.624Y-35.12
X168.884Y-35.12
X172.212Y-35.12
X188.472Y-35.12
X191.81Y-35.12
X208.07Y-35.12
X211.396Y-35.12
X227.656Y-35.12
X230.97Y-35.12
X247.23Y-35.12
T6
X154.925Y-94.15
X209.932Y-53.718
X246.068Y-74.068
T4
X228.87Y-89.662G85X230.87Y-89.662
G05
X228.87Y-95.862G85X230.87Y-95.862
G05
X234.57Y-93.662G85X234.57Y-91.662
G05
T0
M30
